<?xml version="1.0" standalone="no"?>
<!DOCTYPE svg PUBLIC "-//W3C//DTD SVG 1.1//EN" "http://www.w3.org/Graphics/SVG/1.1/DTD/svg11.dtd" >
<svg>
<metadata>
Created by FontForge 20090914 at Tue May  9 17:42:20 2017
 By www-data
Copyright (c) 2009 by Viet hoa by UhThiLaHuVo - chipquay@gmail.com. All rights reserved.
</metadata>
<defs>
<font id="HLTAphroditeSlimStylistic" horiz-adv-x="540" >
  <font-face 
    font-family="HLT AphroditeSlimStylistic"
    font-weight="400"
    font-stretch="normal"
    units-per-em="1000"
    panose-1="2 0 5 7 0 0 0 2 0 2"
    ascent="800"
    descent="-200"
    x-height="513.002"
    cap-height="1133"
    bbox="-1618.96 -1086.04 5324 1727"
    underline-thickness="50"
    underline-position="-50"
    unicode-range="U+0020-U+FB06"
  />
<missing-glyph horiz-adv-x="317" 
 />
    <glyph glyph-name=".notdef" horiz-adv-x="317" 
 />
    <glyph glyph-name="space" unicode=" " horiz-adv-x="307" 
 />
    <glyph glyph-name="space" unicode="&#xa0;" horiz-adv-x="307" 
 />
    <glyph glyph-name="exclam" unicode="!" horiz-adv-x="372" 
d="M150 73c11.333 0 21.332 -4 29.999 -12s13 -17.667 13 -29c0.666992 -11.333 -3 -21 -11 -29s-17.667 -12 -29 -12s-21.166 4 -29.499 12s-12.833 17.667 -13.5 29c0 11.333 3.83301 21 11.5 29s17.167 12 28.5 12zM822.999 1181
c32.667 0 57.5029 -4.33105 74.5029 -12.998s23.833 -18.667 20.5 -30c-3.33301 -8.66699 -9.33301 -13.334 -18 -14.001s-17 0.666016 -25 3.99902c-29.333 12.667 -60.5 21.167 -93.5 25.5s-67 -1.5 -102 -17.5s-71 -45.333 -108 -88s-74.5 -104.334 -112.5 -185.001
c-12 -24 -25.833 -57 -41.5 -99s-31.834 -88 -48.501 -138l-49.5 -154l-45.5 -148c-14 -46 -30.333 -78.833 -49 -98.5s-37.667 -30.167 -57 -31.5c-11.333 -0.666992 -17 0.666016 -17 3.99902s0.666992 5.33301 2 6c13.333 9.33301 25.166 24.333 35.499 45
s20.833 48.667 31.5 84c38 129.333 76.667 246.333 116 351s82.666 193.834 129.999 267.501s99.833 130.334 157.5 170.001s124.167 59.5 199.5 59.5z" />
    <glyph glyph-name="quotedbl" unicode="&#x22;" horiz-adv-x="473" 
d="M205 606c26 16 43.168 30.9971 51.501 44.9971s12.166 27.333 11.499 40s-3.16699 24.834 -7.5 36.501s-5.83301 23.167 -4.5 34.5c2 16.667 8 27.334 18 32.001s18.333 6.66699 25 6c4.66699 0 12.167 -2.66699 22.5 -8s15.833 -15 16.5 -29
c0 -19.333 -4.5 -37.833 -13.5 -55.5s-20.167 -33.834 -33.5 -48.501s-27.333 -27.5 -42 -38.5s-27 -19.167 -37 -24.5c-5.33301 -3.33301 -9 -3.16602 -11 0.500977s-0.666992 6.83398 4 9.50098zM358.001 605.997c26 16 43.167 30.9971 51.5 44.9971
s12.166 27.333 11.499 40s-3.16699 24.834 -7.5 36.501s-5.83301 23.167 -4.5 34.5c2 16.667 8 27.334 18 32.001s18.333 6.66699 25 6c5.33301 0 13 -2.66699 23 -8s15.333 -15 16 -29c0 -19.333 -4.5 -37.833 -13.5 -55.5s-20.167 -33.834 -33.5 -48.501
s-27.166 -27.5 -41.499 -38.5s-26.5 -19.167 -36.5 -24.5c-6 -3.33301 -10 -3.16602 -12 0.500977s-0.666992 6.83398 4 9.50098z" />
    <glyph glyph-name="numbersign" unicode="#" horiz-adv-x="865" 
d="M822 505c4 0 6.49512 -0.671875 7.49512 -2.00488s0.833008 -2.66602 -0.5 -3.99902c-11.333 -6 -20.5 -9.83301 -27.5 -11.5s-13.167 -2.5 -18.5 -2.5h-128l-55.5 -115.5l-50.5 -103.5h182c4 0 6.5 -0.5 7.5 -1.5s0.833008 -2.16699 -0.5 -3.5
c-11.333 -6 -20.5 -9.83301 -27.5 -11.5s-12.833 -2.5 -17.5 -2.5h-153l-64 -129.5l-29 -58.5c-4 -8 -7.5 -16.333 -10.5 -25s-5.5 -16.834 -7.5 -24.501s-3.66699 -14.5 -5 -20.5s-2 -10 -2 -12c0 -6 -0.5 -10.167 -1.5 -12.5s-4.83301 -0.5 -11.5 5.5
c-3.33301 2.66699 -6.33301 7 -9 13s-4.16699 13.833 -4.5 23.5s1 21.334 4 35.001s8.83301 29.5 17.5 47.5c5.33301 10 14.666 28.833 27.999 56.5l49 101.5h-179l-64 -129.5l-29 -58.5c-4 -8 -7.5 -16.333 -10.5 -25s-5.5 -16.834 -7.5 -24.501s-3.66699 -14.5 -5 -20.5
s-2 -10 -2 -12c0 -6 -0.5 -10.167 -1.5 -12.5s-5.16699 -0.5 -12.5 5.5c-3.33301 2.66699 -6.16602 7 -8.49902 13s-3.66602 13.833 -3.99902 23.5s1 21.334 4 35.001s8.83301 29.5 17.5 47.5l27 56.5l49 101.5h-162c-2 0 -3.33301 0.5 -4 1.5
s-0.333984 1.83301 0.999023 2.5c9.33301 5.33301 18.333 9 27 11s16 3 22 3h125l51 104.5l56 115.5h-187c-2 0 -3.33301 0.5 -4 1.5s-0.333984 2.16699 0.999023 3.5c8.66699 5.33301 17.334 8.83301 26.001 10.5s16.334 2.5 23.001 2.5c2 0 17 0.166992 45 0.5
s63 0.5 105 0.5l34.5 71l34.5 71c12.667 26.667 21.834 49.5 27.501 68.5s8.83398 34.833 9.50098 47.5c0.666992 5.33301 2.16699 7.83301 4.5 7.5s4.83301 -2.16602 7.5 -5.49902c7.33301 -7.33301 11.833 -16.166 13.5 -26.499s1.5 -21 -0.5 -32s-5 -22 -9 -33
s-8 -20.5 -12 -28.5l-32 -70l-33 -70h181l34 71.5l34 70.5c12.667 26.667 21.834 49.5 27.501 68.5s8.83398 34.833 9.50098 47.5c0.666992 5.33301 2.33398 7.83301 5.00098 7.5s5.33398 -2.16602 8.00098 -5.49902c7.33301 -7.33301 11.666 -16.166 12.999 -26.499
s1.16602 -21 -0.500977 -32s-4.5 -22 -8.5 -33s-8 -20.5 -12 -28.5l-33 -70l-32 -70c22 0 42.5 0.166992 61.5 0.5s35.5 0.5 49.5 0.5h33.5h13.5zM502.995 265.995l50 103.5l56 115.5h-179l-56 -115.5l-50 -104.5c28 0 57.333 0.166992 88 0.5s61 0.5 91 0.5z" />
    <glyph glyph-name="dollar" unicode="$" horiz-adv-x="708" 
d="M553 772c16.667 -2.66699 33 -7.16895 49 -13.502s30.333 -14.666 43 -24.999s22.834 -23.166 30.501 -38.499s11.167 -33.666 10.5 -54.999c-0.666992 -14 -4.33398 -25.333 -11.001 -34s-14.5 -14.667 -23.5 -18s-18.5 -4.16602 -28.5 -2.49902
s-18.667 5.83398 -26 12.501c-11.333 10 -15.833 23.167 -13.5 39.5s10.5 28.5 24.5 36.5c6 3.33301 10.167 8.66602 12.5 15.999s1.16602 14.666 -3.50098 21.999c-4 7.33301 -11.5 15 -22.5 23s-26.833 14.333 -47.5 19l-44.5 -154.5l-54.5 -185.5l53 -54
c17.333 -18 32.5 -36.333 45.5 -55s22.833 -37.834 29.5 -57.501s8.33398 -40.167 5.00098 -61.5c-4 -27.333 -13 -52.833 -27 -76.5s-32 -44.167 -54 -61.5s-47.833 -31.166 -77.5 -41.499s-62.5 -15.833 -98.5 -16.5l-26.5 -91c-6.33301 -22.667 -10.166 -35 -11.499 -37
c-3.33301 -7.33301 -6.66602 -13.833 -9.99902 -19.5s-9.66602 -12.167 -18.999 -19.5c-5.33301 -4 -7 -2.33301 -5 5c0 0.666992 4.33301 15.834 13 45.501l35 117.5c-36.667 1.33301 -67.167 6.33301 -91.5 15s-44.166 19.5 -59.499 32.5s-26.666 27.5 -33.999 43.5
s-12 31.833 -14 47.5s-1.66699 30.5 1 44.5s6 25.667 10 35c2.66699 6 6.66699 11 12 15s11.333 6.66699 18 8s13.667 1.5 21 0.5s14 -3.83301 20 -8.5c6.66699 -4.66699 11.667 -10.167 15 -16.5s5.16602 -12.666 5.49902 -18.999s-0.5 -12.5 -2.5 -18.5
s-4.66699 -11 -8 -15c-3.33301 -4.66699 -7.33301 -8.83398 -12 -12.501s-9 -7.66699 -13 -12s-6.83301 -9.33301 -8.5 -15s-1.5 -12.5 0.5 -20.5c2 -7.33301 6 -15.833 12 -25.5s14.667 -18.834 26 -27.501s25.666 -16.167 42.999 -22.5s38.666 -9.83301 63.999 -10.5
l50 171l56 191l-51.5 53.5c-17 17.667 -32.333 35.5 -46 53.5s-24.5 36.167 -32.5 54.5s-11.333 36.833 -10 55.5c2 31.333 11.167 59.166 27.5 83.499s36.666 44.5 60.999 60.5s51.5 27.833 81.5 35.5s59.333 10.167 88 7.5l15.5 50c3.66699 12 5.5 18.333 5.5 19
c2.66699 9.33301 6.66699 17 12 23s11.333 10.667 18 14c3.33301 1.33301 3.66602 -2.66699 0.999023 -12c-1.33301 -3.33301 -4.33301 -13.5 -9 -30.5zM524 167.998c2 16 0.833008 31.834 -3.5 47.501s-11 31.167 -20 46.5s-19.5 30.333 -31.5 45s-25 29.334 -39 44.001
l-54 -183l-46 -158c34 1.33301 62.833 6.66602 86.5 15.999s43 21.166 58 35.499s26.5 30.833 34.5 49.5s13 37.667 15 57zM429 432.999l53.499 181.5l41.5 142.5c-22.667 2 -45.5 0.333008 -68.5 -5s-43.833 -13.666 -62.5 -24.999s-34.167 -25.5 -46.5 -42.5
s-19.166 -35.833 -20.499 -56.5c-1.33301 -18 0.666992 -35.5 6 -52.5s12.833 -33.5 22.5 -49.5s21 -31.833 34 -47.5s26.5 -30.834 40.5 -45.501z" />
    <glyph glyph-name="percent" unicode="%" horiz-adv-x="875" 
d="M619 608l-101.997 -164.997l-96.5 -155l-76 -121.5c-21 -33.667 -34.167 -55.5 -39.5 -65.5c-17.333 -32 -29.5 -58 -36.5 -78s-9.83301 -37.667 -8.5 -53c0 -0.666992 -0.333008 -1.83398 -1 -3.50098s-1.66699 -2.83398 -3 -3.50098
s-3.16602 -0.333984 -5.49902 0.999023s-4.83301 4.33301 -7.5 9c-4 6.66699 -6.83301 14.5 -8.5 23.5s-1.5 19.833 0.5 32.5s6.33301 27 13 43s16.334 34.333 29.001 55c9.33301 16 23.166 38.5 41.499 67.5l60.5 96l68 108.5l65 103.5l51.5 81.5
c14.333 22.667 23.166 37.334 26.499 44.001c18.667 33.333 32.167 60.5 40.5 81.5s11.833 39.833 10.5 56.5c0 0.666992 0.166992 1.66699 0.5 3s1.16602 2.16602 2.49902 2.49902s3.16602 0 5.49902 -1s5.16602 -3.83301 8.49902 -8.5
c8.66699 -11.333 10.667 -29.333 6 -54s-19.667 -58 -45 -100zM661.003 358.003c31.333 0 54.165 -9.8252 68.498 -29.4922s22 -44 23 -73s-4.16699 -60 -15.5 -93s-26.833 -63 -46.5 -90s-43 -48.167 -70 -63.5s-55.833 -20 -86.5 -14c-18 3.33301 -32.833 11 -44.5 23
s-20.167 26.167 -25.5 42.5s-7.5 33.833 -6.5 52.5s4.5 37 10.5 55c10 28 22.5 52.167 37.5 72.5s30.833 36.666 47.5 48.999s33 21.166 49 26.499s29.667 7.66602 41 6.99902c6 -0.666992 10.5 -3 13.5 -7s4.33301 -8.33301 4 -13s-2.33301 -8.83398 -6 -12.501
s-8.83398 -5.16699 -15.501 -4.5c-4.66699 0 -8.16699 1.16699 -10.5 3.5s-4.16602 4.66602 -5.49902 6.99902s-2.5 4.5 -3.5 6.5s-2.83301 3 -5.5 3c-3.33301 0 -6.5 -0.833008 -9.5 -2.5l-9.5 -5.5c-29.333 -20.667 -52.666 -46.667 -69.999 -78s-28.333 -62 -33 -92
s-3 -56.833 5 -80.5s23 -37.834 45 -42.501c22.667 -5.33301 44.334 -1 65.001 13s39 33 55 57s29 50.833 39 80.5s15.5 58.167 16.5 85.5s-2.83301 51.166 -11.5 71.499s-23.667 33.166 -45 38.499c-3.33301 0.666992 -5 2 -5 4s1.66699 3 5 3zM329.002 720.011
c31.333 0 54.1621 -9.82715 68.4951 -29.4941s22 -43.834 23 -72.501s-4.16699 -59.667 -15.5 -93s-26.833 -63.333 -46.5 -90s-43 -47.834 -70 -63.501s-55.833 -20.5 -86.5 -14.5c-18 4 -32.833 11.833 -44.5 23.5s-20.167 25.834 -25.5 42.501s-7.5 34.334 -6.5 53.001
s4.5 37 10.5 55c10 28 22.5 52 37.5 72s30.833 36.333 47.5 49s33 21.667 49 27s29.667 7.66602 41 6.99902c6 -0.666992 10.5 -3 13.5 -7s4.33301 -8.33301 4 -13s-2.16602 -8.83398 -5.49902 -12.501s-8.33301 -5.5 -15 -5.5c-5.33301 0 -9.16602 1.16699 -11.499 3.5
s-4.16602 4.66602 -5.49902 6.99902s-2.5 4.5 -3.5 6.5s-2.5 3 -4.5 3c-6 0 -12.333 -2.66699 -19 -8c-29.333 -20.667 -52.666 -46.667 -69.999 -78s-28.5 -62 -33.5 -92s-3.5 -56.833 4.5 -80.5s23 -37.834 45 -42.501c22.667 -5.33301 44.334 -1 65.001 13s39 33 55 57
s29 50.833 39 80.5s15.5 58.167 16.5 85.5s-2.83301 51.166 -11.5 71.499s-23.667 33.166 -45 38.499c-3.33301 1.33301 -5 2.83301 -5 4.5s1.66699 2.5 5 2.5z" />
    <glyph glyph-name="ampersand" unicode="&#x26;" horiz-adv-x="1125" 
d="M938 442c32 0 59.8213 -4.66992 83.4883 -14.0029s43.167 -21.833 58.5 -37.5s26.666 -33.667 33.999 -54s11 -41.833 11 -64.5c0 -34 -6.5 -69.333 -19.5 -106s-33 -70.334 -60 -101.001s-61.5 -56 -103.5 -76s-92 -30 -150 -30c-38.667 0 -74.167 3.5 -106.5 10.5
s-62.166 16.833 -89.499 29.5s-52.666 27.667 -75.999 45s-45 36.666 -65 57.999c-31.333 -36 -65.666 -65.333 -102.999 -88s-81.333 -34 -132 -34c-15.333 0 -33.833 2.5 -55.5 7.5s-42.5 13.833 -62.5 26.5s-37 29.334 -51 50.001s-21 47 -21 79
c0 36.667 9.66699 69.167 29 97.5s42.5 52.833 69.5 73.5s55.167 38.167 84.5 52.5l74 35.5c-14 50 -21 96.333 -21 139c0 30 5.16699 58.833 15.5 86.5s25.833 52.334 46.5 74.001s46.334 39 77.001 52s66.334 19.5 107.001 19.5c20.667 0 39.167 -3.16699 55.5 -9.5
s30 -14.833 41 -25.5s19.333 -22.5 25 -35.5s8.5 -25.833 8.5 -38.5c0 -17.333 -3.16699 -33.833 -9.5 -49.5s-15 -29.5 -26 -41.5s-24.167 -21.5 -39.5 -28.5s-31.666 -10.5 -48.999 -10.5c-4.66699 0 -7 1 -7 3s1.33301 3.33301 4 4c12.667 2 24.167 6.83301 34.5 14.5
s19.166 16.834 26.499 27.501s13 22.5 17 35.5s6 26.167 6 39.5c0 12.667 -2 24.834 -6 36.501s-10 21.834 -18 30.501s-18.5 15.667 -31.5 21s-28.5 8 -46.5 8c-24 0 -46.667 -4.5 -68 -13.5s-40.166 -22 -56.499 -39s-29.333 -38 -39 -63s-14.5 -53.5 -14.5 -85.5
c0 -30 3.83301 -61.833 11.5 -95.5s18.334 -67.834 32.001 -102.501s30.167 -68.834 49.5 -102.501s41 -65.5 65 -95.5c19.333 26 38.333 53.667 57 83s37.834 58 57.501 86s39.834 54.833 60.501 80.5s43 48.167 67 67.5s49.833 34.666 77.5 45.999s57.834 17 90.501 17
c25.333 0 38 -5.33301 38 -16c0 -4 -1.5 -7.66699 -4.5 -11s-7.16699 -5 -12.5 -5c-7.33301 0 -14.166 2.16699 -20.499 6.5s-16.166 6.5 -29.499 6.5c-14.667 0 -33.667 -4.66699 -57 -14c-34.667 -14 -65.667 -34.5 -93 -61.5s-53.166 -57.167 -77.499 -90.5
s-48 -68.333 -71 -105s-46.833 -71.334 -71.5 -104.001c20 -24 41.167 -46 63.5 -66s46.333 -37.333 72 -52s53.167 -26 82.5 -34s61 -12 95 -12c54 0 100.167 9.16699 138.5 27.5s69.833 41.833 94.5 70.5s42.834 60.334 54.501 95.001s17.5 68.334 17.5 101.001
c0 21.333 -3.33301 41.5 -10 60.5s-17 35.5 -31 49.5s-31.5 25.167 -52.5 33.5s-45.833 12.5 -74.5 12.5c-30 0 -57.5 -6.16699 -82.5 -18.5s-46.167 -27.5 -63.5 -45.5s-30.833 -37.5 -40.5 -58.5s-14.5 -40.5 -14.5 -58.5c0 -14 3.16699 -26.167 9.5 -36.5
s16.166 -17.166 29.499 -20.499c11.333 -4 17 -10.333 17 -19c0 -4 -1.66699 -7.83301 -5 -11.5s-7.66602 -5.5 -12.999 -5.5c-10 0 -18.833 3.16699 -26.5 9.5s-14 13.833 -19 22.5s-8.83301 17.834 -11.5 27.501s-4 18.167 -4 25.5c0 22 5.83301 44.833 17.5 68.5
s27.5 45.5 47.5 65.5s43.667 36.333 71 49s56.666 19 87.999 19zM221.988 2.99707c3.33301 -0.666992 6.83496 -1.00195 10.502 -1.00195h10.5c40.667 0 77.167 10.5 109.5 31.5s62.5 48.167 90.5 81.5c-36 40 -66.667 83.667 -92 131s-45.333 94.333 -60 141
c-38 -16.667 -70.167 -34.5 -96.5 -53.5s-47.833 -38.667 -64.5 -59s-28.834 -40.833 -36.501 -61.5s-11.5 -40.667 -11.5 -60s3.5 -37.666 10.5 -54.999s16.667 -32.666 29 -45.999s27.166 -24.333 44.499 -33s36 -14 56 -16z" />
    <glyph glyph-name="quotesingle" unicode="'" horiz-adv-x="49" 
d="M153 606c26 16 43.168 30.9971 51.501 44.9971s12.166 27.333 11.499 40s-3.16699 24.834 -7.5 36.501s-5.83301 23.167 -4.5 34.5c2 16.667 8 27.334 18 32.001s18.333 6.66699 25 6c4.66699 0 12.167 -2.66699 22.5 -8s15.833 -15 16.5 -29
c0 -19.333 -4.5 -37.833 -13.5 -55.5s-20.167 -33.834 -33.5 -48.501s-27.333 -27.5 -42 -38.5s-27 -19.167 -37 -24.5c-5.33301 -3.33301 -9 -3.16602 -11 0.500977s-0.666992 6.83398 4 9.50098z" />
    <glyph glyph-name="parenleft" unicode="(" horiz-adv-x="517" 
d="M722 1124c-24 -12 -50.5029 -27.335 -79.5029 -46.002s-59 -41.167 -90 -67.5s-62.167 -56.5 -93.5 -90.5s-61.333 -72.667 -90 -116s-55.167 -91.5 -79.5 -144.5s-44.833 -111.5 -61.5 -175.5c-17.333 -66 -26 -132.5 -26 -199.5s6.16699 -131.833 18.5 -194.5
s29.333 -122 51 -178s45.834 -105.667 72.501 -149c5.33301 -8 10.333 -14 15 -18s8.83398 -7.16699 12.501 -9.5s7.33398 -4.33301 11.001 -6s7.16699 -4.16699 10.5 -7.5c4.66699 -4.66699 7 -9.16699 7 -13.5s-1.16699 -7.83301 -3.5 -10.5s-5.83301 -4 -10.5 -4
s-9 2.33301 -13 7c-7.33301 7.33301 -19.5 22.5 -36.5 45.5s-35.5 52.333 -55.5 88s-40 76.834 -60 123.501s-36.333 97.667 -49 153s-20.167 114 -22.5 176s3.83398 126 18.501 192c15.333 70 38.333 134.667 69 194s65.667 113.833 105 163.5s80.833 93.834 124.5 132.501
s86.5 72.167 128.5 100.5s81.333 51.166 118 68.499s67 29.333 91 36c6.66699 2 12 1.83301 16 -0.5s6.5 -5.16602 7.5 -8.49902s0.5 -6.83301 -1.5 -10.5s-6 -6.5 -12 -8.5c-5.33301 -1.33301 -10.333 -1.83301 -15 -1.5s-10.334 0.333008 -17.001 0s-14.667 -2 -24 -5
s-21.333 -8.16699 -36 -15.5z" />
    <glyph glyph-name="parenright" unicode=")" horiz-adv-x="572" 
d="M-80 -256c35.333 18.667 76.332 44.4961 122.999 77.4961s93.334 75.333 140.001 127s90.5 113.334 131.5 185.001s74.167 155.5 99.5 251.5c17.333 66 26 132.5 26 199.5s-6.16699 131.833 -18.5 194.5s-29.333 121.834 -51 177.501s-45.834 105.167 -72.501 148.5
c-5.33301 8 -10.333 14 -15 18s-9 7.16699 -13 9.5l-11.5 6.5c-3.66699 2 -7.16699 4.66699 -10.5 8c-4.66699 4.66699 -7 9.16699 -7 13.5s1.33301 7.83301 4 10.5s6.33398 4 11.001 4s9 -2.33301 13 -7c7.33301 -7.33301 19.5 -22.5 36.5 -45.5s35.5 -52.5 55.5 -88.5
s39.833 -77.333 59.5 -124s36 -97.667 49 -153s20.667 -114 23 -176s-3.83398 -126 -18.501 -192c-16 -69.333 -39.333 -133.833 -70 -193.5s-65.5 -114.334 -104.5 -164.001s-80.5 -93.834 -124.5 -132.501s-87 -72.167 -129 -100.5s-81.167 -51.166 -117.5 -68.499
s-66.5 -29 -90.5 -35c-6.66699 -2 -12 -2 -16 0s-6.5 4.83301 -7.5 8.5s-0.5 7.33398 1.5 11.001s6 6.16699 12 7.5c5.33301 1.33301 10.333 1.83301 15 1.5s10.167 -0.166016 16.5 0.500977s14.333 2.33398 24 5.00098s21.834 7.66699 36.501 15z" />
    <glyph glyph-name="asterisk" unicode="*" horiz-adv-x="814" 
d="M633 963c20 -14 36.998 -23.6699 50.998 -29.0029s26.333 -9 37 -11s20.167 -3.5 28.5 -4.5s16.5 -4.5 24.5 -10.5c9.33301 -6.66699 13 -14.5 11 -23.5s-6.33301 -17.167 -13 -24.5c-7.33301 -7.33301 -16 -12.666 -26 -15.999s-19.333 -2 -28 4
c-8 5.33301 -13.5 11.5 -16.5 18.5s-6.66699 14.833 -11 23.5s-11 18.5 -20 29.5s-23.5 23.5 -43.5 37.5c-10 -28.667 -16.333 -51.167 -19 -67.5s-3.83398 -30 -3.50098 -41s0.666016 -20.5 0.999023 -28.5s-1.5 -17.667 -5.5 -29
c-4.66699 -13.333 -11.667 -22.833 -21 -28.5s-18 -8.5 -26 -8.5c-9.33301 0 -16.5 3.16699 -21.5 9.5s-5.16699 15.5 -0.5 27.5c4 11.333 9 21 15 29l20.5 28c7.66699 10.667 16 24.334 25 41.001s18.5 39.334 28.5 68.001c-30 -14.667 -53.167 -27.5 -69.5 -38.5
s-29.666 -21 -39.999 -30l-27 -23.5c-7.66699 -6.66699 -17.5 -13 -29.5 -19c-13.333 -7.33301 -23.833 -9.16602 -31.5 -5.49902s-12.5 9.16699 -14.5 16.5c-1.33301 7.33301 0.333984 15.666 5.00098 24.999s13.334 17 26.001 23c12 6 22.5 9.66699 31.5 11
s19.5 3.16602 31.5 5.49902s27 6.33301 45 12s41.667 15.834 71 30.501c-20 14 -37 23.667 -51 29s-26.333 9 -37 11s-20 3.5 -28 4.5s-16 4.5 -24 10.5c-9.33301 6 -13.166 13.667 -11.499 23s6.16699 17.666 13.5 24.999s15.833 12.666 25.5 15.999s18.834 2 27.501 -4
c8 -6 13.667 -12.333 17 -19l11.5 -23c4.33301 -8.66699 11 -18.5 20 -29.5s23.5 -23.5 43.5 -37.5c10 28.667 16.333 51.334 19 68.001s3.83398 30.334 3.50098 41.001s-0.666016 20 -0.999023 28s1.5 17.667 5.5 29c4.66699 13.333 11.667 22.833 21 28.5s18 8.5 26 8.5
c9.33301 0 16.5 -3 21.5 -9s5.16699 -15.333 0.5 -28c-4 -11.333 -9 -21 -15 -29l-20.5 -28c-7.66699 -10.667 -16 -24.334 -25 -41.001s-18.5 -39.334 -28.5 -68.001c30 14.667 53.167 27.5 69.5 38.5s29.666 21 39.999 30l27 24c7.66699 7 17.5 13.5 29.5 19.5
c13.333 6.66699 23.833 8.33398 31.5 5.00098s12.5 -8.66602 14.5 -15.999c1.33301 -7.33301 -0.333984 -15.833 -5.00098 -25.5s-13.334 -17.5 -26.001 -23.5c-12 -6 -22.5 -9.66699 -31.5 -11s-19.667 -3.16602 -32 -5.49902s-27.5 -6.33301 -45.5 -12
s-41.667 -15.834 -71 -30.501z" />
    <glyph glyph-name="plus" unicode="+" horiz-adv-x="484" 
d="M421 286h-136l-50 -138h-41l50 138l-137 1l12 33h138l43 120h41l-43 -120h136z" />
    <glyph glyph-name="comma" unicode="," horiz-adv-x="243" 
d="M22 -124c26 16 43.168 31.001 51.501 45.001s12.166 27.333 11.499 40s-3.16699 24.667 -7.5 36s-5.83301 22.666 -4.5 33.999c2 17.333 8 28.166 18 32.499s18.333 6.5 25 6.5c4.66699 0 12.167 -2.66699 22.5 -8s15.833 -15 16.5 -29c0 -19.333 -4.5 -38 -13.5 -56
s-20.167 -34.333 -33.5 -49s-27.333 -27.5 -42 -38.5s-27 -19.167 -37 -24.5c-5.33301 -3.33301 -9 -3.16602 -11 0.500977s-0.666992 7.16699 4 10.5z" />
    <glyph glyph-name="hyphen" unicode="-" horiz-adv-x="452" 
d="M399 252c8 -11.333 11.5 -22.3301 10.5 -32.9971s-6.83301 -17.334 -17.5 -20.001c-8.66699 -2.66699 -16.167 -2.5 -22.5 0.5s-12.5 7.5 -18.5 13.5s-12.167 12.833 -18.5 20.5s-13.833 14.5 -22.5 20.5c-20 13.333 -43.5 21.5 -70.5 24.5s-52.833 3.83301 -77.5 2.5
c-28.667 -2.66699 -58 -7.33398 -88 -14.001c-4 -1.33301 -7.33301 -2 -10 -2c-6 0 -9 2.66699 -9 8c0 4.66699 7.16699 9.16699 21.5 13.5s32.666 8.16602 54.999 11.499s47 5.5 74 6.5s53.333 0 79 -3s48.834 -8.5 69.501 -16.5s35.667 -19 45 -33z" />
    <glyph glyph-name="period" unicode="." horiz-adv-x="206" 
d="M78 78c11.333 0 21 -4 29 -12s12 -17.667 12 -29s-4 -21 -12 -29s-17.667 -12 -29 -12s-21 4 -29 12s-12 17.667 -12 29s4 21 12 29s17.667 12 29 12z" />
    <glyph glyph-name="slash" unicode="/" horiz-adv-x="458" 
d="M650 1208c9.33301 -10 14.5 -28.499 15.5 -55.499s-8.5 -62.5 -28.5 -106.5l-53.5 -115.5l-74.5 -159l-87 -186l-91.5 -195l-87 -185.5l-74 -159l-53.5 -114.5c-14 -29.667 -22 -47.167 -24 -52.5c-14 -34 -23.667 -61.5 -29 -82.5s-6.33301 -39.167 -3 -54.5
c0 -0.666992 -0.166992 -1.83398 -0.5 -3.50098s-1 -2.83398 -2 -3.50098s-2.66699 -0.5 -5 0.5s-5.5 3.83301 -9.5 8.5c-4.66699 6 -8.5 13.667 -11.5 23s-4.5 20.833 -4.5 34.5s2.16699 29.167 6.5 46.5s11.5 37 21.5 59l36 77.5l66 141l86 182.5l95.5 202.5l94 199.5
l81.5 174.5l59.5 127c15.667 33 24.5 52.167 26.5 57.5c14.667 34.667 24.667 62.834 30 84.501s6.33301 40.5 3 56.5c0 1.33301 0.833008 3.5 2.5 6.5s6.5 0.166992 14.5 -8.5z" />
    <glyph glyph-name="zero" unicode="0" horiz-adv-x="566" 
d="M229 162c30 0 58.6709 10.002 86.0039 30.002s51.166 45.167 71.499 75.5s36.333 63.166 48 98.499s17.5 68.166 17.5 98.499s-6.83301 55.5 -20.5 75.5s-35.834 30 -66.501 30c-29.333 0 -59.666 -12 -90.999 -36s-60.333 -55 -87 -93s-48.5 -80.833 -65.5 -128.5
s-25.5 -95.167 -25.5 -142.5c0 -54.667 10.333 -96.834 31 -126.501s50.667 -44.5 90 -44.5c27.333 0 54.166 8.16699 80.499 24.5s51.166 38 74.499 65s44.333 58.167 63 93.5s34.167 71.666 46.5 108.999s20.833 74.5 25.5 111.5s4.16699 71 -1.5 102
s-16.834 57.667 -33.501 80s-40 37.5 -70 45.5c-5.33301 1.33301 -7.5 4 -6.5 8s3.83301 5.33301 8.5 4c38 -8.66699 68.167 -24.5 90.5 -47.5s38.166 -50.667 47.499 -83s12.666 -67.833 9.99902 -106.5s-10.334 -77.5 -23.001 -116.5s-29.667 -76.667 -51 -113
s-45.833 -68.666 -73.5 -96.999s-58 -51 -91 -68s-67.5 -25.5 -103.5 -25.5c-29.333 0 -54.666 5.5 -75.999 16.5s-38.666 25.667 -51.999 44s-23.166 39.333 -29.499 63s-9.5 47.834 -9.5 72.501c0 30 4.66699 60.833 14 92.5s21.833 62.5 37.5 92.5s34 58.167 55 84.5
s43.5 49.333 67.5 69s48.667 35.167 74 46.5s50.333 17 75 17c30.667 0 54 -9.33301 70 -28s25.5 -42.5 28.5 -71.5s0.166992 -61.333 -8.5 -97s-22.667 -70.667 -42 -105s-43.5 -66 -72.5 -95s-61.833 -51.5 -98.5 -67.5c-12 -5.33301 -22 -6 -30 -2s-13 9.33301 -15 16
s-0.666992 13.167 4 19.5s13.667 9.5 27 9.5z" />
    <glyph glyph-name="one" unicode="1" horiz-adv-x="423" 
d="M322 368l-1.99414 -5c-2.66699 -7.33301 -13.834 -25.333 -33.501 -54s-46.167 -62.5 -79.5 -101.5s-72.333 -80.167 -117 -123.5s-93.334 -83.166 -146.001 -119.499s-108.334 -66.5 -167.001 -90.5s-118.334 -36 -179.001 -36c-4.66699 0 -8 1.16699 -10 3.5
s-2.83301 4.83301 -2.5 7.5s1.66602 5.16699 3.99902 7.5s5.5 3.16602 9.5 2.49902c45.333 -4 90.166 0.333008 134.499 13s87.5 31.167 129.5 55.5s82.5 53.333 121.5 87s76 69.334 111 107.001s67.667 76.167 98 115.5s57.5 77.166 81.5 113.499s44.833 69.5 62.5 99.5
s31.167 54.667 40.5 74c16.667 38.667 34 65 52 79s33.667 21 47 21c5.33301 0 8.83301 -0.5 10.5 -1.5s2.5 -2 2.5 -3s-0.666992 -2.16699 -2 -3.5s-2.33301 -2 -3 -2c-14 -9.33301 -26.5 -24.333 -37.5 -45s-23.167 -50.334 -36.5 -89.001
c-0.666992 -3.33301 -4.5 -15.166 -11.5 -35.499l-26 -75l-33.5 -97l-35 -101l-30.5 -87l-19.5 -54.5c-2.66699 -6 -5.66699 -10.333 -9 -13s-6.33301 -4.66699 -9 -6c-5.33301 -2 -12.5 -5.16699 -21.5 -9.5s-14.5 -6.83301 -16.5 -7.5s-4 -0.166992 -6 1.5
s-2.33301 3.5 -1 5.5z" />
    <glyph glyph-name="two" unicode="2" horiz-adv-x="516" 
d="M168 78c-20.667 0 -41.0049 -6.00098 -61.0049 -18.001s-44 -32 -72 -60c-9.33301 -9.33301 -18.166 -14.666 -26.499 -15.999s-14.833 -0.166016 -19.5 3.50098s-6.83398 8.66699 -6.50098 15s5.16602 13.166 14.499 20.499c42 32.667 84.5 64 127.5 94l124.5 88
c-38.667 10.667 -68.834 28.5 -90.501 53.5s-35.5 53.167 -41.5 84.5s-4.5 63.833 4.5 97.5s24.833 64.334 47.5 92.001s52.167 50.5 88.5 68.5s78.833 27 127.5 27c49.333 0 89.166 -11.167 119.499 -33.5s45.5 -55.5 45.5 -99.5c0 -34.667 -12 -67.334 -36 -98.001
c6.66699 -14.667 10 -28.334 10 -41.001c0 -18 -4.5 -36.333 -13.5 -55s-22 -35.834 -39 -51.501s-37.833 -28.5 -62.5 -38.5s-53 -15 -85 -15c-17.333 0 -33 1 -47 3l-69.5 -51.5l-76.5 -59.5c26.667 11.333 50.334 17 71.001 17c36 0 74.167 -10.667 114.5 -32
s82 -48 125 -80s86.833 -66.833 131.5 -104.5s89.334 -72.5 134.001 -104.5s88.834 -58.667 132.501 -80s85.834 -32 126.501 -32c18 0 34.833 3.16699 50.5 9.5s30.167 14 43.5 23s25 18.833 35 29.5s18 20 24 28c4.66699 5.33301 9 7 13 5s3.66699 -6 -1 -12
c-2 -3.33301 -8.16699 -11.333 -18.5 -24s-23.833 -26 -40.5 -40s-36.5 -26.5 -59.5 -37.5s-48.167 -16.5 -75.5 -16.5c-47.333 0 -94.666 10.833 -141.999 32.5s-94.166 48.834 -140.499 81.501s-91.666 68.167 -135.999 106.5l-128.5 106.5
c-41.333 32.667 -80.666 59.834 -117.999 81.501s-72 32.5 -104 32.5zM476.995 425.999c-10 8 -21.168 13.832 -33.501 17.499s-25 4.33398 -38 2.00098s-25.5 -8.16602 -37.5 -17.499s-22.667 -22.333 -32 -39c-3.33301 -6.66699 -8.83301 -10.167 -16.5 -10.5
s-13.834 1.5 -18.501 5.5s-6.33398 10 -5.00098 18s9 17 23 27c32 21.333 62.333 31.5 91 30.5s52.667 -8.83301 72 -23.5c8 18.667 12 38.334 12 59.001c0 35.333 -10.5 64.166 -31.5 86.499s-54.167 33.5 -99.5 33.5c-33.333 0 -63.666 -8.5 -90.999 -25.5
s-50.5 -38.667 -69.5 -65s-32.833 -55.333 -41.5 -87s-11.167 -62.334 -7.5 -92.001s14.334 -56.167 32.001 -79.5s43.834 -40 78.501 -50c49.333 36 93 71 131 105s65.333 69 82 105zM331.994 206.998c26 0 50 4.50195 72 13.502s41 20.667 57 35s28.333 30.166 37 47.499
s13 34.666 13 51.999c0 10.667 -1.66699 21 -5 31c-21.333 -25.333 -50 -51.833 -86 -79.5l-129 -96.5c12 -2 25.667 -3 41 -3z" />
    <glyph glyph-name="three" unicode="3" horiz-adv-x="512" 
d="M435 30c0 -38.667 -6.67676 -77.498 -20.0098 -116.498s-32 -76.333 -56 -112s-52.167 -69.167 -84.5 -100.5s-67.5 -58.5 -105.5 -81.5s-78 -41 -120 -54s-84.333 -19.5 -127 -19.5c-40 0 -72.667 5.16699 -98 15.5s-44.166 23.333 -56.499 39
s-19.166 32.667 -20.499 51s1.66699 35.333 9 51s18 28.667 32 39s30.333 15.5 49 15.5c12 0 20.833 -3 26.5 -9s8.5 -12.5 8.5 -19.5s-2.5 -13.5 -7.5 -19.5s-11.833 -9 -20.5 -9c-5.33301 0 -9.83301 1.16699 -13.5 3.5s-6.66699 4.83301 -9 7.5
s-4.66602 5.16699 -6.99902 7.5s-4.83301 3.5 -7.5 3.5c-6 0 -12 -4 -18 -12s-10 -18 -12 -30s-1.66699 -25.167 1 -39.5s9.33398 -27.5 20.001 -39.5s25.834 -22 45.501 -30s45.5 -12 77.5 -12c58.667 0 112 11.333 160 34s90.333 52 127 88s67.334 76.5 92.001 121.5
s42.834 89.833 54.501 134.5s16.334 87.167 14.001 127.5s-12.166 73.833 -29.499 100.5s-42.333 44 -75 52s-73.667 2.66699 -123 -16c-6.66699 -2.66699 -10.334 -1.83398 -11.001 2.49902s1.33301 7.16602 6 8.49902c3.33301 1.33301 14.333 4.83301 33 10.5
s41 13.667 67 24s53.5 23 82.5 38s55.833 32.333 80.5 52s45.167 41.834 61.5 66.501s24.5 51.667 24.5 81c0 44 -11.667 76.333 -35 97s-54 31 -92 31c-20.667 0 -43 -4.16699 -67 -12.5s-46.167 -21.166 -66.5 -38.499s-37.333 -39 -51 -65s-20.5 -56.333 -20.5 -91
c0 -32 6.16699 -54.833 18.5 -68.5s25.166 -20.5 38.499 -20.5c6 0 10.333 2.16699 13 6.5l8.5 14.5c3 5.33301 6.33301 10.166 10 14.499s9.5 6.5 17.5 6.5c8.66699 0 15.834 -2.5 21.501 -7.5s8.5 -11.5 8.5 -19.5c0 -2.66699 -0.666992 -6.16699 -2 -10.5
s-4.5 -8.5 -9.5 -12.5s-12.5 -7.33301 -22.5 -10s-23.333 -4 -40 -4c-15.333 0 -29.833 2.16699 -43.5 6.5s-25.5 11 -35.5 20s-18 20.667 -24 35s-9 31.833 -9 52.5c0 34.667 8.5 65.5 25.5 92.5s38.833 49.667 65.5 68s55.834 32.333 87.501 42s62.5 14.5 92.5 14.5
c24 0 46.167 -3.16699 66.5 -9.5s38 -15.5 53 -27.5s26.667 -26.833 35 -44.5s12.5 -37.5 12.5 -59.5c0 -32 -10.667 -61 -32 -87s-48 -49.667 -80 -71s-66.5 -40 -103.5 -56s-71.167 -30 -102.5 -42c10 2 22.167 2.66699 36.5 2s29.333 -3.66699 45 -9
s31.334 -12.833 47.001 -22.5s29.667 -22.167 42 -37.5s22.333 -33.833 30 -55.5s11.5 -46.834 11.5 -75.501z" />
    <glyph glyph-name="four" unicode="4" horiz-adv-x="475" 
d="M412 55c7.33301 6 12.835 7.33691 16.502 4.00391s2.16699 -7 -4.5 -11c-14.667 -9.33301 -31.834 -16 -51.501 -20s-37.834 -6 -54.501 -6h-9l-41 -120l-41.5 -121l-34.5 -100.5c-10 -29 -17 -48.833 -21 -59.5c-2.66699 -6 -5.66699 -10.333 -9 -13
s-6.33301 -4.66699 -9 -6c-5.33301 -2.66699 -12.5 -6 -21.5 -10s-14.5 -6.33301 -16.5 -7c-2 -1.33301 -4 -1 -6 1s-2.33301 4 -1 6l29.5 82.5l39.5 112l43 124l41 117.5c-10 2.66699 -19.667 5.5 -29 8.5s-19 5.83301 -29 8.5s-20.833 5 -32.5 7s-25.167 3 -40.5 3
s-29.333 -2 -42 -6s-24.167 -9.33301 -34.5 -16s-19.833 -14.334 -28.5 -23.001s-16.667 -17.334 -24 -26.001c-6 -7.33301 -12.333 -12.166 -19 -14.499s-12.5 -2.83301 -17.5 -1.5s-8.16699 4.16602 -9.5 8.49902s0 9.5 4 15.5c4.66699 5.33301 14.667 18.666 30 39.999
l58.5 79l81 103.5l97 115c34.333 39 70 76.667 107 113s73.833 68.666 110.5 96.999s72.5 51.166 107.5 68.499s67.833 26 98.5 26c8 0 13.667 -1.83301 17 -5.5s4.5 -7.5 3.5 -11.5s-4 -7 -9 -9s-12.167 -1 -21.5 3c-19.333 8 -43.5 5.16699 -72.5 -8.5
s-60.667 -34.667 -95 -63s-70.166 -62.333 -107.499 -102l-112 -125c-37.333 -43.667 -73.333 -88 -108 -133l-94 -125.5c14 5.33301 29.167 9.5 45.5 12.5s34.166 4.5 53.499 4.5c22.667 0 43.5 -2.16699 62.5 -6.5l57.5 -12.5l31 89.5c8 23.667 12.667 37.167 14 40.5
c10 28 20 51.333 30 70s20 33.334 30 44.001s19.667 18.167 29 22.5s18 6.5 26 6.5c5.33301 0 8.83301 -0.5 10.5 -1.5s2.5 -2 2.5 -3s-0.666992 -2.16699 -2 -3.5s-2.33301 -2 -3 -2c-14 -9.33301 -26.5 -24.333 -37.5 -45s-23.167 -50.667 -36.5 -90l-46 -137
c6.66699 -0.666992 13.667 -1.16699 21 -1.5s15 -0.5 23 -0.5c9.33301 0 18.833 1.16699 28.5 3.5s17.167 5.83301 22.5 10.5z" />
    <glyph glyph-name="five" unicode="5" horiz-adv-x="568" 
d="M99 228c8 11.333 19.3281 23.167 33.9951 35.5s31.334 23.5 50.001 33.5s38.667 18.333 60 25s43 10 65 10c52 0 93.833 -11.333 125.5 -34s54.167 -52.5 67.5 -89.5s18.333 -79 15 -126s-14.333 -95.167 -33 -144.5s-44.167 -97.5 -76.5 -144.5
s-70.666 -89 -114.999 -126s-93.833 -66.833 -148.5 -89.5s-113.667 -34 -177 -34c-38 0 -68.667 5 -92 15s-41 22.5 -53 37.5s-19.167 31.333 -21.5 49s-1.33301 34 3 49s11.333 27.5 21 37.5s20.167 15 31.5 15c8.66699 0 15.5 -3.16699 20.5 -9.5
s7.5 -13.166 7.5 -20.499c0 -8 -2.33301 -13.833 -7 -17.5s-9.66699 -7.33398 -15 -11.001s-10.333 -8 -15 -13s-7 -12.5 -7 -22.5c0 -26.667 11.167 -48.834 33.5 -66.501s53.5 -26.5 93.5 -26.5c56 0 108 10.667 156 32s91.167 49.666 129.5 84.999s71.5 75.333 99.5 120
s50.167 90.5 66.5 137.5s26.333 92.833 30 137.5s0.333984 84.667 -9.99902 120s-28.166 63.666 -53.499 84.999s-58.666 32 -99.999 32c-17.333 0 -34.833 -3 -52.5 -9s-35 -14.333 -52 -25s-33.333 -23.167 -49 -37.5s-29.834 -29.833 -42.501 -46.5
c-3.33301 -4.66699 -7 -8 -11 -10s-7.33301 -3 -10 -3s-4.5 1.5 -5.5 4.5s-0.5 7.16699 1.5 12.5c2.66699 7.33301 8.5 21.833 17.5 43.5l31.5 75.5l38 90.5l37.5 89.5l30 72l15.5 37c8.66699 21.333 19 29.666 31 24.999c30 -12 57.167 -22 81.5 -30s49 -13 74 -15
s51.667 -0.5 80 4.5s61.5 14.167 99.5 27.5c8 3.33301 12.667 3 14 -1s-0.666992 -8 -6 -12c-26 -19.333 -51.667 -33.666 -77 -42.999s-49.833 -15.166 -73.5 -17.499s-46.167 -2.16602 -67.5 0.500977s-41.166 6.66699 -59.499 12s-34.5 11 -48.5 17
s-25.333 11.333 -34 16l-63 -151l-25 -61l-24.5 -59l-20.5 -51c-6 -15.333 -11 -27.666 -15 -36.999z" />
    <glyph glyph-name="six" unicode="6" horiz-adv-x="557" 
d="M1020 1093c6.66699 0 12.0078 -2 16.0078 -6s6 -8.5 6 -13.5s-1.83301 -9.5 -5.5 -13.5s-9.5 -6 -17.5 -6c-12.667 0 -25.167 2.5 -37.5 7.5s-28.166 7.5 -47.499 7.5c-64 0 -129.167 -14.667 -195.5 -44s-130.333 -68.333 -192 -117s-119.667 -104.334 -174 -167.001
s-101.833 -127 -142.5 -193s-72.667 -131.167 -96 -195.5s-35 -122.833 -35 -175.5c0 -38.667 4.16699 -69.667 12.5 -93s18.666 -41.166 30.999 -53.499s25.833 -20.5 40.5 -24.5s28 -6 40 -6c38 0 72.833 12 104.5 36s58.667 54.167 81 90.5s39 75.5 50 117.5
s15.167 81.167 12.5 117.5s-13.334 66.5 -32.001 90.5s-46.334 36 -83.001 36c-15.333 0 -30.666 -3.16699 -45.999 -9.5s-29.333 -14.5 -42 -24.5s-23 -21.333 -31 -34s-12 -25.334 -12 -38.001c0 -4 0.666992 -7.5 2 -10.5s3 -6.16699 5 -9.5s3.66699 -7 5 -11
s2 -9.33301 2 -16c0 -8.66699 -3 -15.5 -9 -20.5s-12.5 -7.66699 -19.5 -8s-13.333 1.83398 -19 6.50098s-8.5 12 -8.5 22c0 18 4.83301 37.167 14.5 57.5s23.167 39.333 40.5 57s37.666 32.167 60.999 43.5s48.666 17 75.999 17c47.333 0 83.166 -13 107.499 -39
s38.666 -58.5 42.999 -97.5s-0.166992 -81.333 -13.5 -127s-34 -88 -62 -127s-62.5 -71.5 -103.5 -97.5s-86.833 -39 -137.5 -39c-44.667 0 -79.834 10.333 -105.501 31s-43.167 48.834 -52.5 84.501s-10.833 77.167 -4.5 124.5s19.666 97.666 39.999 150.999s47 108 80 164
s71.667 110.667 116 164s93.5 103.666 147.5 150.999s112.333 88.833 175 124.5s128.667 63.834 198 84.501s141.666 31 216.999 31z" />
    <glyph glyph-name="seven" unicode="7" horiz-adv-x="511" 
d="M257 672c-24 0 -44 -5.66699 -60 -17s-24 -24.666 -24 -39.999s7.5 -29.833 22.5 -43.5s34.667 -25.334 59 -35.001s52 -16.167 83 -19.5s62.333 -2.33301 94 3s62.167 16 91.5 32s55 38.667 77 68c6.66699 9.33301 14.334 15.166 23.001 17.499s16 1.83301 22 -1.5
s9.33301 -8.83301 10 -16.5s-4 -16.834 -14 -27.501c-7.33301 -8 -19.666 -17.5 -36.999 -28.5s-39 -26.5 -65 -46.5s-55.667 -45.667 -89 -77s-69.666 -70.666 -108.999 -117.999c-70 -85.333 -130.833 -162.5 -182.5 -231.5s-95.834 -131 -132.501 -186
s-67 -103.167 -91 -144.5s-43.5 -76.5 -58.5 -105.5s-26.5 -52.667 -34.5 -71s-14.333 -31.5 -19 -39.5c-5.33301 -9.33301 -11.666 -15 -18.999 -17s-13.833 -1.5 -19.5 1.5s-9.66699 8.16699 -12 15.5s-0.833008 15.666 4.5 24.999c6 11.333 18.333 31.5 37 60.5l69.5 105
l93.5 136l109 153l116 156l115 144.5c37.333 44.667 72.666 84.5 105.999 119.5s63 61.833 89 80.5c-19.333 -10 -42.5 -17.5 -69.5 -22.5s-55.333 -7.5 -85 -7.5s-58.834 2.33301 -87.501 7s-54.5 11.5 -77.5 20.5s-41.667 19.833 -56 32.5s-21.5 27.334 -21.5 44.001
c0 10.667 3.66699 21 11 31s17.333 18.833 30 26.5s27.834 13.834 45.501 18.501s36.5 7 56.5 7c3.33301 0 5.16602 -1.5 5.49902 -4.5s-1.83398 -4.5 -6.50098 -4.5z" />
    <glyph glyph-name="eight" unicode="8" horiz-adv-x="534" 
d="M469 854c20.667 0 40.1641 -3.49902 58.4971 -10.499s34.5 -17.5 48.5 -31.5s25.167 -31.167 33.5 -51.5s12.5 -43.5 12.5 -69.5c0 -34 -8.16699 -64.167 -24.5 -90.5s-37.666 -50.5 -63.999 -72.5s-56.166 -42.167 -89.499 -60.5l-102 -54.5l48 -51
c16 -16.667 30.5 -33.667 43.5 -51s23.5 -35 31.5 -53s12 -36.667 12 -56c0 -33.333 -6.5 -63.833 -19.5 -91.5s-30.5 -51.5 -52.5 -71.5s-47.833 -35.5 -77.5 -46.5s-61.167 -16.5 -94.5 -16.5c-17.333 0 -36.666 2.5 -57.999 7.5s-41.166 14 -59.499 27
s-33.833 31 -46.5 54s-19 52.833 -19 89.5c0 29.333 6.33301 55.666 19 78.999s29.667 44.833 51 64.5s46 37.834 74 54.501s57 32.667 87 48c-12.667 13.333 -24.834 27 -36.501 41s-21.834 28.833 -30.501 44.5s-15.667 32.334 -21 50.001s-8 36.834 -8 57.501
c0 26 6.16699 50 18.5 72s29 40.833 50 56.5s45 28 72 37s55.167 13.5 84.5 13.5c35.333 0 63.5 -5.83301 84.5 -17.5s36 -26.334 45 -44.001s12.333 -36.667 10 -57s-9 -39.333 -20 -57s-26 -32.334 -45 -44.001s-40.5 -17.5 -64.5 -17.5c-3.33301 0 -5 1 -5 3
s1.33301 3 4 3c16 2.66699 30.167 10 42.5 22s21.833 26 28.5 42s10.334 33 11.001 51s-2.33301 34.5 -9 49.5s-17.5 27.5 -32.5 37.5s-34.5 15 -58.5 15c-18 0 -36.667 -3 -56 -9s-36.833 -15.5 -52.5 -28.5s-28.667 -29.333 -39 -49s-15.5 -43.5 -15.5 -71.5
c0 -33.333 9.16699 -64.166 27.5 -92.499s40.166 -55.833 65.499 -82.5c34 16.667 67.333 34 100 52s61.834 37.667 87.501 59s46.167 45.166 61.5 71.499s23 56.166 23 89.499c0 20.667 -3.33301 40.167 -10 58.5s-16.334 34 -29.001 47s-27.667 23.333 -45 31
s-36.666 11.5 -57.999 11.5c-7.33301 0 -10 1.5 -8 4.5s7.33301 4.5 16 4.5zM423.997 164.001c0 24.667 -3.8291 47.168 -11.4961 67.501s-17.834 39.5 -30.501 57.5s-26.667 35 -42 51l-47 48c-28.667 -15.333 -55.834 -31.333 -81.501 -48
s-48.334 -34.834 -68.001 -54.501s-35.334 -41.167 -47.001 -64.5s-17.5 -49.333 -17.5 -78c0 -26 3.83301 -48.5 11.5 -67.5s18.5 -34.833 32.5 -47.5s30.5 -22.167 49.5 -28.5s39.833 -9.5 62.5 -9.5c28 0 53.5 5 76.5 15s42.833 23.167 59.5 39.5s29.667 34.833 39 55.5
s14 42 14 64z" />
    <glyph glyph-name="nine" unicode="9" horiz-adv-x="572" 
d="M-400 -456c-11.333 0 -25.1709 1.00098 -41.5039 3.00098s-32 4.83301 -47 8.5s-28 8.33398 -39 14.001s-16.5 12.167 -16.5 19.5c0 4.66699 1.83301 8.83398 5.5 12.501s8.83398 5.5 15.501 5.5c8.66699 0 14.834 -2.5 18.501 -7.5s9 -10.667 16 -17s17.5 -12 31.5 -17
s35.667 -7.5 65 -7.5c81.333 0 159.833 15 235.5 45s146.167 69.5 211.5 118.5s125 105 179 168s100.333 127.167 139 192.5s68.667 129.5 90 192.5s32.5 119 33.5 168s-9.33301 88.5 -31 118.5s-56.5 45 -104.5 45c-37.333 0 -71.5 -12 -102.5 -36s-57 -54 -78 -90
s-36.833 -74.833 -47.5 -116.5s-14.5 -80.5 -11.5 -116.5s13.5 -66 31.5 -90s44.667 -36 80 -36c18.667 0 36 3.33301 52 10s29.833 15 41.5 25s20.834 21 27.501 33s10 23.333 10 34c0 10 -2.33301 17.667 -7 23s-7 13.333 -7 24c0 9.33301 2.83301 16.666 8.5 21.999
s12 8 19 8s13.5 -2.33301 19.5 -7s9 -12.334 9 -23.001c0 -18 -5 -37 -15 -57s-23.667 -38.667 -41 -56s-37.333 -31.666 -60 -42.999s-46.334 -17 -71.001 -17c-36.667 0 -66.667 7.5 -90 22.5s-40.5 34.833 -51.5 59.5s-16.333 52.667 -16 84s5.33301 63.5 15 96.5
s23.834 65.167 42.501 96.5s40.667 59.333 66 84s54 44.5 86 59.5s66 22.5 102 22.5c49.333 0 88.333 -10 117 -30s48.167 -47.333 58.5 -82s12.333 -75 6 -121s-19.833 -94.833 -40.5 -146.5s-48 -104.834 -82 -159.501s-73.167 -107.834 -117.5 -159.501
s-93.5 -100.5 -147.5 -146.5s-111.5 -86.333 -172.5 -121s-124.667 -62 -191 -82s-134.166 -30 -203.499 -30z" />
    <glyph glyph-name="colon" unicode=":" horiz-adv-x="266" 
d="M138 372c11.333 0 21 -4 29 -12s12 -17.667 12 -29s-4 -21 -12 -29s-17.667 -12 -29 -12s-21 4 -29 12s-12 17.667 -12 29s4 21 12 29s17.667 12 29 12zM78 78c11.333 0 21 -4 29 -12s12 -17.667 12 -29s-4 -21 -12 -29s-17.667 -12 -29 -12s-21 4 -29 12
s-12 17.667 -12 29s4 21 12 29s17.667 12 29 12z" />
    <glyph glyph-name="semicolon" unicode=";" horiz-adv-x="315" 
d="M187 372c11.333 0 21 -4 29 -12s12 -17.667 12 -29s-4 -21 -12 -29s-17.667 -12 -29 -12s-21 4 -29 12s-12 17.667 -12 29s4 21 12 29s17.667 12 29 12zM116 70c2 0 5.16699 -0.666016 9.5 -1.99902s8.66602 -3.33301 12.999 -6s8 -6.5 11 -11.5s4.5 -10.833 4.5 -17.5
c0 -19.333 -4.5 -38 -13.5 -56s-20 -34.333 -33 -49s-26.833 -27.5 -41.5 -38.5s-27 -19.167 -37 -24.5c-6 -3.33301 -9.83301 -3.16602 -11.5 0.500977s-0.166992 7.16699 4.5 10.5c26 16 43 31 51 45s11.833 27.333 11.5 40s-2.66602 24.667 -6.99902 36
s-5.83301 22.666 -4.5 33.999c2 17.333 7.83301 28.166 17.5 32.499s18.167 6.5 25.5 6.5z" />
    <glyph glyph-name="less" unicode="&#x3c;" horiz-adv-x="516" 
d="M130 306c26 -14 54.3291 -30.832 84.9961 -50.499s58.834 -41.667 84.501 -66s46.334 -50.833 62.001 -79.5s21.5 -59 17.5 -91c-0.666992 -4.66699 -3.5 -8.33398 -8.5 -11.001s-10.5 -4.5 -16.5 -5.5s-11.333 -1.33301 -16 -1s-7 0.833008 -7 1.5
c4 22 2.5 43.167 -4.5 63.5s-17.333 39.833 -31 58.5s-30.167 36.5 -49.5 53.5s-39.333 32.667 -60 47s-41.5 27.333 -62.5 39l-56.5 30.5c-5.33301 2.66699 -4 5.5 4 8.5s18.667 6.16699 32 9.5l97 24.5c36 9 72.333 20.5 109 34.5s72.334 31.5 107.001 52.5
s65.667 47.167 93 78.5h42c-15.333 -20 -36.833 -39.5 -64.5 -58.5s-59.667 -37 -96 -54s-76.666 -32.667 -120.999 -47s-90.833 -26.833 -139.5 -37.5z" />
    <glyph glyph-name="equal" unicode="=" horiz-adv-x="653" 
d="M158 385l12 34h412l-13 -34h-411zM99 167l12 34h412l-13 -34h-411z" />
    <glyph glyph-name="greater" unicode="&#x3e;" horiz-adv-x="521" 
d="M99 17c-2 -4 -5.66992 -7.16406 -11.0029 -9.49707s-11 -4 -17 -5s-11.333 -1.33301 -16 -1s-6.66699 1.16602 -6 2.49902c18.667 36 42.5 68.667 71.5 98s61 56.166 96 80.499s71.667 46.166 110 65.499s76.166 36.666 113.499 51.999
c-21.333 4.66699 -45.166 12.667 -71.499 24s-50.666 25.5 -72.999 42.5s-40.333 36.833 -54 59.5s-18.5 48.334 -14.5 77.001h35h13c-1.33301 -27.333 5.33398 -51 20.001 -71s33.167 -37.333 55.5 -52s46.5 -27 72.5 -37s50 -18.333 72 -25
c4.66699 -1.33301 -0.166016 -5.16602 -14.499 -11.499l-59 -26.5c-25 -11.333 -53.5 -25.333 -85.5 -42s-63.333 -35.834 -94 -57.501s-59 -46.167 -85 -73.5s-45.333 -57.333 -58 -90z" />
    <glyph glyph-name="question" unicode="?" horiz-adv-x="1165" 
d="M737 1179c42 0.666992 82.667 -5.00195 122 -17.002s73.833 -29.833 103.5 -53.5s52.834 -53.167 69.501 -88.5s23.334 -75.333 20.001 -120c-4.66699 -56 -19.334 -106.333 -44.001 -151s-55.667 -85 -93 -121s-79.166 -68.167 -125.499 -96.5s-93 -54.166 -140 -77.499
s-92.5 -44.833 -136.5 -64.5s-82.333 -38.834 -115 -57.501c-17.333 -10 -32.333 -20.667 -45 -32s-21.667 -21.833 -27 -31.5s-6 -17.834 -2 -24.501s13.667 -10.667 29 -12c7.33301 -0.666992 11 -2.16699 11 -4.5s-2.33301 -5 -7 -8s-10.834 -5.83301 -18.501 -8.5
s-15.667 -4.33398 -24 -5.00098s-16.333 -0.166992 -24 1.5s-13.5 5.5 -17.5 11.5c-12 18 -11.667 35.167 1 51.5s33.667 33.166 63 50.499s65 35.5 107 54.5l132.5 63c46.333 23 92.666 48.5 138.999 76.5s89 59.5 128 94.5s71.667 74 98 117s42.833 91.167 49.5 144.5
c6 48 2.5 90.167 -10.5 126.5s-32 66.666 -57 90.999s-54.333 42.5 -88 54.5s-68.5 17.667 -104.5 17c-49.333 -1.33301 -95.5 -9.5 -138.5 -24.5s-81.667 -36.167 -116 -63.5s-63.166 -60.166 -86.499 -98.499s-40 -81.5 -50 -129.5
c-8.66699 -42.667 -8.66699 -80.5 0 -113.5s22.5 -60.5 41.5 -82.5s41 -38.333 66 -49s49.167 -15.5 72.5 -14.5s44 8.16699 62 21.5s29.667 33.333 35 60c2.66699 14.667 9 25.334 19 32.001s19.667 9.5 29 8.5s16.666 -5.66699 21.999 -14
s4.66602 -20.166 -2.00098 -35.499c-12 -27.333 -30.667 -48.666 -56 -63.999s-53.166 -24.5 -83.499 -27.5s-61 0.5 -92 10.5s-58.167 26.833 -81.5 50.5s-40.5 54.5 -51.5 92.5s-11.5 83.667 -1.5 137c8.66699 46 25.667 88.333 51 127s56.5 72.334 93.5 101.001
s79 51.334 126 68.001s96.167 25.667 147.5 27zM274 68.998c11.333 0 21 -4 29 -12s12 -17.667 12 -29s-4 -21 -12 -29s-17.667 -12 -29 -12s-21 4 -29 12s-12 17.667 -12 29s4 21 12 29s17.667 12 29 12z" />
    <glyph glyph-name="at" unicode="@" horiz-adv-x="1085" 
d="M858 -117c4.66699 6.66699 9.6748 10.332 15.0078 10.999s9.5 -0.666016 12.5 -3.99902s4.33301 -7.83301 4 -13.5s-3.83301 -11.834 -10.5 -18.501c-52.667 -51.333 -111.667 -89.666 -177 -114.999s-131.166 -38.666 -197.499 -39.999s-130 8.66699 -191 30
s-113.333 52.666 -157 93.999s-75.334 92.333 -95.001 153s-21.5 129.667 -5.5 207c13.333 64 36.666 126.833 69.999 188.5s74.666 116.5 123.999 164.5s105.666 86.667 168.999 116s132 44 206 44c78.667 0 145.334 -11.667 200.001 -35s98.667 -54.333 132 -93
s57.166 -82.5 71.499 -131.5s20.5 -98.833 18.5 -149.5c-2 -52.667 -12.667 -103.667 -32 -153s-44.166 -92.5 -74.499 -129.5s-64.5 -66 -102.5 -87s-76.333 -29.167 -115 -24.5c-26.667 3.33301 -48.334 10.5 -65.001 21.5s-29.334 24.5 -38.001 40.5
s-14.167 33.333 -16.5 52s-2.83301 37.167 -1.5 55.5s4 35.5 8 51.5s8 29.333 12 40h-2c-6 -15.333 -15.833 -33 -29.5 -53s-29.5 -39 -47.5 -57s-37.833 -33.167 -59.5 -45.5s-43.5 -17.833 -65.5 -16.5c-22.667 1.33301 -41.5 6.16602 -56.5 14.499s-27 18.833 -36 31.5
s-15.333 26.667 -19 42s-5.5 30.666 -5.5 45.999c0 26 4.33301 53.5 13 82.5s20.5 57.5 35.5 85.5s32.333 54.833 52 80.5s40.334 48.5 62.001 68.5s43.834 36 66.501 48s44.667 18.667 66 20c6.66699 0 15.667 -1.16699 27 -3.5s22.166 -8 32.499 -17s19.333 -22 27 -39
s11.5 -39.833 11.5 -68.5c8 22.667 16.333 41.5 25 56.5s17.334 26.833 26.001 35.5s17.5 14.834 26.5 18.501s18.167 5.83398 27.5 6.50098c11.333 0.666992 16.833 -0.666016 16.5 -3.99902s-1.16602 -5.66602 -2.49902 -6.99902
c-10.667 -7.33301 -20.334 -17.333 -29.001 -30s-17.334 -30 -26.001 -52s-18.334 -49.333 -29.001 -82l-38 -119l-12.5 -41c-5 -16.667 -9.16699 -34.334 -12.5 -53.001s-5.33301 -37.667 -6 -57s1.5 -37 6.5 -53s13.667 -29.5 26 -40.5s29.5 -17.833 51.5 -20.5
c38 -4 72.5 3.33301 103.5 22s57.833 45 80.5 79s40.167 73.5 52.5 118.5s19.166 91.5 20.499 139.5c0.666992 48 -5.33301 95 -18 141s-33.834 87.167 -63.501 123.5s-68.5 65.666 -116.5 87.999s-106.667 33.5 -176 33.5c-54.667 0 -105.5 -8 -152.5 -24
s-90.167 -37.167 -129.5 -63.5s-74.666 -57 -105.999 -92s-58.5 -71.667 -81.5 -110s-41.833 -76.833 -56.5 -115.5s-24.667 -75.334 -30 -110.001c-10.667 -65.333 -7.83398 -124 8.49902 -176s41.833 -96.667 76.5 -134s76.334 -67.166 125.001 -89.499
s100.167 -36.5 154.5 -42.5s109.166 -3.83301 164.499 6.5s107.333 29.5 156 57.5c26 14.667 45.167 27 57.5 37s21.166 18.333 26.499 25s8.66602 12.5 9.99902 17.5s4 10.5 8 16.5zM438.008 23.998c20.667 -3.33301 41.335 1.49609 62.002 14.4961s40.167 30.667 58.5 53
s35.166 47.666 50.499 75.999s28 56.5 38 84.5c16 44.667 25 81.834 27 111.501s0 53.5 -6 71.5s-14.833 30.833 -26.5 38.5s-23.167 11.5 -34.5 11.5c-19.333 0 -39.166 -6.16699 -59.499 -18.5s-40 -28.666 -59 -48.999s-36.667 -43.666 -53 -69.999
s-30.333 -53.333 -42 -81s-20.334 -55.167 -26.001 -82.5s-7.33398 -52.166 -5.00098 -74.499s9.5 -41.166 21.5 -56.499s30 -25 54 -29z" />
    <glyph glyph-name="A" unicode="A" horiz-adv-x="1566" 
d="M2077 1179c32.667 0 57.5039 -4.32812 74.5039 -12.9951s23.167 -18.667 18.5 -30c-3.33301 -8.66699 -9.5 -13.334 -18.5 -14.001s-17.167 0.666016 -24.5 3.99902c-29.333 12.667 -60 21 -92 25s-66.167 -2.16699 -102.5 -18.5s-74.666 -45.666 -114.999 -87.999
s-82.833 -103.5 -127.5 -183.5c-9.33301 -15.333 -19.333 -34.5 -30 -57.5l-34 -76.5c14 -2 26.167 -6.33301 36.5 -13s18.833 -14.334 25.5 -23.001s11.667 -17.834 15 -27.501s5 -18.834 5 -27.501c0 -23.333 -5.5 -44.833 -16.5 -64.5s-26 -38.5 -45 -56.5
s-40.833 -35 -65.5 -51s-51 -31.333 -79 -46l-44.5 -116.5c-13.667 -36.333 -25.167 -68.166 -34.5 -95.499c-6 -16 -12.333 -34.333 -19 -55s-11.334 -40 -14.001 -58s-1.83398 -33.167 2.49902 -45.5s15.166 -18.5 32.499 -18.5c10 0 19.667 2.5 29 7.5
s17.833 11.333 25.5 19s14.667 16.167 21 25.5s12.166 18.333 17.499 27c1.33301 2.66699 3.33301 3.66699 6 3s3.33398 -3 2.00098 -7c-5.33301 -13.333 -12.333 -26.833 -21 -40.5s-18.667 -25.834 -30 -36.501s-24 -19.334 -38 -26.001s-28.667 -10 -44 -10
c-26.667 0 -44.167 7.5 -52.5 22.5s-11.666 32.333 -9.99902 52s5.66699 39 12 58l13.5 40.5l39 111.5c12.667 36.333 25.667 71.833 39 106.5l-86.5 -45c-28.333 -14.667 -54.5 -29.667 -78.5 -45c0 -46 -6.33301 -83.5 -19 -112.5s-26.5 -49.5 -41.5 -61.5
s-28.833 -15.5 -41.5 -10.5s-19 18.5 -19 40.5c0 37.333 9.5 69.833 28.5 97.5s43.5 52.5 73.5 74.5c-4.66699 29.333 -13 57.333 -25 84s-27.333 51.334 -46 74.001l-115.5 -156c-38.333 -51.333 -77.333 -100 -117 -146s-80 -88.667 -121 -128
s-83.167 -73.333 -126.5 -102s-87.833 -51 -133.5 -67s-92.834 -24 -141.501 -24c-62 0 -113 11 -153 33s-69.333 51.167 -88 87.5s-27.167 77.666 -25.5 123.999s13 93.666 34 141.999s51.5 95.833 91.5 142.5s88.667 88.334 146 125.001c-54 30 -97.667 65.667 -131 107
s-57.333 85.833 -72 133.5s-20.167 96.834 -16.5 147.501s16.167 100.167 37.5 148.5s50.833 94.333 88.5 138s83.167 81.834 136.5 114.501s114 58.5 182 77.5s143 28.5 225 28.5c58 0 112.667 -5.66699 164 -17s101.166 -25.333 149.499 -42
s96.666 -34.834 144.999 -54.501s98.5 -37.834 150.5 -54.501s107.333 -30.667 166 -42s122.667 -17 192 -17c38.667 0 78.5 2 119.5 6s79.5 11.833 115.5 23.5s67.167 28.334 93.5 50.001s44.166 50.167 53.5 85.5c2 8 5.83301 13.5 11.5 16.5s11.167 3.66699 16.5 2
s9.5 -5.33398 12.5 -11.001s2.5 -12.834 -1.5 -21.501c-6 -14 -14.833 -28.167 -26.5 -42.5s-26.5 -28.166 -44.5 -41.499s-39.667 -25.833 -65 -37.5s-55 -21.5 -89 -29.5c5.33301 0.666992 11 1.16699 17 1.5s12 0.5 18 0.5zM887.004 636.005
c54 0 103.666 -8.66699 148.999 -26s85 -41 119 -71l145.5 197.5c49.667 65 101.5 125 155.5 180s110.333 103.167 169 144.5s121 72 187 92c-67.333 0 -130.5 5.33301 -189.5 16s-115.667 23.834 -170 39.501s-107.333 32.667 -159 51s-104 35.333 -157 51
s-108 28.834 -165 39.501s-117.5 16 -181.5 16c-66 0 -127.333 -9 -184 -27s-107.5 -42.333 -152.5 -73s-83.833 -66.5 -116.5 -107.5s-58 -84.333 -76 -130s-28.5 -92.5 -31.5 -140.5s2.66699 -94.5 17 -139.5s37.833 -87.333 70.5 -127s75.334 -73.834 128.001 -102.501
c58 35.333 123.833 63.666 197.5 84.999s155.167 32 244.5 32zM424.003 -131.995c46 0 90.168 8.50195 132.501 25.502s83.666 40.5 123.999 70.5s79.833 65.5 118.5 106.5s76.834 85.667 114.501 134s75.167 99 112.5 152l114 161.5c-33.333 30 -71.833 53.5 -115.5 70.5
s-91.5 25.5 -143.5 25.5c-79.333 0 -153 -10.667 -221 -32s-129.167 -49.5 -183.5 -84.5s-101.333 -74.833 -141 -119.5s-71.167 -90.334 -94.5 -137.001s-37.833 -92.334 -43.5 -137.001s-1.33398 -84.5 12.999 -119.5s39 -63.167 74 -84.5s81.5 -32 139.5 -32z
M1266 332.007c27.333 18 57.001 34.501 89.001 49.501l96 44.5c36.667 96 73.334 184.5 110.001 265.5s74.667 152.5 114 214.5s81.166 114.167 125.499 156.5s92.166 73.166 143.499 92.499c-48.667 -4 -95.5 -15.5 -140.5 -34.5s-88.833 -44 -131.5 -75
s-84.5 -67 -125.5 -108s-81.167 -85.333 -120.5 -133s-78.333 -97.5 -117 -149.5l-116 -157c20 -24 36.333 -50 49 -78s20.667 -57.333 24 -88zM1692 637.008c0 14.667 -5.33203 30.4971 -15.999 47.4971s-28.334 28.833 -53.001 35.5
c-17.333 -39.333 -35 -81.666 -53 -126.999l-53 -136c24 12 46.667 24.167 68 36.5s40 25.833 56 40.5s28.5 30.334 37.5 47.001s13.5 35.334 13.5 56.001zM1253.01 280.005c-28 -19.333 -50.502 -39.832 -67.502 -61.499s-25.5 -45.167 -25.5 -70.5
c0 -17.333 4.83301 -27.5 14.5 -30.5s20.334 1 32.001 12s22.334 28.667 32.001 53s14.5 55.166 14.5 92.499v5z" />
    <glyph glyph-name="B" unicode="B" horiz-adv-x="1554" 
d="M1135 1255c100.667 0 184.332 -11.9971 250.999 -35.9971s118 -55.5 154 -94.5s57.667 -83.167 65 -132.5s2.33301 -99.833 -15 -151.5s-46.333 -101.834 -87 -150.501s-90.667 -91.667 -150 -129c59.333 -38 102 -84.5 128 -139.5s37.833 -112.667 35.5 -173
s-17.5 -120.166 -45.5 -179.499s-66.333 -112.833 -115 -160.5s-106.334 -86.167 -173.001 -115.5s-139.667 -44 -219 -44c-45.333 0 -87.166 5.5 -125.499 16.5s-72.833 26.333 -103.5 46s-57.334 43.167 -80.001 70.5s-40.667 57.333 -54 90
c-0.666992 1.33301 -1 2.66602 -1 3.99902c-29.333 -18 -59.666 -32.167 -90.999 -42.5s-64.666 -15.5 -99.999 -15.5c-70 0 -128.833 11.833 -176.5 35.5s-84.5 54.167 -110.5 91.5s-41.667 78.833 -47 124.5s-1 90.667 13 135s37.5 85.166 70.5 122.499
s74.5 66.333 124.5 87c2 61.333 12.833 122.333 32.5 183s47.167 118.5 82.5 173.5s77.833 106 127.5 153s105.667 87.667 168 122s130.5 61.166 204.5 80.499s153 29 237 29zM440.998 529.003c-45.333 0 -86.3271 -8.49902 -122.994 -25.499s-68.5 -39.5 -95.5 -67.5
s-48.667 -60 -65 -96s-26.5 -72.5 -30.5 -109.5s-1.83301 -73.5 6.5 -109.5s24 -68 47 -96s53.333 -50.5 91 -67.5s83.5 -25.5 137.5 -25.5c55.333 0 106.166 14.167 152.499 42.5s89 66.333 128 114s74.833 102.334 107.5 164.001s63.667 125.834 93 192.501
c-41.333 2.66699 -75.333 9.83398 -102 21.501s-45.834 25.167 -57.501 40.5s-15.5 31.5 -11.5 48.5s16 32.667 36 47s48 26.166 84 35.499s80.667 14 134 14h4l72.5 172c23.667 54.667 48 102.5 73 143.5s51 73.667 78 98s55.833 36.5 86.5 36.5v-14
c-20 0 -39.667 -11.833 -59 -35.5s-39.333 -55.5 -60 -95.5s-41.834 -86.5 -63.501 -139.5l-69.5 -167.5c57.333 -3.33301 108.833 -10.833 154.5 -22.5s86.5 -26.5 122.5 -44.5c52.667 36 97.667 77.333 135 124s65 94.167 83 142.5s25 95.666 21 141.999
s-21.333 87.666 -52 123.999s-75.834 65.5 -135.501 87.5s-135.834 33 -228.501 33c-81.333 0 -157.333 -9.33301 -228 -28s-135.334 -44.334 -194.001 -77.001s-111.167 -71.167 -157.5 -115.5s-85.5 -92.666 -117.5 -144.999s-57 -107.333 -75 -165
s-28 -115.834 -30 -174.501c16.667 4 34 7.16699 52 9.5s36.667 3.5 56 3.5c10.667 0 15.667 -2.5 15 -7.5s-5.66699 -7.5 -15 -7.5zM610.004 -17.9961c27.333 -64.667 70.668 -116.671 130.001 -156.004s133 -59 221 -59c71.333 0 137 14 197 42s112 64.5 156 109.5
s79 95.833 105 152.5s40.667 113.834 44 171.501s-6 113 -28 166s-58.667 98.167 -110 135.5c-52 -30 -109.833 -53.833 -173.5 -71.5s-132.5 -27.167 -206.5 -28.5c-22 -47.333 -45.333 -93.666 -70 -138.999s-50.834 -88.166 -78.501 -128.499s-57 -77.166 -88 -110.499
s-63.833 -61.333 -98.5 -84zM1029.01 636l-36.5 -84.998l-38.5 -87c63.333 2.66699 123 13.167 179 31.5s108 42.5 156 72.5c-33.333 19.333 -71.5 34.666 -114.5 45.999s-91.5 18.666 -145.5 21.999zM898.006 464.002l37.002 87.501l36 86.5
c-46.667 0 -86.334 -4.16699 -119.001 -12.5s-58.334 -18.5 -77.001 -30.5s-30.167 -25.333 -34.5 -40s-1.5 -28.334 8.5 -41.001s27.333 -23.667 52 -33s57 -15 97 -17z" />
    <glyph glyph-name="C" unicode="C" horiz-adv-x="791" 
d="M446 648c70 0 127.993 -10.8311 173.993 -32.498s81.667 -50 107 -85s41 -75.167 47 -120.5s3.5 -91.5 -7.5 -138.5s-29.333 -93 -55 -138s-57.667 -85 -96 -120s-81.833 -63.333 -130.5 -85s-101.334 -32.5 -158.001 -32.5c-69.333 0 -125.5 13.5 -168.5 40.5
s-74.167 63.667 -93.5 110s-27.666 100.166 -24.999 161.499s14.5 126 35.5 194s50.667 137.5 89 208.5s83.5 139.5 135.5 205.5c-10.667 15.333 -18.5 31.833 -23.5 49.5s-7.5 35.5 -7.5 53.5c0 26 5.83301 50.833 17.5 74.5s28.834 44.667 51.501 63s50 33 82 44
s68.667 16.5 110 16.5c26.667 0 56.334 -3.66699 89.001 -11c68 42.667 139.167 76.334 213.5 101.001s151.5 37 231.5 37c54.667 0 98.167 -7.83301 130.5 -23.5s54.833 -36.334 67.5 -62.001s15.667 -55 9 -88s-21.5 -66.667 -44.5 -101s-53.667 -68 -92 -101
s-83.166 -62.333 -134.499 -88s-108.833 -46.334 -172.5 -62.001s-131.834 -23.5 -204.501 -23.5c-64.667 0 -119.667 6.5 -165 19.5s-82.333 30.5 -111 52.5c-49.333 -62.667 -93.166 -127.334 -131.499 -194.001s-69.166 -131.667 -92.499 -195
s-38.166 -123.166 -44.499 -179.499s-2.16602 -105.5 12.501 -147.5s41.167 -75.333 79.5 -100s90.5 -37 156.5 -37c44.667 0 87.667 10.333 129 31s79 48 113 82s63.5 72.5 88.5 115.5s43.667 87.167 56 132.5s17.333 89.5 15 132.5s-13.666 81.5 -33.999 115.5
s-50.833 61.333 -91.5 82s-93 31 -157 31c-9.33301 0 -13.833 2 -13.5 6s4.83301 6 13.5 6zM622.993 710.002c58 0 114.169 7.33203 168.502 21.999s104.833 34.167 151.5 58.5s88.834 51.833 126.501 82.5s69.167 62.167 94.5 94.5s43.5 63.833 54.5 94.5
s13.167 58.167 6.5 82.5s-23 43.833 -49 58.5s-63.333 22 -112 22c-61.333 0 -123.333 -11.667 -186 -35s-124.334 -55.166 -185.001 -95.499s-119.334 -87.333 -176.001 -141s-109.334 -110.834 -158.001 -171.501c28 -21.333 63.5 -38.666 106.5 -51.999
s95.5 -20 157.5 -20zM602.995 1096c-24 4 -47.335 6 -70.002 6c-39.333 0 -74.166 -5.16699 -104.499 -15.5s-56 -24 -77 -41s-37 -36.5 -48 -58.5s-16.5 -44.667 -16.5 -68c-1.33301 -30 7.33398 -59.333 26.001 -88c42 51.333 87.167 99.333 135.5 144
s99.833 85 154.5 121z" />
    <glyph glyph-name="D" unicode="D" horiz-adv-x="1510" 
d="M316 -76c-62 0 -113.833 9.5 -155.5 28.5s-73.667 44.167 -96 75.5s-36 67 -41 107s-1.66699 81.167 10 123.5s30.667 84 57 125s59.5 78.167 99.5 111.5c0 68 10.667 135.167 32 201.5s51.333 129.333 90 189s85 115 139 166s113.5 95.167 178.5 132.5
s134.5 66.5 208.5 87.5s150.333 31.5 229 31.5c94 0 174.333 -13.667 241 -41s121 -64.333 163 -111s72.167 -101.167 90.5 -163.5s26.333 -128.5 24 -198.5s-14.333 -141.833 -36 -215.5s-51.667 -145.5 -90 -215.5s-84.166 -136.167 -137.499 -198.5
s-112.666 -116.833 -177.999 -163.5s-136.333 -83.667 -213 -111s-157.334 -41 -242.001 -41c-64 0 -116.5 9.33301 -157.5 28s-72.167 43.667 -93.5 75c-38.667 -15.333 -79.334 -23 -122.001 -23zM1229 1093c-21.333 0 -42.835 -13.4932 -64.502 -40.4932
s-44.334 -63.167 -68.001 -108.5s-48.334 -97.666 -74.001 -156.999l-82.5 -185.5c-29.333 -64.333 -60.666 -129.333 -93.999 -195s-69.166 -127.334 -107.499 -185.001s-79.666 -109.334 -123.999 -155.001s-91.833 -80.834 -142.5 -105.501
c17.333 -30 43.5 -54.167 78.5 -72.5s81.5 -27.5 139.5 -27.5c73.333 0 144.166 13.333 212.499 40s132.666 62.667 192.999 108s116 98.333 167 159s95.333 125.167 133 193.5s68.167 138.666 91.5 210.999s37.666 142.666 42.999 210.999s0.833008 132.833 -13.5 193.5
s-40 113.667 -77 159s-86.167 81.333 -147.5 108s-136.333 40 -225 40c-76.667 0 -151 -10 -223 -30s-139.5 -47.833 -202.5 -83.5s-120.667 -77.834 -173 -126.501s-97.333 -101.667 -135 -159s-67.167 -117.833 -88.5 -181.5s-32.666 -127.834 -33.999 -192.501
c42.667 32 91.167 57.5 145.5 76.5s114.5 28.5 180.5 28.5c54 0 98.833 -11.333 134.5 -34s60.834 -51.334 75.501 -86.001c29.333 7.33301 59 11 89 11l66 147.5l63 140.5c20.667 44.667 41.334 86 62.001 124s41.834 71 63.501 99s44 50 67 66s46.833 24 71.5 24v-15z
M536.998 605.007c-58.667 0 -112.499 -9.50098 -161.499 -28.501s-92.667 -44.167 -131 -75.5s-70.833 -67 -97.5 -107s-46.334 -80.833 -59.001 -122.5s-18.167 -82.5 -16.5 -122.5s11.5 -75.667 29.5 -107s44.667 -56.5 80 -75.5s80.333 -28.5 135 -28.5
c20 0 39.5 2.16699 58.5 6.5s37.167 10.166 54.5 17.499c-16 28 -25.333 58.833 -28 92.5s0.5 68.334 9.5 104.001s23 71 42 106s42.5 67.5 70.5 97.5s59.833 56.5 95.5 79.5s74.167 40.167 115.5 51.5c-6 14.667 -15 28.834 -27 42.501s-26.5 25.667 -43.5 36
s-36.167 18.5 -57.5 24.5s-44.333 9 -69 9zM829.999 492.006c-41.333 -1.33301 -80.832 -10.665 -118.499 -27.998s-72.334 -40 -104.001 -68s-59.5 -59.833 -83.5 -95.5s-42.667 -72.334 -56 -110.001s-20.833 -75 -22.5 -112s4.16602 -70.5 17.499 -100.5
c38.667 21.333 74.834 49.833 108.501 85.5s65.5 76.167 95.5 121.5s58.333 94.166 85 146.499z" />
    <glyph glyph-name="E" unicode="E" horiz-adv-x="797" 
d="M848 1171c48 0 82.999 -9.83301 104.999 -29.5s32.167 -44.667 30.5 -75s-15 -63.333 -40 -99s-60.667 -69.667 -107 -102s-103 -60.5 -170 -84.5s-143.5 -39 -229.5 -45c6.66699 -19.333 17.167 -35.5 31.5 -48.5s30.333 -23 48 -30s35.167 -11.167 52.5 -12.5
s32.333 -0.333008 45 3c6 1.33301 10.167 1.16602 12.5 -0.500977s1.83301 -4.5 -1.5 -8.5c-4 -4 -10 -7.16699 -18 -9.5s-16.333 -4.16602 -25 -5.49902c-74.667 -8 -139.834 -23.5 -195.501 -46.5s-102.667 -50.5 -141 -82.5s-68.333 -67.167 -90 -105.5
s-36 -77.166 -43 -116.499s-6.83301 -77.333 0.5 -114s20.833 -69.5 40.5 -98.5s45 -52.5 76 -70.5s67.167 -27.667 108.5 -29c-7.33301 40.667 -8.66602 81.667 -3.99902 123s13.667 81.166 27 119.499s30.833 74.333 52.5 108s45.5 63 71.5 88s54 44.667 84 59
s60.333 21.5 91 21.5c28.667 0 51.5 -7.33301 68.5 -22s28.5 -34 34.5 -58s7 -51.667 3 -83s-13 -63.333 -27 -96s-32.667 -64.834 -56 -96.501s-50.833 -60.5 -82.5 -86.5s-67.5 -47.5 -107.5 -64.5s-83.667 -27.167 -131 -30.5c10 -40 27.333 -78.333 52 -115
s59 -70.667 103 -102c6 -4 7 -8.66699 3 -14s-9 -6 -15 -2c-46 31.333 -82 66.833 -108 106.5s-44.333 81.5 -55 125.5c-47.333 -1.33301 -89.166 5 -125.499 19s-67 33 -92 57s-44 51.833 -57 83.5s-19.5 64.5 -19.5 98.5c0 48.667 9.5 93 28.5 133
s43.167 75.833 72.5 107.5s61.5 59 96.5 82s68.167 42.167 99.5 57.5s58.833 26.666 82.5 33.999s39.167 11 46.5 11c-24.667 5.33301 -45.834 17.666 -63.501 36.999s-29.834 43 -36.501 71c-40.667 -0.666992 -81.5 2.66602 -122.5 9.99902s-80.333 18 -118 32
s-72.667 30.833 -105 50.5s-60.5 41.834 -84.5 66.501s-42.833 51.334 -56.5 80.001s-20.5 58.667 -20.5 90c0 52.667 13.5 97.667 40.5 135s61.333 67.833 103 91.5s87 41 136 52s95.5 16.5 139.5 16.5c40 0 71 -1 93 -3s39.333 -5.66699 52 -11
c8.66699 -3.33301 14.167 -8 16.5 -14s2.5 -11.667 0.5 -17s-6.16699 -9.33301 -12.5 -12s-13.833 -2.33398 -22.5 0.999023c-6.66699 2.66699 -11.834 6.33398 -15.501 11.001s-9.16699 9.33398 -16.5 14.001s-18.166 8.66699 -32.499 12s-35.5 5 -63.5 5
c-51.333 0 -99.5 -6.16699 -144.5 -18.5s-84.167 -30.333 -117.5 -54s-59.666 -52.5 -78.999 -86.5s-29 -72.667 -29 -116c0 -49.333 13.167 -93.666 39.5 -132.999s61 -73 104 -101s91.667 -49.333 146 -64s109.833 -22 166.5 -22c-4 30.667 0.333008 62.5 13 95.5
s31.167 65.167 55.5 96.5s53 61 86 89s67.833 52.5 104.5 73.5s73.834 37.667 111.501 50s73.167 18.5 106.5 18.5zM643.999 445c-24 0 -48.8311 -6.50098 -74.498 -19.501s-50.334 -31 -74.001 -54s-45.5 -50.167 -65.5 -81.5s-36.667 -64.833 -50 -100.5
s-22.166 -73 -26.499 -112s-2.83301 -77.833 4.5 -116.5c55.333 1.33301 105.666 14.333 150.999 39s84.333 54.834 117 90.501s58.5 74.167 77.5 115.5s29.833 79.833 32.5 115.5s-3.33301 65.167 -18 88.5s-39.334 35 -74.001 35zM434.001 749.999
c78 5.33301 147.336 18.999 208.003 40.999s112.167 47.667 154.5 77s75 60.5 98 93.5s36 63.333 39 91s-4.5 50.5 -22.5 68.5s-46.667 27 -86 27c-22.667 0 -48.834 -4.5 -78.501 -13.5s-59.834 -22 -90.501 -39s-60.334 -37.5 -89.001 -61.5s-53.667 -50.667 -75 -80
s-37.5 -61.166 -48.5 -95.499s-14.167 -70.5 -9.5 -108.5z" />
    <glyph glyph-name="F" unicode="F" horiz-adv-x="1208" 
d="M2779 1318c2.66699 10.667 7.66699 17.834 15 21.501s14.333 4.5 21 2.5s11.834 -6.66699 15.5 -14c3.66699 -7.33301 3.16699 -16.333 -1.5 -27c-11.333 -26 -29.833 -52.5 -55.5 -79.5s-61.334 -51.167 -107 -72.5c-45.667 -21.333 -102.667 -38.833 -171 -52.5
s-150.166 -20.5 -245.5 -20.5c-86.667 0 -172.667 6.66699 -258 20s-169.833 30.166 -253.5 50.499s-166.834 42.333 -249.501 66s-165.167 45.667 -247.5 66s-164.5 37.166 -246.5 50.499s-164.333 20 -247 20c-86.667 0 -165.167 -10.667 -235.5 -32
s-132.333 -49.333 -186 -84s-98.667 -74.334 -135 -119.001s-63.833 -90.5 -82.5 -137.5s-28 -93 -28 -138s9.16699 -85.5 27.5 -121.5s46.5 -65.5 84.5 -88.5s85.667 -35.833 143 -38.5c44 22.667 92 40.667 144 54s108.333 20 169 20
c39.333 0 75.833 -5.83301 109.5 -17.5s63.167 -28.167 88.5 -49.5c34 70 70.167 137.333 108.5 202s82 122 131 172s104.5 89.833 166.5 119.5s133.333 44.5 214 44.5c6 0 9.16699 -3.5 9.5 -10.5s-2.83398 -10.5 -9.50098 -10.5c-71.333 0 -135 -15.833 -191 -47.5
s-106.667 -73.667 -152 -126s-86.833 -112.333 -124.5 -180s-74.167 -137.834 -109.5 -210.501c24.667 -32.667 40 -69.667 46 -111c34 28 73.167 50.833 117.5 68.5s90.166 26.5 137.499 26.5c8 0 16.833 -0.666992 26.5 -2s18.5 -3.83301 26.5 -7.5
s14.667 -8.66699 20 -15s8 -14.166 8 -23.499c0 -7.33301 -1.5 -14 -4.5 -20s-6.16699 -11.333 -9.5 -16c-4 -5.33301 -8.66699 -10.333 -14 -15c-6 12.667 -17.667 23 -35 31s-36.666 12 -57.999 12c-32 0 -67.167 -5.83301 -105.5 -17.5s-73.833 -28.167 -106.5 -49.5v-12
c0 -18.667 -2 -38.834 -6 -60.501s-9.66699 -41.834 -17 -60.501s-16.333 -34.167 -27 -46.5s-23 -18.5 -37 -18.5c-10.667 0 -18.334 4 -23.001 12s-7 17.667 -7 29c0 28 9.16699 57.333 27.5 88s42.833 59.334 73.5 86.001c-6 38.667 -19.667 74 -41 106l-78 -159.5
c-26 -53 -53 -103.667 -81 -152s-57.833 -93.166 -89.5 -134.499s-66 -77.333 -103 -108s-77.333 -54.667 -121 -72s-91.5 -26 -143.5 -26c-58 0 -105.333 12.5 -142 37.5s-63 57.667 -79 98s-22 85.833 -18 136.5s17.5 101.834 40.5 153.501s55.167 101.167 96.5 148.5
s91.333 88 150 122c-59.333 5.33301 -108.666 21 -147.999 47s-68.833 58.5 -88.5 97.5s-29.167 82.667 -28.5 131s11.834 97.166 33.501 146.499s54 97.5 97 144.5s96.833 88.833 161.5 125.5s140.334 66 227.001 88s184.667 33 294 33c96 0 185.667 -7 269 -21
s163 -31.667 239 -53s150.167 -44.166 222.5 -68.499s145.5 -47.166 219.5 -68.499s150.333 -39 229 -53s162.667 -21 252 -21c49.333 0 100.333 2.5 153 7.5s101.834 15.167 147.5 30.5c45.667 15.333 85.334 36.833 119 64.5c33.667 27.667 55.834 64.167 66.5 109.5z
M649 647c-66 0 -127.668 -10.6641 -185.001 -31.9971s-109.333 -49.5 -156 -84.5s-87.167 -74.833 -121.5 -119.5s-61.666 -90.334 -81.999 -137.001s-33 -92.334 -38 -137.001s-1.33301 -84.5 11 -119.5s34 -63.167 65 -84.5s72.167 -32 123.5 -32
c49.333 0 94.166 9.16699 134.499 27.5s77.333 43.666 111 75.999s64.834 70.333 93.501 114s56 90.667 82 141s51.333 103 76 158l76 164.5c-24 20.667 -52 36.667 -84 48s-67.333 17 -106 17zM830.999 254.003c0 -7.33301 1.66797 -14.502 5.00098 -21.502
s8.66602 -10.5 15.999 -10.5c9.33301 0 18.5 4.5 27.5 13.5s17 21 24 36s12.667 32 17 51s6.5 38.5 6.5 58.5c0 3.33301 -0.166992 6.83301 -0.5 10.5s-0.5 7.5 -0.5 11.5c-28 -19.333 -50.833 -41.666 -68.5 -66.999s-26.5 -52.666 -26.5 -81.999z" />
    <glyph glyph-name="G" unicode="G" horiz-adv-x="941" 
d="M966 502c11.333 0 16.832 -1.34277 16.499 -4.00977s-1.5 -4.66699 -3.5 -6c-12.667 -10 -24.5 -23.5 -35.5 -40.5s-22.167 -42.167 -33.5 -75.5c-2.66699 -6.66699 -8 -21.834 -16 -45.501l-29 -84.5l-36 -105.5l-37.5 -110l-34 -98
c-10.333 -29.667 -18.5 -52.167 -24.5 -67.5c-30 -82 -65.5 -151 -106.5 -207s-84.333 -101 -130 -135s-92.167 -58.333 -139.5 -73s-92 -22 -134 -22c-38 0 -73.5 4.5 -106.5 13.5s-61.833 21.833 -86.5 38.5s-44 36.667 -58 60s-21 49.333 -21 78
c0 34.667 6.83301 63.5 20.5 86.5s32.167 42.333 55.5 58s50.333 28.334 81 38.001s62.834 18 96.501 25s67.834 13.5 102.501 19.5s67.667 13.167 99 21.5s59.833 18.833 85.5 31.5s46.5 29 62.5 49c2.66699 3.33301 5.16699 3.33301 7.5 0s1.83301 -7.66602 -1.5 -12.999
c-12 -20 -29 -36.167 -51 -48.5s-47.333 -22.666 -76 -30.999s-59.167 -15.333 -91.5 -21s-64.5 -11.667 -96.5 -18s-62.833 -14 -92.5 -23s-55.834 -20.667 -78.501 -35s-40.667 -32.5 -54 -54.5s-20 -49.333 -20 -82c0 -22.667 4.66699 -44.667 14 -66
s23.333 -40.166 42 -56.499s41.834 -29.333 69.501 -39s60.167 -14.5 97.5 -14.5c40.667 0 81.834 7.16699 123.501 21.5s81.834 36.833 120.501 67.5s74.834 70.334 108.501 119.001s63.167 107.334 88.5 176.001l59 162.5l42 118.5l32 97h-4
c-10.667 -16 -27 -37.5 -49 -64.5s-48.5 -53.667 -79.5 -80s-65.667 -49.166 -104 -68.499s-79.166 -29 -122.499 -29c-42 0 -80 8.16699 -114 24.5s-62.833 39.5 -86.5 69.5s-42 66.333 -55 109s-19.5 90.334 -19.5 143.001c0 37.333 4.33301 75.666 13 114.999
s20.667 79.666 36 120.999c-41.333 24 -72.5 54.833 -93.5 92.5s-32 78.167 -33 121.5s7.66699 87.333 26 132s46 85.834 83 123.501s83 70.167 138 97.5s118.833 45 191.5 53c9.33301 0.666992 16.666 -0.833008 21.999 -4.5s8.5 -8.16699 9.5 -13.5
s-0.5 -10.666 -4.5 -15.999s-11 -8.66602 -21 -9.99902c-9.33301 -1.33301 -17.5 -1.33301 -24.5 0s-15 2.5 -24 3.5s-19.833 1.16699 -32.5 0.5s-29 -3.33398 -49 -8.00098c-48.667 -12.667 -91.667 -32.167 -129 -58.5s-68.5 -56.333 -93.5 -90
s-43.5 -69.834 -55.5 -108.501s-16.5 -76.334 -13.5 -113.001s13.5 -71 31.5 -103s44.333 -58.667 79 -80c20.667 50.667 45.834 101.334 75.501 152.001s62.667 99 99 145s75.166 88.833 116.499 128.5s83.833 74 127.5 103s87.667 51.833 132 68.5s87.833 25 130.5 25
c40.667 0 71.167 -9.83301 91.5 -29.5s32 -45.667 35 -78s-2 -69.166 -15 -110.499s-32.667 -83.5 -59 -126.5s-58.333 -85 -96 -126s-79.667 -77.667 -126 -110s-96.5 -58.333 -150.5 -78s-110 -29.5 -168 -29.5c-58.667 0 -109.334 8 -152.001 24
c-12.667 -37.333 -22.334 -74.166 -29.001 -110.499s-10 -71.5 -10 -105.5c0 -45.333 4.5 -87.333 13.5 -126s22.667 -72.167 41 -100.5s41.166 -50.666 68.499 -66.999s59.666 -24.5 96.999 -24.5c39.333 0 79.333 9.33301 120 28s79.667 45.334 117 80.001
s71.5 76.334 102.5 125.001s56.5 102.667 76.5 162c16 45.333 33.333 76.166 52 92.499s37.667 24.5 57 24.5zM892.999 1158.99c-38 0 -77.332 -8.16699 -117.999 -24.5s-81.167 -38.833 -121.5 -67.5s-79.833 -62.5 -118.5 -101.5s-74.834 -81.333 -108.501 -127
s-64.334 -93.667 -92.001 -144s-50.5 -100.833 -68.5 -151.5c40.667 -16 89.334 -24 146.001 -24c54.667 0 107.5 9.16699 158.5 27.5s98.5 42.5 142.5 72.5s84 64.167 120 102.5s66.667 77.5 92 117.5s44.666 79.167 57.999 117.5s19.333 72.5 18 102.5
s-10.666 54.167 -27.999 72.5s-44 27.5 -80 27.5z" />
    <glyph glyph-name="H" unicode="H" horiz-adv-x="1555" 
d="M696 1261c41.333 0 80.498 -6.49805 117.498 -19.498s72.833 -29 107.5 -48s68.5 -38.833 101.5 -59.5s66.5 -38.667 100.5 -54s69 -25.833 105 -31.5s74 -3.16699 114 7.5c10.667 2.66699 16.834 0.666992 18.501 -6s-1.5 -11.334 -9.5 -14.001
c-35.333 -9.33301 -66.833 -27.333 -94.5 -54s-52.834 -59.167 -75.501 -97.5s-43.5 -81.5 -62.5 -129.5s-37.667 -98.167 -56 -150.5l-56.5 -159.5c-19.333 -54 -40.5 -106.167 -63.5 -156.5s-48.5 -97.666 -76.5 -141.999s-60 -83 -96 -116s-76.667 -59 -122 -78
s-96.666 -28.5 -153.999 -28.5c-60 0 -112.333 9 -157 27s-81.834 42.667 -111.501 74s-51.5 67.666 -65.5 108.999s-20.5 85.166 -19.5 131.499s9.5 94 25.5 143s39.333 96.5 70 142.5c-30 43.333 -50.167 90.833 -60.5 142.5s-11.166 103.834 -2.49902 156.501
s26.334 103.667 53.001 153s62 93.166 106 131.499s96.5 69 157.5 92s129.833 34.5 206.5 34.5zM634.998 374.002c-92 0 -169.664 14.666 -232.997 43.999s-114 67.666 -152 114.999c-28 -44 -49.167 -89.167 -63.5 -135.5s-21.833 -91.5 -22.5 -135.5
s5.83301 -85.333 19.5 -124s34.167 -72.5 61.5 -101.5s61.666 -52 102.999 -69s89.666 -25.5 144.999 -25.5c69.333 0 129.666 15 180.999 45s95.833 69.833 133.5 119.5s70.5 106.167 98.5 169.5s53.5 128.5 76.5 195.5l66.5 198.5
c21.333 65.333 44.666 124.333 69.999 177c-60.667 12.667 -119.667 19 -177 19c-84 0 -161 -8.33301 -231 -25s-133.333 -39.167 -190 -67.5s-106.667 -61.666 -150 -99.999s-79.666 -79.166 -108.999 -122.499c35.333 -48 83.833 -87 145.5 -117s138.167 -45 229.5 -45
c68.667 0 126 29.333 172 88c6 8 12.333 12.833 19 14.5s12 1 16 -2s6.16699 -7.66699 6.5 -14s-2.5 -13.5 -8.5 -21.5s-14.833 -16.667 -26.5 -26s-26 -18 -43 -26s-37 -14.667 -60 -20s-48.833 -8 -77.5 -8zM940.001 882.001c30 0 60.499 -1.66504 91.499 -4.99805
s62.5 -8 94.5 -14c19.333 38 40.333 71 63 99s48.667 49 78 63c-30.667 -2 -61.334 2 -92.001 12s-61.167 23 -91.5 39s-61.166 33.833 -92.499 53.5s-62.833 37.834 -94.5 54.501s-64.167 30.667 -97.5 42s-67.333 17 -102 17c-72 0 -136.667 -10.833 -194 -32.5
s-107 -50.5 -149 -86.5s-76.167 -77.333 -102.5 -124s-44.166 -94.834 -53.499 -144.501s-9.83301 -99.334 -1.5 -149.001s25.833 -95.167 52.5 -136.5c31.333 42.667 69.166 83 113.499 121s95.333 71.167 153 99.5s121.834 50.666 192.501 66.999s148 24.5 232 24.5z
M1019 245.003c0 -5.33301 -2.3291 -8.16992 -6.99609 -8.50293s-7.33398 2.5 -8.00098 8.5c-3.33301 44 0.333984 82.833 11.001 116.5s27 63.334 49 89.001s48.833 47.667 80.5 66s66.667 34.333 105 48s79.166 25.167 122.499 34.5s88 18 134 26
c36.667 80.667 75.834 153.667 117.501 219s85 121.333 130 168s91.833 82.667 140.5 108s98.334 38 149.001 38c28.667 0 54.5 -4.33301 77.5 -13s42.667 -20.834 59 -36.501s29 -34.334 38 -56.001s13.5 -45.167 13.5 -70.5c0 -46 -9.5 -86.167 -28.5 -120.5
s-45 -64.5 -78 -90.5s-71.833 -48.333 -116.5 -67s-92.834 -35.167 -144.501 -49.5s-105.334 -27.166 -161.001 -38.499l-165.5 -34c-26.667 -66 -50.667 -131 -72 -195s-40 -124.333 -56 -181l-15 -54c-5.33301 -20 -8.66602 -38.833 -9.99902 -56.5s0.5 -32.667 5.5 -45
s15.833 -18.833 32.5 -19.5c10 -0.666992 19.333 1.33301 28 6s16.667 10.834 24 18.501s14 16.334 20 26.001s11.333 18.834 16 27.501c1.33301 2.66699 3.16602 3.5 5.49902 2.5s2.83301 -3.16699 1.5 -6.5c-4 -13.333 -9.83301 -26.833 -17.5 -40.5s-17 -26 -28 -37
s-23.333 -19.833 -37 -26.5s-28.5 -9.33398 -44.5 -8.00098c-16.667 0.666992 -29.667 4.83398 -39 12.501s-16 17 -20 28s-5.83301 23 -5.5 36s1.5 25.667 3.5 38s4.33301 23.5 7 33.5l6 23c20 73.333 41.667 143.833 65 211.5s48.333 132.5 75 194.5
c-64 -14 -124.833 -29.333 -182.5 -46s-107.834 -37.5 -150.501 -62.5s-75.834 -54.833 -99.501 -89.5s-33.834 -77 -30.501 -127zM2044 1141c-52 0 -101.001 -14.002 -147.001 -42.002s-89.167 -65.333 -129.5 -112s-77.833 -100.667 -112.5 -162
s-66.667 -125.333 -96 -192l158.5 24.5c53 8.33301 103.667 18 152 29s93.333 24.333 135 40s77.834 35 108.501 58s54.834 50.5 72.5 82.5c17.667 32 26.5 70.333 26.5 115c0 24.667 -4.5 46.834 -13.5 66.501s-21 36.334 -36 50.001s-32.833 24.167 -53.5 31.5
s-42.334 11 -65 11z" />
    <glyph glyph-name="I" unicode="I" horiz-adv-x="1032" 
d="M467 -48c-84.667 0 -157.496 14.1719 -218.496 42.5049s-109.833 65.5 -146.5 111.5s-61 98.333 -73 157s-11 118 3 178s40.833 118.167 80.5 174.5s93.167 105.5 160.5 147.5c12 7.33301 21.833 10 29.5 8s12.667 -5.83301 15 -11.5s2.16602 -11.667 -0.500977 -18
s-8.33398 -10.166 -17.001 -11.499c-6 -0.666992 -13 -1.33398 -21 -2.00098s-17 -3.16699 -27 -7.5s-21.5 -11.833 -34.5 -22.5s-27.833 -26.334 -44.5 -47.001c-30.667 -39.333 -54.167 -83.333 -70.5 -132s-25.166 -98 -26.499 -148s5.5 -98.833 20.5 -146.5
s38.333 -90 70 -127s72.167 -66.833 121.5 -89.5s108 -34 176 -34c71.333 0 132.5 13.167 183.5 39.5s94.667 61.333 131 105s66.833 94.167 91.5 151.5s46.834 117.166 66.501 179.499s38.167 125 55.5 188s36.5 122 57.5 177s45.5 104 73.5 147s62.667 75.833 104 98.5
c-48 -9.33301 -96.667 -11.666 -146 -6.99902s-97.333 11.5 -144 20.5s-91.167 18 -133.5 27s-80.166 13.5 -113.499 13.5c-52 0 -96.333 -11.5 -133 -34.5s-65.167 -51.667 -85.5 -86s-32 -71.5 -35 -111.5s3.5 -77.167 19.5 -111.5s41.667 -63 77 -86s81 -34.5 137 -34.5
c29.333 0 53.166 3 71.499 9s32.666 12.833 42.999 20.5s17.833 15.334 22.5 23.001l10 16.5c4 6.66699 8.83301 10.5 14.5 11.5s10.667 0.166992 15 -2.5s7 -6.83398 8 -12.501s-1.5 -12.167 -7.5 -19.5c-16 -21.333 -40.167 -37.5 -72.5 -48.5s-67.5 -16.5 -105.5 -16.5
c-62 0 -112.5 12.333 -151.5 37s-67 55.667 -84 93s-23.833 77.666 -20.5 120.999s16.333 83.666 39 120.999s54 68.333 94 93s88.333 37 145 37c31.333 0 61.166 -2.33301 89.499 -7s56.833 -10.167 85.5 -16.5s58.167 -12.5 88.5 -18.5s63 -10.5 98 -13.5
s73 -3.66699 114 -2s86.5 7.16699 136.5 16.5c5.33301 1.33301 9.66602 1.16602 12.999 -0.500977s5.33301 -3.66699 6 -6s0 -4.83301 -2 -7.5s-5 -4.66699 -9 -6c-34.667 -9.33301 -64.834 -27.333 -90.501 -54s-48.667 -59.334 -69 -98.001s-38.833 -82.167 -55.5 -130.5
s-33 -98.833 -49 -151.5l-50 -160.5c-17.333 -54.333 -36.833 -107 -58.5 -158s-46.5 -98.833 -74.5 -143.5s-60.833 -83.5 -98.5 -116.5s-81 -59.167 -130 -78.5s-105.167 -29 -168.5 -29z" />
    <glyph glyph-name="J" unicode="J" horiz-adv-x="1109" 
d="M1410 1154c-39.333 -42 -74.8398 -91.4971 -106.507 -148.497s-61.167 -118.667 -88.5 -185s-53.166 -136 -77.499 -209l-73 -221l-75 -221c-25.667 -73 -53.834 -142.5 -84.501 -208.5s-64.334 -127.167 -101.001 -183.5s-78 -105 -124 -146
s-97.167 -73.167 -153.5 -96.5s-119.833 -35 -190.5 -35c-63.333 0 -117.666 11 -162.999 33s-81.666 51.167 -108.999 87.5s-45.333 77.5 -54 123.5s-7.66699 93.167 3 141.5s31 95.5 61 141.5s70.333 87.167 121 123.5s111.5 65.5 182.5 87.5s152.5 33 244.5 33
c28 0 58.333 -1.83301 91 -5.5s65.334 -9.16699 98.001 -16.5c14 -3.33301 23.167 -8.5 27.5 -15.5s5 -13.667 2 -20s-8.83301 -10.833 -17.5 -13.5s-18.667 -1.33398 -30 3.99902c-4.66699 2 -10.334 5.83301 -17.001 11.5s-16.167 11.167 -28.5 16.5
s-28.666 10.166 -48.999 14.499s-46.833 6.5 -79.5 6.5c-86 0 -161.667 -10.333 -227 -31s-120.833 -48 -166.5 -82s-81.667 -72.667 -108 -116s-43.833 -87.666 -52.5 -132.999s-8.5 -89.666 0.5 -132.999s25.833 -82 50.5 -116s57 -61.333 97 -82s87.333 -31 142 -31
c76.667 0 143.667 14.333 201 43s107.833 68.167 151.5 118.5s82 109.666 115 177.999s63.667 141.833 92 220.5s55.666 160.834 81.999 246.501s54.833 171.167 85.5 256.5s64.834 168.666 102.501 249.999s81.834 157 132.501 227
c-45.333 -32 -92.666 -58.333 -141.999 -79s-97.833 -39 -145.5 -55l-136 -46c-43 -14.667 -80.667 -31.834 -113 -51.501s-58.166 -43.667 -77.499 -72s-29 -63.833 -29 -106.5c0 -21.333 3.83301 -41.166 11.5 -59.499s18.667 -34.166 33 -47.499
s31.833 -23.833 52.5 -31.5s44 -11.5 70 -11.5s47.667 3.83301 65 11.5s31.5 16.5 42.5 26.5s19.333 20.167 25 30.5s10.167 18.166 13.5 23.499c4.66699 8 10 13 16 15s11.5 1.83301 16.5 -0.5s8.5 -6.33301 10.5 -12s1 -11.834 -3 -18.501
c-8.66699 -14.667 -20.334 -27.834 -35.001 -39.501s-31 -21.667 -49 -30s-37.333 -14.666 -58 -18.999s-41 -6.5 -61 -6.5c-28.667 0 -54.834 4.16699 -78.501 12.5s-44 20 -61 35s-30.167 32.833 -39.5 53.5s-14 43.667 -14 69c0 49.333 12.833 89.666 38.5 120.999
s59.334 57.666 101.001 78.999s88.834 40 141.501 56s105.834 33.5 159.501 52.5s105.334 41.667 155.001 68s92.5 60.5 128.5 102.5c8.66699 10.667 17.667 18.667 27 24s17 8.33301 23 9s9.83301 -0.666016 11.5 -3.99902s-0.5 -8 -6.5 -14z" />
    <glyph glyph-name="K" unicode="K" horiz-adv-x="1375" 
d="M1188 1013c-31.333 -7.33301 -59.3379 -28 -84.0049 -62s-47.834 -76.5 -69.501 -127.5s-42.834 -107.667 -63.501 -170l-65.5 -189.5c-23 -64 -48 -126.5 -75 -187.5s-58.167 -115 -93.5 -162s-75.666 -84.833 -120.999 -113.5s-97.333 -43 -156 -43
c-52 0 -93.5 8 -124.5 24s-52.667 35.667 -65 59s-16.166 48.333 -11.499 75s16.334 50.834 35.001 72.501s43.834 38.5 75.501 50.5s68.167 15.333 109.5 10c9.33301 -1.33301 15.333 -4.33301 18 -9s3.16699 -9.33398 1.5 -14.001s-5.16699 -8.5 -10.5 -11.5
s-11.333 -2.83301 -18 0.5c-6 2.66699 -11.833 6.33398 -17.5 11.001s-15.5 7 -29.5 7c-22 0 -41.5 -6.16699 -58.5 -18.5s-30.333 -28 -40 -47s-15 -39.333 -16 -61s4 -42 15 -61s28.333 -34.667 52 -47s55.167 -18.5 94.5 -18.5c48 0 89.5 10.167 124.5 30.5
s65.667 48 92 83s49.5 76 69.5 123s39 97.167 57 150.5l53.5 165.5c17.667 57 37.5 113 59.5 168s47.167 107.833 75.5 158.5s61.833 96 100.5 136c-44 -8.66699 -86 -11.5 -126 -8.5s-81 8 -123 15s-86.667 14 -134 21s-100.666 10.5 -159.999 10.5
c-50.667 0 -96.667 -11.333 -138 -34s-76.666 -52.334 -105.999 -89.001s-52.5 -78 -69.5 -124s-26.167 -92 -27.5 -138c-1.33301 -42.667 4.66699 -83.834 18 -123.501s33.5 -75 60.5 -106s60.333 -55.833 100 -74.5s85.167 -28 136.5 -28c42.667 0 77.167 4.5 103.5 13.5
s47 19.833 62 32.5s26.167 25.834 33.5 39.501l19 34.5c4.66699 8 10.5 12.833 17.5 14.5s13 1.16699 18 -1.5s8.33301 -7 10 -13s-0.166016 -12.667 -5.49902 -20c-15.333 -20 -32.666 -37.333 -51.999 -52s-40.333 -26.834 -63 -36.501s-46 -16.667 -70 -21
s-48 -6.5 -72 -6.5c-55.333 0 -106.166 9.83301 -152.499 29.5s-86.333 45.667 -120 78s-59.5 69.333 -77.5 111s-26.333 84.5 -25 128.5c1.33301 32.667 7 65.334 17 98.001s23.667 64 41 94s38 57.833 62 83.5s50.5 48 79.5 67s60.5 33.833 94.5 44.5s69.333 16 106 16
c46.667 0 88.5 -2 125.5 -6s71.333 -8.66699 103 -14l90.5 -15c28.667 -4.66699 58.167 -7.5 88.5 -8.5s62.666 0.5 96.999 4.5s73.166 12.333 116.499 25c6 2 10.667 2 14 0s5.33301 -4.5 6 -7.5s0 -6.16699 -2 -9.5s-5.33301 -5.33301 -10 -6zM2082 -549
c2.66699 4.66699 6.00098 7.50293 10.001 8.50293s7.66699 0.5 11 -1.5s5.66602 -5.16699 6.99902 -9.5s0.333008 -9.5 -3 -15.5c-7.33301 -12.667 -23.833 -23.667 -49.5 -33s-53.167 -14 -82.5 -14c-70.667 0 -135.834 10.833 -195.501 32.5s-114.5 50.834 -164.5 87.501
s-95.5 79.167 -136.5 127.5s-78.667 99.333 -113 153s-65.5 108.5 -93.5 164.5s-53.667 109.667 -77 161l-64.5 142.5c-19.667 43.667 -38.167 80.167 -55.5 109.5c-29.333 -9.33301 -56.666 -14 -81.999 -14c-22.667 0 -39.5 5.33301 -50.5 16s-16.167 22.167 -15.5 34.5
s7.16699 23.833 19.5 34.5s30.5 16 54.5 16c16 0 32 -5.16699 48 -15.5s31.667 -24.833 47 -43.5c37.333 17.333 75 42 113 74s76 68.5 114 109.5s76 84.833 114 131.5l113.5 139l113 132.5c37.667 42.333 75 79.666 112 111.999s73.833 58.166 110.5 77.499s73 29 109 29
c10.667 0 18.5 -2.83301 23.5 -8.5s7.33301 -11.667 7 -18s-3.5 -12.333 -9.5 -18s-14.333 -8.5 -25 -8.5c-4.66699 0 -9.66699 1.16699 -15 3.5s-11.333 4.66602 -18 6.99902s-14 3.83301 -22 4.5s-17 -0.333008 -27 -3c-35.333 -11.333 -72.833 -35.333 -112.5 -72
s-81 -80.167 -124 -130.5l-133 -162.5c-45.667 -58 -92.167 -114 -139.5 -168s-95.5 -103 -144.5 -147s-98.167 -77 -147.5 -99c22.667 -30 46 -66.833 70 -110.5l75.5 -142.5l83 -160.5c29 -55.667 60.167 -110.334 93.5 -164.001s69.166 -104.5 107.499 -152.5
s80 -90.333 125 -127s93.333 -65.667 145 -87s107.5 -32 167.5 -32c18.667 0 34.167 1.83301 46.5 5.5s22.5 8 30.5 13s14.333 10.5 19 16.5s8.33398 11 11.001 15zM992.996 367.003c24 0 48 3.99805 72 11.998c-11.333 18 -22.333 32 -33 42s-21.667 15 -33 15
c-17.333 0 -30.333 -3.66699 -39 -11s-13 -15.166 -13 -23.499s3.83301 -16.166 11.5 -23.499s19.167 -11 34.5 -11z" />
    <glyph glyph-name="L" unicode="L" horiz-adv-x="940" 
d="M1595 -215c24 0 45.0049 -3.66016 63.0049 -10.9932s33 -17.333 45 -30s21 -27.5 27 -44.5s9 -35.5 9 -55.5c0 -24 -4.33301 -49.167 -13 -75.5s-21.834 -52.166 -39.501 -77.499s-39.834 -49.5 -66.501 -72.5s-57.667 -43.333 -93 -61s-75 -31.667 -119 -42
s-92.667 -15.5 -146 -15.5c-64.667 0 -126.667 8.83301 -186 26.5s-116.333 41.334 -171 71.001s-107 63.334 -157 101.001s-97.833 76.667 -143.5 117l-132 120c-42.333 39.667 -82.833 75.834 -121.5 108.501c-34 -23.333 -71.333 -41.333 -112 -54s-86 -19 -136 -19
c-30 0 -55.667 2.83301 -77 8.5s-38.833 13 -52.5 22s-23.834 19.5 -30.501 31.5s-10 24.333 -10 37c0 14.667 3.83301 29 11.5 43s18.667 26.667 33 38s31.666 20.5 51.999 27.5s43.166 10.5 68.499 10.5c42 0 84.833 -10.167 128.5 -30.5s88.5 -47.5 134.5 -81.5
c32 28 59.833 61.5 83.5 100.5s45.167 81.5 64.5 127.5c-25.333 -8 -50.666 -14.333 -75.999 -19s-51 -7 -77 -7c-50.667 0 -95.167 8.33301 -133.5 25s-70.5 39.167 -96.5 67.5s-45.5 61 -58.5 98s-19.5 75.833 -19.5 116.5c0 42.667 7.33301 86 22 130s37 85.5 67 124.5
s67.5 74 112.5 105s97.833 55.167 158.5 72.5c14 4 26 6 36 6c12.667 0 21.834 -2.33301 27.501 -7s8.5 -9.66699 8.5 -15c0 -6 -3 -11.5 -9 -16.5s-14.667 -7.5 -26 -7.5c-6 0 -12.667 0.5 -20 1.5s-15.666 1.5 -24.999 1.5c-14 0 -33 -3.16699 -57 -9.5
s-51.333 -19.166 -82 -38.499c-28.667 -18 -53.667 -39.667 -75 -65s-39.166 -52.833 -53.499 -82.5s-25 -60.834 -32 -93.501s-10.5 -65 -10.5 -97c0 -38 5.83301 -74.333 17.5 -109s29.834 -65.167 54.501 -91.5s56 -47.5 94 -63.5s83.667 -24 137 -24
c21.333 0 42.333 1.83301 63 5.5s41.667 9.16699 63 16.5c22.667 55.333 44.167 113.833 64.5 175.5s43.166 124.5 68.499 188.5l63.5 155.5c21.667 51.667 44 101 67 148s46.667 90.833 71 131.5s49.666 76 75.999 106s53.5 53.5 81.5 70.5s57.333 25.5 88 25.5
c27.333 0 49.333 -9.5 66 -28.5s25 -45.167 25 -78.5c0 -37.333 -7.33301 -81.833 -22 -133.5s-35.334 -106.334 -62.001 -164.001s-59 -116.334 -97 -176.001s-80 -116.334 -126 -170.001s-95.833 -102.667 -149.5 -147s-109.834 -79.5 -168.501 -105.5
c-25.333 -53.333 -52.833 -102.333 -82.5 -147s-64.5 -83.334 -104.5 -116.001c42.667 -32 86.5 -67.5 131.5 -106.5l139.5 -119c48 -40.333 97.5 -79.333 148.5 -117s104.167 -71.334 159.5 -101.001s112.666 -53.334 171.999 -71.001s121 -26.5 185 -26.5
c42.667 0 82.167 4.83301 118.5 14.5s69.5 22.834 99.5 39.501s56.667 35.834 80 57.501s42.833 44.5 58.5 68.5s27.667 48.167 36 72.5s12.5 47.5 12.5 69.5c0 36 -11 65.833 -33 89.5s-56.333 35.5 -103 35.5c-24 0 -49.5 -3.83301 -76.5 -11.5
s-53.5 -18.334 -79.5 -32.001s-50.833 -29.834 -74.5 -48.501s-44 -39.334 -61 -62.001s-29.833 -46.834 -38.5 -72.501s-11 -51.834 -7 -78.501c1.33301 -10 -0.166992 -17.833 -4.5 -23.5s-9.33301 -8.83398 -15 -9.50098s-11 1.33301 -16 6s-7.5 13 -7.5 25
c0 17.333 4.16699 37.166 12.5 59.499s20.5 45.5 36.5 69.5s35.5 47.5 58.5 70.5s49 43.5 78 61.5s60.833 32.667 95.5 44s71.667 17 111 17zM703.005 478.007l-60.999 -165.503c-20 -55 -41.667 -108.5 -65 -160.5c53.333 26 105.166 60.667 155.499 104
s97.5 91.5 141.5 144.5s84.333 108.833 121 167.5s68.167 115.834 94.5 171.501s46.833 107.834 61.5 156.501s22 90 22 124c0 27.333 -6.5 49.5 -19.5 66.5s-33.5 25.5 -61.5 25.5c-27.333 0 -53.166 -8.16699 -77.499 -24.5s-47.5 -39.166 -69.5 -68.499
s-43.333 -64 -64 -104s-40.834 -83.333 -60.501 -130s-39.167 -96.167 -58.5 -148.5zM103.006 -211.996c49.333 0 92.832 6 130.499 18s71.5 29 101.5 51c-42.667 35.333 -83.5 63.833 -122.5 85.5s-76.5 32.5 -112.5 32.5c-20 0 -37.667 -2.83301 -53 -8.5
s-28.166 -13.167 -38.499 -22.5s-18.333 -20 -24 -32s-8.5 -24 -8.5 -36c0 -22.667 10.167 -43 30.5 -61s52.5 -27 96.5 -27z" />
    <glyph glyph-name="M" unicode="M" horiz-adv-x="1568" 
d="M2248 -392c3.33301 8.66699 7.99219 14.3262 13.9922 16.9932s11.667 3 17 1s9.5 -5.83301 12.5 -11.5s2.83301 -12.5 -0.5 -20.5c-8.66699 -20.667 -26.167 -46.5 -52.5 -77.5s-60.666 -61 -103 -90c-42.333 -29 -92 -53.833 -149 -74.5s-119.833 -31 -188.5 -31
c-83.333 0 -154.5 15.667 -213.5 47s-107 74.5 -144 129.5s-63.5 119.667 -79.5 194s-22.5 154.5 -19.5 240.5s15.167 175.833 36.5 269.5s50.666 187.334 87.999 281.001s82.5 185.334 135.5 275.001s112.5 173.5 178.5 251.5
c-54.667 -45.333 -107.167 -97.666 -157.5 -156.999s-98.166 -121.166 -143.499 -185.499s-87.666 -129.166 -126.999 -194.499s-74.666 -127 -105.999 -185s-58.5 -110.333 -81.5 -157l-53.5 -111c-5.33301 -11.333 -9.66602 -21.333 -12.999 -30
s-10.666 -14.667 -21.999 -18c-8 -2.66699 -14.167 -0.166992 -18.5 7.5s-7.83301 17.167 -10.5 28.5c-10 52 -13.333 110.833 -10 176.5s10.333 134 21 205s23.5 142.5 38.5 214.5l43.5 204c-10.667 -22 -26.167 -51.333 -46.5 -88l-69.5 -125.5l-84.5 -153l-91.5 -169.5
c-62.667 -116.667 -139 -204.5 -229 -263.5s-185.333 -88.5 -286 -88.5c-49.333 0 -93.5 7.66699 -132.5 23s-72 35.833 -99 61.5s-47.833 55.334 -62.5 89.001s-22 69.167 -22 106.5c0 38 5.83301 72.5 17.5 103.5s26.834 58.667 45.501 83s39.834 45.5 63.501 63.5
s47.667 32.833 72 44.5s48 20.334 71 26.001s42.833 8.5 59.5 8.5c12 0 20.5 -2.66699 25.5 -8s7.16699 -11.166 6.5 -17.499s-3.5 -11.833 -8.5 -16.5s-11.5 -6 -19.5 -4c-8 1.33301 -15.333 3.33301 -22 6s-13.834 4.83398 -21.501 6.50098s-16.5 2.33398 -26.5 2.00098
s-22 -2.83301 -36 -7.5c-38 -12.667 -70.833 -35 -98.5 -67s-48.5 -68.333 -62.5 -109s-20.667 -83.167 -20 -127.5s10.834 -84.833 30.501 -121.5s49.5 -66.834 89.5 -90.501s91.667 -35.5 155 -35.5c44.667 0 89.334 6.83301 134.001 20.5s87.834 34.5 129.501 62.5
s81.667 63.5 120 106.5s73.5 93.833 105.5 152.5l77 142l78.5 142.5l72.5 131l60 108.5c26.667 48 42 94.5 46 139.5s-1.66699 85 -17 120s-39.5 63.167 -72.5 84.5s-73.5 32 -121.5 32c-46.667 0 -91 -6.83301 -133 -20.5s-81 -32 -117 -55s-68.5 -50 -97.5 -81
s-53.667 -63.667 -74 -98s-36 -69.5 -47 -105.5s-16.5 -70.667 -16.5 -104c0 -28.667 5.5 -56.334 16.5 -83.001s26.833 -50.167 47.5 -70.5s45.667 -36.5 75 -48.5s62.333 -18 99 -18c36 0 64.167 2.33301 84.5 7s36.333 10.667 48 18s20.834 15.166 27.501 23.499
s14.334 16.5 23.001 24.5c6.66699 6 13.167 8.66699 19.5 8s11 -3.16699 14 -7.5s4 -9.83301 3 -16.5s-5.83301 -13 -14.5 -19c-30 -20.667 -63 -34.667 -99 -42s-71 -11 -105 -11c-39.333 0 -74.833 6.33301 -106.5 19s-59 29.667 -82 51s-40.667 46 -53 74
s-18.5 57.667 -18.5 89c0 62 14.833 122.5 44.5 181.5s68.834 111.833 117.501 158.5s104.167 84.167 166.5 112.5s126.5 42.5 192.5 42.5c40.667 0 76.834 -6.33301 108.501 -19s58 -31 79 -55s36.5 -53.167 46.5 -87.5s13.667 -72.833 11 -115.5
c-4 -59.333 -12.667 -121.166 -26 -185.499l-41.5 -198c-14.333 -67.667 -27 -137 -38 -208s-16.167 -142.5 -15.5 -214.5c0 -19.333 1.66699 -31.666 5 -36.999s6.66602 -8 9.99902 -8c2 0 5.33301 1.83301 10 5.5s10.667 13.167 18 28.5
c86 170.667 168.833 317.167 248.5 439.5s154.667 225.166 225 308.499s135.666 150 195.999 200s114.166 88.167 161.499 114.5s87.833 43.666 121.499 51.999c33.667 8.33301 59.167 12.5 76.5 12.5c19.333 0 34.5 -2.5 45.5 -7.5s18.5 -10.833 22.5 -17.5
s5.16699 -13.667 3.5 -21s-5.16699 -13.5 -10.5 -18.5s-12.166 -8.16699 -20.499 -9.5s-16.833 1 -25.5 7c-16.667 10.667 -34 18 -52 22s-37.167 4.16699 -57.5 0.5s-41.833 -11.5 -64.5 -23.5s-47 -28.667 -73 -50c-49.333 -40.667 -97 -90.167 -143 -148.5
s-89.167 -122.666 -129.5 -192.999s-77.333 -144.833 -111 -223.5s-62.5 -158.334 -86.5 -239.001s-42.5 -161 -55.5 -241s-19.167 -156.333 -18.5 -229s8.66699 -140.167 24 -202.5s39.666 -116.333 72.999 -162s76 -81.5 128 -107.5s115 -39 189 -39c48.667 0 93 5 133 15
s75.833 23 107.5 39s59.5 33.833 83.5 53.5s44.5 39.5 61.5 59.5s30.667 39 41 57s17.833 33 22.5 45z" />
    <glyph glyph-name="N" unicode="N" horiz-adv-x="1483" 
d="M2143 1243c19.333 0 34.5039 -2.50098 45.5039 -7.50098s18.5 -10.833 22.5 -17.5s5.16699 -13.667 3.5 -21s-5.16699 -13.5 -10.5 -18.5s-12.166 -8.16699 -20.5 -9.5c-8.33301 -1.33301 -16.833 1 -25.5 7c-16 10 -32.5 17.667 -49.5 23s-35.333 7.33301 -55 6
s-40.834 -6.5 -63.501 -15.5s-47.667 -23.167 -75 -42.5c-48 -33.333 -97.333 -78.5 -148 -135.5s-103 -130.333 -157 -220s-109.833 -197.834 -167.5 -324.501s-117.167 -276.334 -178.5 -449.001c-4.66699 -12.667 -8.16699 -22.667 -10.5 -30
s-9.83301 -12.666 -22.5 -15.999c-8 -2 -13.667 1 -17 9s-6.33301 17.667 -9 29c-7.33301 35.333 -14.5 74.333 -21.5 117s-13.667 87.167 -20 133.5l-19 142.5l-18 144.5l-16.5 139l-15 126.5c-35.333 -72.667 -69 -145.334 -101 -218.001s-64.833 -142.167 -98.5 -208.5
s-69.334 -128 -107.001 -185s-79.667 -106.5 -126 -148.5s-98 -75 -155 -99s-121.5 -36 -193.5 -36c-51.333 0 -96.5 7.66699 -135.5 23s-71.833 35.666 -98.5 60.999s-46.834 54.333 -60.501 87s-20.5 66.667 -20.5 102c0 40.667 5.83301 77.334 17.5 110.001
s27 61.5 46 86.5s40.333 46.333 64 64s47.667 32.167 72 43.5s47.833 19.666 70.5 24.999s42 8 58 8c10.667 0 18.5 -2.66699 23.5 -8s7.5 -11 7.5 -17s-2.5 -11.333 -7.5 -16s-11.5 -6.33398 -19.5 -5.00098c-7.33301 0.666992 -14.166 2.33398 -20.499 5.00098
s-13.166 4.83398 -20.499 6.50098s-15.833 2.5 -25.5 2.5s-21.5 -2 -35.5 -6c-37.333 -10.667 -70 -31.667 -98 -63s-49.333 -67.5 -64 -108.5s-21.834 -84 -21.501 -129s10 -86.167 29 -123.5s48.333 -68.166 88 -92.499s91.167 -36.5 154.5 -36.5
c70.667 0 134.167 13.333 190.5 40s107.5 62.167 153.5 106.5s87.333 95.833 124 154.5s70.667 119.834 102 183.501s60.833 127.834 88.5 192.501s55.5 125.667 83.5 183c11.333 22.667 18.833 48.167 22.5 76.5s3.66699 57 0 86s-11.334 57.167 -23.001 84.5
s-27 51.666 -46 72.999s-42 38.5 -69 51.5s-57.833 19.5 -92.5 19.5c-47.333 0 -92 -6.83301 -134 -20.5s-80.833 -32 -116.5 -55s-67.834 -49.667 -96.501 -80s-53 -62.5 -73 -96.5s-35.333 -68.833 -46 -104.5s-16 -70.167 -16 -103.5c0 -31.333 6 -60.5 18 -87.5
s28.667 -50.5 50 -70.5s46.333 -35.667 75 -47s60 -17 94 -17c34.667 0 62.167 2.66699 82.5 8s36.5 11.833 48.5 19.5s21.333 15.5 28 23.5s14.334 15 23.001 21c7.33301 4.66699 14.166 6.5 20.499 5.5s10.833 -3.66699 13.5 -8s3.16699 -9.66602 1.5 -15.999
s-6.83398 -12.5 -15.501 -18.5c-30 -20.667 -62.667 -34.5 -98 -41.5s-69.666 -10.5 -102.999 -10.5c-38 0 -73 6.16699 -105 18.5s-59.5 29 -82.5 50s-40.833 45.833 -53.5 74.5s-19 59.667 -19 93c0 36.667 6.16699 74.334 18.5 113.001s29.666 76.167 51.999 112.5
s49.333 70.666 81 102.999s67.167 60.666 106.5 84.999s81.833 43.5 127.5 57.5s93.834 21 144.501 21c69.333 0 125.833 -21.667 169.5 -65s72.167 -109.333 85.5 -198c9.33301 -62.667 18.5 -129 27.5 -199s17.667 -140.833 26 -212.5l25.5 -213
c8.66699 -70.333 17.334 -137.166 26.001 -200.499c2.66699 -19.333 5.16699 -31.833 7.5 -37.5s6.16602 -8.5 11.499 -8.5c2 0 4.5 1.83301 7.5 5.5s7.16699 13.5 12.5 29.5c50.667 137.333 100.334 258.5 149.001 363.5s96 196.667 142 275s90.167 144.833 132.5 199.5
s82.5 100 120.5 136s73.5 64.167 106.5 84.5s63.167 35.333 90.5 45s51.666 15.667 72.999 18s39 3.5 53 3.5z" />
    <glyph glyph-name="O" unicode="O" horiz-adv-x="888" 
d="M791 1196c38.667 0 69.6738 -7.66309 93.0068 -22.9961s39.666 -35.833 48.999 -61.5s12.166 -55.5 8.49902 -89.5s-12.834 -69.667 -27.501 -107c14.667 -38.667 23 -81.667 25 -129s-1.66699 -96.833 -11 -148.5s-23.666 -104.167 -42.999 -157.5
s-42.5 -104.833 -69.5 -154.5s-57.333 -96.334 -91 -140.001s-69.834 -81.834 -108.501 -114.501s-79 -58.334 -121 -77.001s-84.667 -28 -128 -28c-48 0 -92.667 12 -134 36s-74.833 60.167 -100.5 108.5s-40.834 108.833 -45.501 181.5s5.66602 157.334 30.999 254.001
c-42 27.333 -73.667 62 -95 104s-32 87 -32 135c0 44.667 7.66699 85 23 121s35.5 68 60.5 96s53 52.167 84 72.5s62.333 37 94 50s62.167 22.667 91.5 29s54.333 9.5 75 9.5c12.667 0 21.5 -2.66699 26.5 -8s7 -11.166 6 -17.499s-4.33301 -11.833 -10 -16.5
s-12.5 -6.33398 -20.5 -5.00098c-9.33301 1.33301 -17.833 3.33301 -25.5 6s-16.334 4.66699 -26.001 6s-20.667 1.5 -33 0.5s-27.833 -4.16699 -46.5 -9.5c-52.667 -16 -97.5 -37.667 -134.5 -65s-66.833 -57.833 -89.5 -91.5s-38.167 -69.334 -46.5 -107.001
s-9.83301 -74.334 -4.5 -110.001s17.166 -69.167 35.499 -100.5s42.833 -57.666 73.5 -78.999c18.667 57.333 43 112.666 73 165.999s63.5 103.333 100.5 150s76.667 89.167 119 127.5s85 71.333 128 99s85.5 49.167 127.5 64.5s81.667 23 119 23zM766.007 1167
c-35.333 0 -71.998 -8.50293 -109.998 -25.5029s-76.333 -40.167 -115 -69.5s-76.334 -64.166 -113.001 -104.499s-71.167 -83.666 -103.5 -129.999s-61.5 -95 -87.5 -146s-47 -102.167 -63 -153.5c45.333 -18 91.833 -26.833 139.5 -26.5s94.834 7.33301 141.501 21
s92 33 136 58s84.667 53.333 122 85s70.166 65.5 98.499 101.5s50.833 72.333 67.5 109c-8.66699 28 -21.167 49.833 -37.5 65.5s-37.166 23.5 -62.499 23.5c-7.33301 0 -13 -2 -17 -6s-6.83301 -9 -8.5 -15s-2.5 -12.333 -2.5 -19s0.666992 -13 2 -19
c1.33301 -5.33301 0 -8.83301 -4 -10.5s-7.66699 0.5 -11 6.5c-5.33301 8.66699 -8.5 19 -9.5 31s0.5 23.5 4.5 34.5s11.333 20.333 22 28s25 11.5 43 11.5c21.333 0 40.666 -6.83301 57.999 -20.5s32.666 -32.167 45.999 -55.5c10 30.667 15.333 59.834 16 87.501
s-4.33301 51.667 -15 72s-27.167 36.5 -49.5 48.5s-51.5 18 -87.5 18zM369.009 -13.999c42.667 0 83.333 8.83008 122 26.4971s75.167 41.834 109.5 72.501s66 66.5 95 107.5s55.167 84.5 78.5 130.5s43.5 93.5 60.5 142.5s30.333 97 40 144s15.5 91.833 17.5 134.5
s0 80.334 -6 113.001c-20 -39.333 -45.5 -77.166 -76.5 -113.499s-65.667 -69.666 -104 -99.999s-79.5 -57 -123.5 -80s-89.167 -40.333 -135.5 -52s-93.166 -17.334 -140.499 -17.001s-93 8.83301 -137 25.5c-19.333 -71.333 -29.333 -139.333 -30 -204
s7.66602 -121.5 24.999 -170.5s43.333 -87.833 78 -116.5s77 -43 127 -43z" />
    <glyph glyph-name="P" unicode="P" horiz-adv-x="1188" 
d="M320 -80c-63.333 0 -115.83 10.335 -157.497 31.002s-73.334 47.667 -95.001 81s-34 71.5 -37 114.5s2.5 87 16.5 132s35.667 89 65 132s65.333 81.5 108 115.5c2.66699 64.667 13.167 127.667 31.5 189s44.166 119.166 77.499 173.499s73.833 104.166 121.5 149.499
s101.667 84.5 162 117.5s126.666 58.667 198.999 77s150.166 27.5 233.499 27.5c98.667 0 180.334 -12.833 245.001 -38.5s114 -59.667 148 -102s54.167 -90.5 60.5 -144.5s0.5 -109.167 -17.5 -165.5s-47.167 -111.833 -87.5 -166.5s-89.5 -103.5 -147.5 -146.5
s-124.167 -78 -198.5 -105s-154.5 -41.5 -240.5 -43.5c-30 -58 -62.333 -113 -97 -165s-72 -97.5 -112 -136.5s-83 -69.833 -129 -92.5s-95.667 -34 -149 -34zM555.003 640.002c18 0 35.8301 -2.17285 53.4971 -6.50586s34.167 -11.166 49.5 -20.499
c27.333 28.667 62.5 53.5 105.5 74.5s93.5 34.167 151.5 39.5c22 52 43.833 100.833 65.5 146.5s43.834 85.5 66.501 119.5s46.334 60.833 71.001 80.5s51 29.5 79 29.5v-14c-18.667 0 -37 -10.167 -55 -30.5s-36.5 -48.166 -55.5 -83.499s-38.5 -76.666 -58.5 -123.999
l-63 -151l-70 -166c-24.667 -57.333 -51 -113.333 -79 -168c71.333 3.33301 139.333 18.333 204 45s123.5 60.834 176.5 102.501s98.667 88.5 137 140.5s67.166 105 86.499 159s28 106.667 26 158s-17.5 97 -46.5 137s-72.333 72.167 -130 96.5s-132.5 36.5 -224.5 36.5
c-81.333 0 -157.333 -9.16699 -228 -27.5s-135.167 -43.666 -193.5 -75.999s-110.666 -70.666 -156.999 -114.999s-85.666 -92.333 -117.999 -144s-57.5 -106.167 -75.5 -163.5s-28.333 -115 -31 -173c42 30 89.167 53.833 141.5 71.5s109.5 26.5 171.5 26.5zM320 -66.0039
c48 0 92.665 11 133.998 33s79.666 52 114.999 90s68.166 82.167 98.499 132.5s59.166 103.833 86.499 160.5c-43.333 4 -77.166 14.5 -101.499 31.5s-40.5 37.667 -48.5 62s-8 50.5 0 78.5s23 55 45 81c-13.333 9.33301 -28.166 15.833 -44.499 19.5s-32.833 5.5 -49.5 5.5
c-58.667 0 -112.667 -10 -162 -30s-93.5 -46.167 -132.5 -78.5s-72.167 -69.333 -99.5 -111s-47.833 -84.167 -61.5 -127.5s-20.167 -85.833 -19.5 -127.5s9.83398 -78.667 27.501 -111s43.834 -58.5 78.501 -78.5s79.334 -30 134.001 -30zM760.998 365.996
c27.333 57.333 53.001 115.501 77.001 174.501l71 173.5c-49.333 -6 -93.333 -18.167 -132 -36.5s-70.834 -39.833 -96.501 -64.5s-44.167 -50.834 -55.5 -78.501s-14.333 -53.5 -9 -77.5s19.833 -44.333 43.5 -61s57.5 -26.667 101.5 -30z" />
    <glyph glyph-name="Q" unicode="Q" horiz-adv-x="964" 
d="M1527 -197c2 8.66699 5.83594 14.6582 11.5029 17.9912s11.334 4.33301 17.001 3s10 -4.5 13 -9.5s3.16699 -11.5 0.5 -19.5c-4 -10.667 -11.833 -25.667 -23.5 -45s-27.167 -40.833 -46.5 -64.5s-42.833 -47.667 -70.5 -72s-59.334 -46.5 -95.001 -66.5
s-75.5 -36.333 -119.5 -49s-92 -19 -144 -19c-78.667 0 -151.834 10.833 -219.501 32.5s-130.834 49.167 -189.501 82.5s-113.834 69.666 -165.501 108.999l-147.5 112c-38 -19.333 -79.667 -34.666 -125 -45.999s-95 -17 -149 -17c-41.333 0 -76.333 5.5 -105 16.5
s-50.834 24.833 -66.501 41.5s-24.5 34.834 -26.5 54.501s2.83301 37.834 14.5 54.501s30.5 30.5 56.5 41.5s59 16.5 99 16.5c54 0 108.167 -11.667 162.5 -35s109.5 -53 165.5 -89c28 17.333 52.333 36.333 73 57s38.667 41.334 54 62.001
c-62.667 -9.33301 -115.334 -5.5 -158.001 11.5s-77 42.333 -103 76s-45 73 -57 118s-18.833 90.333 -20.5 136s0.333008 89.167 6 130.5s13.5 75.333 23.5 102c-42 27.333 -73.5 62 -94.5 104s-31.5 87 -31.5 135c0 44.667 7.66699 85 23 121s35.5 68 60.5 96
s53 52.167 84 72.5s62.333 37 94 50s62 22.667 91 29s53.833 9.5 74.5 9.5c12.667 0 21.5 -2.66699 26.5 -8s7 -11.166 6 -17.499s-4.16699 -11.833 -9.5 -16.5s-12 -6.33398 -20 -5.00098c-9.33301 1.33301 -18 3.16602 -26 5.49902s-16.667 4 -26 5
s-20.333 0.833008 -33 -0.5s-28.334 -4.66602 -47.001 -9.99902c-51.333 -15.333 -95.333 -36.666 -132 -63.999s-66.167 -57.666 -88.5 -90.999s-37.666 -68.5 -45.999 -105.5s-10 -73.167 -5 -108.5s16.333 -68.666 34 -99.999s41.834 -57.666 72.501 -78.999
c18.667 56.667 43 111.667 73 165s63.5 103.333 100.5 150s76.667 89.334 119 128.001s85 71.667 128 99s85.5 48.666 127.5 63.999s81.333 23 118 23c38.667 0 69.667 -7.66699 93 -23s39.833 -36 49.5 -62s12.667 -56 9 -90s-13.167 -69.667 -28.5 -107
c18.667 -51.333 27.167 -108 25.5 -170s-11.334 -125.167 -29.001 -189.5s-41.834 -127.666 -72.501 -189.999s-66 -119.666 -106 -171.999s-83.333 -97.333 -130 -135s-94.334 -63.834 -143.001 -78.501c-16 -25.333 -35.667 -49.833 -59 -73.5s-50 -45.5 -80 -65.5
c54.667 -35.333 109.834 -73.166 165.501 -113.499s111.834 -77.5 168.501 -111.5s113.5 -62.333 170.5 -85s114.5 -34 172.5 -34c52 0 99 6.33301 141 19s79.5 29 112.5 49s61.667 42 86 66s44.833 47.333 61.5 70s29.334 43.167 38.001 61.5s14.334 31.833 17.001 40.5z
M841.003 1166.99c-35.333 0 -72.0029 -8.33008 -110.003 -24.9971s-76.167 -39.834 -114.5 -69.501s-75.833 -64.5 -112.5 -104.5s-71 -83.167 -103 -129.5s-61 -95 -87 -146s-47 -101.833 -63 -152.5c38 -15.333 78.667 -23.5 122 -24.5s87.333 4 132 15s89 27.5 133 49.5
s85.5 48.333 124.5 79s74.667 65.167 107 103.5s59.5 79.166 81.5 122.499c-8 28 -20 50 -36 66s-36.333 24 -61 24c-7.33301 0 -13 -2 -17 -6s-6.83301 -9 -8.5 -15s-2.5 -12.333 -2.5 -19s0.666992 -13 2 -19c1.33301 -5.33301 0 -8.83301 -4 -10.5s-7.66699 0.5 -11 6.5
c-5.33301 8.66699 -8.5 19 -9.5 31s0.5 23.5 4.5 34.5s11.333 20.333 22 28s25 11.5 43 11.5c20.667 0 39.667 -6.66699 57 -20s32.333 -31.333 45 -54c10.667 30.667 16.334 59.667 17.001 87s-4.16602 51.166 -14.499 71.499s-26.666 36.333 -48.999 48
s-51.5 17.5 -87.5 17.5zM245 518.994c-6 -17.333 -11.5029 -39.001 -16.5029 -65.001s-8.33301 -54.5 -10 -85.5s-1.5 -63.167 0.5 -96.5s6.83301 -65.5 14.5 -96.5s18.5 -59.833 32.5 -86.5s32.333 -48.667 55 -66s50 -28.833 82 -34.5s69.667 -3.5 113 6.5
c11.333 18.667 20.333 36.334 27 53.001s11.167 31.334 13.5 44.001s2.33301 22.834 0 30.501s-6.5 11.5 -12.5 11.5c-3.33301 0 -6 -0.5 -8 -1.5l-7 -3.5c-2.66699 -1.33301 -6 -2.5 -10 -3.5s-10 -1.5 -18 -1.5c-20 0 -35 6.33301 -45 19s-14.667 26.667 -14 42
s6 29.333 16 42s25 19 45 19c12 0 23 -2.83301 33 -8.5s18.833 -13.5 26.5 -23.5s13.5 -21.5 17.5 -34.5s6 -26.5 6 -40.5c0 -20 -3.16699 -41.5 -9.5 -64.5s-15.833 -46.167 -28.5 -69.5c46.667 17.333 90 45 130 83s76.333 81.833 109 131.5s61.334 103.167 86.001 160.5
s44.334 114.5 59.001 171.5s24.334 111.667 29.001 164s3.66699 98.166 -3 137.499c-17.333 -34.667 -40.333 -69.334 -69 -104.001s-61.5 -67 -98.5 -97s-77.333 -57 -121 -81s-89 -42.5 -136 -55.5s-95 -19.833 -144 -20.5s-97.167 7.33301 -144.5 24zM75.9971 -227.007
c51.333 0 97.832 5.00098 139.499 15.001s79.5 23.333 113.5 40c-50 37.333 -98 68.166 -144 92.499s-92.333 36.5 -139 36.5c-32 0 -58.167 -4.5 -78.5 -13.5s-34.666 -20.333 -42.999 -34s-11.333 -28.5 -9 -44.5s10 -30.833 23 -44.5s31 -25 54 -34
s50.833 -13.5 83.5 -13.5z" />
    <glyph glyph-name="R" unicode="R" horiz-adv-x="1472" 
d="M2184 -511c2.66699 4 5.99805 6.49707 9.99805 7.49707s7.66699 0.5 11 -1.5s5.66602 -5.16699 7 -9.5c1.33301 -4.33301 0.666016 -9.5 -2 -15.5c-3.33301 -6 -9.16602 -11.833 -17.5 -17.5c-8.33301 -5.66699 -18.5 -10.667 -30.5 -15s-25 -7.83301 -39 -10.5
s-28.333 -4 -43 -4c-72.667 0 -139.5 10.667 -200.5 32s-117 50.333 -168 87s-97.5 79.167 -139.5 127.5s-80.333 99.5 -115 153.5s-66.334 109 -95.001 165s-55 110.167 -79 162.5l-67 146c-20.667 45 -40.334 83.167 -59.001 114.5
c-15.333 -3.33301 -30.666 -5.5 -45.999 -6.5s-31 -1.5 -47 -1.5c-24.667 0 -42.667 5.5 -54 16.5s-16.666 23.167 -15.999 36.5s7.33398 25.5 20.001 36.5s30.667 16.5 54 16.5c18 0 35.833 -6.5 53.5 -19.5s35.5 -31.167 53.5 -54.5c49.333 11.333 95.166 30 137.499 56
s79 56.667 110 92s55.333 74.333 73 117s26.5 86.667 26.5 132c0 53.333 -9.5 99 -28.5 137s-43.833 69.667 -74.5 95s-65.5 45 -104.5 59s-78.5 23.667 -118.5 29c-11.333 1.33301 -18.5 0.333008 -21.5 -3s-5.83301 -8 -8.5 -14
c-2.66699 -7.33301 -7.5 -22.166 -14.5 -44.499l-26.5 -83l-35.5 -110.5l-40.5 -126l-42 -129.5l-40 -121.5l-34 -102.5c-10 -30.333 -18.333 -54.166 -25 -71.499c-10 -27.333 -22.5 -57 -37.5 -89s-32.667 -63.833 -53 -95.5s-43.166 -62.167 -68.499 -91.5
s-53.833 -55.166 -85.5 -77.499s-66.334 -40.166 -104.001 -53.499s-78.5 -20 -122.5 -20c-83.333 0 -152.833 13.167 -208.5 39.5s-98.667 60.333 -129 102s-48.666 88 -54.999 139s-2.16602 101.167 12.501 150.5s39.167 95 73.5 137s77.5 74.667 129.5 98
c4 43.333 16 88 36 134s47.333 91 82 135s76.334 85.667 125.001 125s103.667 73.666 165 102.999s128.666 52.666 201.999 69.999s152.333 26 237 26c70 0 134 -7.83301 192 -23.5s107.833 -38.167 149.5 -67.5s74 -65 97 -107s34.5 -89 34.5 -141
c0 -47.333 -10.333 -93.5 -31 -138.5s-48.667 -86.333 -84 -124s-76.833 -70.5 -124.5 -98.5s-98.5 -48.333 -152.5 -61c22.667 -32.667 46.167 -71.5 70.5 -116.5l76.5 -145.5l85 -161.5c30 -55.667 62.333 -110 97 -163s72 -103.167 112 -150.5s83 -88.833 129 -124.5
s95.667 -64 149 -85s111 -31.5 173 -31.5c18.667 0 34.167 1.83301 46.5 5.5s22.333 8 30 13s13.667 10.333 18 16s7.5 10.834 9.5 15.501zM1106 1137c1.33301 5.33301 1.66797 9.99902 1.00098 13.999s-4.66699 6.33301 -12 7
c-36.667 0.666992 -79.667 -2.16602 -129 -8.49902s-100.666 -17.833 -153.999 -34.5s-106.833 -38.667 -160.5 -66s-103.334 -61.666 -149.001 -102.999s-85.334 -90.166 -119.001 -146.499s-57.167 -121.5 -70.5 -195.5c35.333 9.33301 72.333 14 111 14
c54.667 0 98.167 -8 130.5 -24s55.5 -35.833 69.5 -59.5s19.833 -49.5 17.5 -77.5s-11 -53.833 -26 -77.5s-35.167 -43.5 -60.5 -59.5s-54 -24 -86 -24c-34.667 0 -65 7.66699 -91 23s-47.667 35.166 -65 59.499s-30.5 52 -39.5 83s-13.833 62.5 -14.5 94.5
c-41.333 -24.667 -75.5 -57 -102.5 -97s-45.5 -83 -55.5 -129s-11.333 -92.167 -4 -138.5s24.833 -88.333 52.5 -126s65.5 -68.334 113.5 -92.001s107.667 -35.5 179 -35.5c29.333 0 62.5 6 99.5 18s74.5 33.833 112.5 65.5s74.833 74.5 110.5 128.5s67.167 123 94.5 207
l142 443zM311 579.996c-2 -30 -0.165039 -60.332 5.50195 -90.999s15.167 -58.334 28.5 -83.001s30.333 -44.667 51 -60s45.334 -23 74.001 -23c28 0 53 6.83301 75 20.5s39.333 30.667 52 51s19.667 42.5 21 66.5s-4.33398 46.167 -17.001 66.5s-33.334 37.333 -62.001 51
s-67 20.5 -115 20.5c-20.667 0 -40.334 -1.66699 -59.001 -5s-36.667 -8 -54 -14zM1066 421.997c13.333 0 26.6689 0.5 40.002 1.5s26.666 2.83301 39.999 5.5c-13.333 20.667 -26.5 36.667 -39.5 48s-26.167 17 -39.5 17c-16.667 0 -29 -3.83301 -37 -11.5s-12 -16 -12 -25
s4.16699 -17.167 12.5 -24.5s20.166 -11 35.499 -11z" />
    <glyph glyph-name="S" unicode="S" horiz-adv-x="973" 
d="M1033 1032c0 -32 -8.33496 -64.8389 -25.002 -98.5059s-40.167 -64.167 -70.5 -91.5s-66.333 -49.666 -108 -66.999s-87.5 -26 -137.5 -26c24 -30.667 50.167 -61 78.5 -91s54.5 -61.667 78.5 -95s44.167 -69.333 60.5 -108s24.5 -82 24.5 -130
c0 -43.333 -8.66699 -84.5 -26 -123.5s-41.5 -74 -72.5 -105s-68 -56.833 -111 -77.5s-89.833 -34.334 -140.5 -41.001c-30 -40.667 -65.333 -78.667 -106 -114s-85.334 -66.166 -134.001 -92.499s-100.5 -47 -155.5 -62s-112.167 -22.5 -171.5 -22.5
c-10 0 -17.333 2.66699 -22 8s-7 11.333 -7 18s2.33301 12.667 7 18s11.334 8 20.001 8c8 0 14.333 -1.66699 19 -5s10 -6.66602 16 -9.99902s14 -6 24 -8s24.667 -2 44 0c46 5.33301 90 15.666 132 30.999s81.833 34.5 119.5 57.5s72.334 49 104.001 78
s60.167 59.833 85.5 92.5c-7.33301 -0.666992 -14.5 -1.16699 -21.5 -1.5s-14.167 -0.5 -21.5 -0.5c-66 0 -124.667 10.833 -176 32.5s-94.666 49.334 -129.999 83.001s-62.166 71.334 -80.499 113.001s-27.5 82.5 -27.5 122.5c0 39.333 6.66699 77 20 113
s32.333 67.5 57 94.5s54.834 48.5 90.501 64.5s75.834 24 120.501 24c33.333 0 67.833 -6.66699 103.5 -20s68.167 -34.166 97.5 -62.499s53.5 -64.333 72.5 -108s28.5 -95.834 28.5 -156.501c0 -46 -8.16699 -92.333 -24.5 -139s-39.5 -92 -69.5 -136
c30.667 5.33301 62.334 14.5 95.001 27.5s62.5 31.833 89.5 56.5s49.333 56.334 67 95.001s26.5 86.334 26.5 143.001c0 32.667 -4.16699 62.834 -12.5 90.501s-19.5 53.834 -33.5 78.501s-30 48.167 -48 70.5s-36.5 44.166 -55.5 65.499l-56.5 64
c-18.667 21.333 -35.667 43.333 -51 66c-34.667 6 -66.667 15.167 -96 27.5s-52.333 26.166 -69 41.499c-6.66699 6 -9.33398 12.333 -8.00098 19s4.5 12.167 9.5 16.5s10.833 6.5 17.5 6.5s12.334 -4 17.001 -12c13.333 -22 30.666 -39.167 51.999 -51.5
s42.666 -21.5 63.999 -27.5c-14.667 24 -26.334 49.167 -35.001 75.5s-13 55.166 -13 86.499c0 38.667 9.33301 73.834 28 105.501s42.5 58.667 71.5 81s61.167 39.5 96.5 51.5s69.333 18 102 18c26.667 0 51 -4.33301 73 -13s40.667 -20.5 56 -35.5
s27.166 -32.167 35.499 -51.5s12.5 -39.666 12.5 -60.999zM515.998 -9.00586c16.667 0 36 1 58 3c31.333 44.667 55.5 90.5 72.5 137.5s25.5 93.167 25.5 138.5c0 40 -6.16699 79.833 -18.5 119.5s-30.5 75.167 -54.5 106.5s-53.5 56.833 -88.5 76.5s-75.5 29.5 -121.5 29.5
c-45.333 0 -84 -8.83301 -116 -26.5s-57.667 -40.667 -77 -69s-32.333 -60.833 -39 -97.5s-7.16699 -74.167 -1.5 -112.5s17.5 -75.833 35.5 -112.5s42 -69.167 72 -97.5s66.167 -51.333 108.5 -69s90.5 -26.5 144.5 -26.5zM679.998 763.994
c50 -2 95.498 5.33301 136.498 22s75.833 38.167 104.5 64.5s50.834 55.5 66.501 87.5s23.5 62.667 23.5 92c0 20 -3.5 38.5 -10.5 55.5s-17 31.667 -30 44s-29.167 22.166 -48.5 29.499s-41.333 11 -66 11c-32 0 -62.667 -5.5 -92 -16.5s-55.166 -26.667 -77.499 -47
s-40.333 -44.5 -54 -72.5s-20.5 -59 -20.5 -93s6.33301 -65.167 19 -93.5s29 -56.166 49 -83.499z" />
    <glyph glyph-name="T" unicode="T" horiz-adv-x="636" 
d="M1341 1069c2 -5.33301 3.00098 -14.6689 3.00098 -28.002s-3.16699 -28.666 -9.5 -45.999s-16.166 -35.333 -29.499 -54s-32 -35.667 -56 -51s-54 -28 -90 -38s-79.333 -15 -130 -15c-33.333 0 -64.666 3 -93.999 9s-57.666 14 -84.999 24s-53.833 21.667 -79.5 35
s-50.834 27.666 -75.501 42.999l-48 -153l-49.5 -161.5l-47 -156l-40.5 -136.5c-20 -66 -41.5 -121.333 -64.5 -166s-47 -80.667 -72 -108s-51 -46.833 -78 -58.5s-54.167 -17.5 -81.5 -17.5c-28 0 -54.167 4.16699 -78.5 12.5s-45.166 19.166 -62.499 32.499
c-8 6 -12 12.333 -12 19s2.16699 12.334 6.5 17.001s10 7.33398 17 8.00098s13.5 -2.33301 19.5 -9s11.5 -13.834 16.5 -21.501s11.5 -14.667 19.5 -21s18 -11.666 30 -15.999s28 -6.5 48 -6.5c24.667 0 47.334 6.5 68.001 19.5s39.834 31 57.501 54s33.667 50.333 48 82
s27.5 66.5 39.5 104.5l18 58.5l34 109l43 139l46 150l43.5 141l34.5 112.5l-95.5 58c-32.333 19.333 -66 36.5 -101 51.5s-72.167 27.167 -111.5 36.5s-82 14 -128 14c-66 0 -121.667 -12.5 -167 -37.5s-80 -56.333 -104 -94s-37 -78.5 -39 -122.5s7.5 -84.833 28.5 -122.5
s53.667 -69 98 -94s100.5 -37.5 168.5 -37.5c11.333 0 27.666 0.333008 48.999 1s43.5 4.5 66.5 11.5s45.167 18.5 66.5 34.5s38 39 50 69c3.33301 8.66699 8.16602 14 14.499 16s12.166 1.83301 17.499 -0.5s9 -6.5 11 -12.5s0.666992 -12.667 -4 -20
c-15.333 -22 -33.166 -40.5 -53.499 -55.5s-42.166 -27 -65.499 -36s-48 -15.333 -74 -19s-52.333 -5.5 -79 -5.5c-62 0 -115 7.83301 -159 23.5s-80 36.334 -108 62.001s-47.833 55 -59.5 88s-16 66.5 -13 100.5s13 67.5 30 100.5s40.5 62.333 70.5 88
s66.333 46.334 109 62.001s91 23.5 145 23.5c46 0 89.167 -4.5 129.5 -13.5s78.666 -21 114.999 -36s71 -32 104 -51s65.167 -38.5 96.5 -58.5l9.5 32.5c2.33301 8.33301 3.83301 13.166 4.5 14.499c3.33301 13.333 10.5 26.333 21.5 39s23.167 21.667 36.5 27
c5.33301 2 9.16602 2.16699 11.499 0.5s3.66602 -4 3.99902 -7s0.166016 -6.33301 -0.500977 -10s-1.33398 -6.16699 -2.00098 -7.5c-6.66699 -16.667 -13.167 -34.834 -19.5 -54.501l-20.5 -61.5l78 -46c26 -14.667 52.5 -27.5 79.5 -38.5s54.667 -19.833 83 -26.5
s57.833 -10 88.5 -10c55.333 0 101.833 7.16699 139.5 21.5s67.167 32 88.5 53s35 43.333 41 67s5 44.834 -3 63.501c-2 6 -1.66699 11.667 1 17s6.5 9 11.5 11s10.333 2 16 0s10.5 -7.33301 14.5 -16z" />
    <glyph glyph-name="U" unicode="U" horiz-adv-x="876" 
d="M860 509c11.333 0 16.6729 -1.49609 16.0059 -4.49609s-1.66699 -4.83301 -3 -5.5c-10.667 -7.33301 -20.667 -18 -30 -32s-19 -32.333 -29 -55s-21 -50.667 -33 -84l-42 -120c-6 -16 -12.333 -34.167 -19 -54.5s-11.334 -39.5 -14.001 -57.5
s-1.83398 -33.167 2.49902 -45.5s14.5 -18.5 30.5 -18.5c10.667 0 20.667 2.5 30 7.5s18 11.167 26 18.5s15.167 15.666 21.5 24.999s12.166 18.666 17.499 27.999c1.33301 2 3.16602 2.66699 5.49902 2s2.83301 -2.66699 1.5 -6c-5.33301 -14 -12.333 -27.667 -21 -41
s-19 -25.333 -31 -36s-25 -19.334 -39 -26.001s-29 -10 -45 -10c-38.667 0 -60 19.5 -64 58.5s12.333 98.833 49 179.5h-3c-12 -19.333 -28 -42.5 -48 -69.5s-43.5 -53.167 -70.5 -78.5s-57.333 -46.833 -91 -64.5s-70.834 -26.5 -111.501 -26.5
c-46 0 -77.667 8.33301 -95 25s-25.5 38.667 -24.5 66s8.33301 58.166 22 92.499s28.5 69.166 44.5 104.499l49 109.5c18.667 42.333 37.167 87.5 55.5 135.5s35.5 97.5 51.5 148.5s28.167 100.833 36.5 149.5s11.833 94.667 10.5 138s-9.83301 81.333 -25.5 114
s-40 58.5 -73 77.5s-76.833 28.5 -131.5 28.5c-50 0 -95.833 -9.33301 -137.5 -28s-78.5 -43.667 -110.5 -75s-58.5 -67.333 -79.5 -108s-36 -83 -45 -127s-11.333 -87.667 -7 -131s16 -83.5 35 -120.5s45.667 -69.333 80 -97s77.5 -47.167 129.5 -58.5
c18 -4 32 -5.16699 42 -3.5s17.833 4.5 23.5 8.5s10.334 8.16699 14.001 12.5s8.5 7.16602 14.5 8.49902c6.66699 1.33301 12.167 1 16.5 -1s7.33301 -5 9 -9s2 -8.33301 1 -13s-3.83301 -9 -8.5 -13c-8.66699 -6.66699 -24.834 -11.167 -48.501 -13.5
s-50.667 -0.666016 -81 5.00098s-62 16.167 -95 31.5s-62.833 37.5 -89.5 66.5s-48.334 65.667 -65.001 110s-23.667 98.5 -21 162.5c2 49.333 13.5 98.5 34.5 147.5s50 93.167 87 132.5s80.833 71.166 131.5 95.499s106.667 36.5 168 36.5
c60.667 0 112.667 -13.333 156 -40s75 -66.5 95 -119.5s26.5 -119.333 19.5 -199s-29.833 -172.5 -68.5 -278.5c-18.667 -51.333 -38.334 -100.666 -59.001 -147.999l-57.5 -132c-17.667 -40.667 -32.5 -77.667 -44.5 -111s-18.667 -61.666 -20 -84.999s4 -41.5 16 -54.5
s33.333 -19.5 64 -19.5c26 0 52 6 78 18s51 28 75 48s46.833 43 68.5 69s41.667 52.667 60 80s34.333 54.5 48 81.5s24.834 51.833 33.501 74.5c17.333 46 35.5 78.167 54.5 96.5s38.167 27.5 57.5 27.5z" />
    <glyph glyph-name="V" unicode="V" horiz-adv-x="686" 
d="M1410 1235c22.667 0 38.834 -3.33203 48.501 -9.99902s14.834 -13.834 15.501 -21.501s-2.16602 -14.834 -8.49902 -21.501s-14.5 -10 -24.5 -10c-8.66699 0 -16.834 2 -24.501 6s-16.334 8 -26.001 12s-21.167 6.83301 -34.5 8.5s-29.666 -0.166016 -48.999 -5.49902
c-49.333 -13.333 -107.833 -43.666 -175.5 -90.999s-140.5 -116.333 -218.5 -207s-159 -205.5 -243 -344.5s-167.333 -306.833 -250 -503.5c-5.33301 -12.667 -11.333 -24.167 -18 -34.5s-15.667 -16.166 -27 -17.499c-7.33301 -0.666992 -12.166 2.66602 -14.499 9.99902
s-4.16602 14.333 -5.49902 21c-13.333 59.333 -21.333 122 -24 188s-0.666992 132.167 6 198.5s17.167 131.333 31.5 195s31.5 123.167 51.5 178.5s42.167 105 66.5 149s49.833 79.333 76.5 106c3.33301 2.66699 5.66602 5.33398 6.99902 8.00098s-2 3.33398 -10 2.00098
c-40.667 -6 -81.5 -4.66699 -122.5 4s-82 19.167 -123 31.5l-122.5 35.5c-40.667 11.333 -81 17 -121 17c-54 0 -100 -10.833 -138 -32.5s-68.167 -49.167 -90.5 -82.5s-36.666 -70.333 -42.999 -111s-5.33301 -80 3 -118s24.166 -72.167 47.499 -102.5
s54 -52.166 92 -65.499c7.33301 -2.66699 11.166 -5.83398 11.499 -9.50098s-1.16699 -6.16699 -4.5 -7.5c-8.66699 -4.66699 -19.5 -5.66699 -32.5 -3s-23.5 5.66699 -31.5 9c-41.333 19.333 -72.833 46 -94.5 80s-34.5 70.833 -38.5 110.5s0.5 80.167 13.5 121.5
s33.167 78.666 60.5 111.999s61.833 60.666 103.5 81.999s89.167 32 142.5 32c39.333 0 76.666 -4.33301 111.999 -13s69.5 -18.167 102.5 -28.5s65.5 -19.833 97.5 -28.5s64.333 -13 97 -13c19.333 0 36.5 1.33301 51.5 4s28.167 5.66699 39.5 9s21.333 7 30 11l22 10
c11.333 5.33301 20.166 4.66602 26.499 -2.00098s5.16602 -14.667 -3.50098 -24c-44.667 -48.667 -82.5 -103 -113.5 -163s-56.333 -121.667 -76 -185s-34.667 -126.333 -45 -189s-17.333 -120.667 -21 -174s-4.5 -100 -2.5 -140s5 -69 9 -87
c3.33301 -12 5.83301 -20.333 7.5 -25s4.16699 -7 7.5 -7c2.66699 0 5.33398 1.16699 8.00098 3.5s6.66699 9.16602 12 20.499c75.333 168 149.5 312 222.5 432s142.833 220.833 209.5 302.5s129.5 146.667 188.5 195s112 85.333 159 111s87.333 42.334 121 50.001
s59.167 11.5 76.5 11.5z" />
    <glyph glyph-name="W" unicode="W" horiz-adv-x="1049" 
d="M1763 1238c28 0 48.8301 -3.82324 62.4971 -11.4902s22 -16.334 25 -26.001s1.66699 -18.334 -4 -26.001s-13.834 -11.5 -24.501 -11.5c-7.33301 0 -14.333 2 -21 6l-21.5 13.5c-7.66699 5 -16.334 9.66699 -26.001 14s-21.5 6.66602 -35.5 6.99902
s-30.333 -2.33398 -49 -8.00098s-41 -15.5 -67 -29.5c-47.333 -26.667 -94.333 -60.167 -141 -100.5s-92.167 -85.166 -136.5 -134.499s-87 -102 -128 -158s-79.833 -112.667 -116.5 -170s-70.667 -114 -102 -170s-59.333 -109 -84 -159s-45.5 -95.5 -62.5 -136.5
s-29.833 -74.833 -38.5 -101.5c-0.666992 -2 -2.16699 -5.16699 -4.5 -9.5s-5.16602 -8.5 -8.49902 -12.5s-7.16602 -7.66699 -11.499 -11s-9.16602 -5 -14.499 -5c-10.667 0 -17 5.33301 -19 16c-7.33301 44.667 -12.166 91.667 -14.499 141
s-2.66602 99.166 -0.999023 149.499s5 100.833 10 151.5s11.5 100 19.5 148c-32 -40 -63.667 -83.667 -95 -131s-60.666 -96 -87.999 -146s-51.833 -99.667 -73.5 -149s-38.834 -96 -51.501 -140c-4.66699 -13.333 -8.33398 -22.666 -11.001 -27.999
s-8 -9.66602 -16 -12.999c-16 -5.33301 -25 -2 -27 10c-13.333 72.667 -21 144.667 -23 216s0 141.333 6 210c-38.667 -16.667 -76.667 -26.834 -114 -30.501s-72.666 -2.16699 -105.999 4.5s-64.166 18 -92.499 34s-52.833 35.5 -73.5 58.5s-36.834 48.667 -48.501 77
s-17.5 58.166 -17.5 89.499c0 51.333 10.833 94 32.5 128s50.834 62.667 87.501 86s79.334 43.333 128.001 60l154 50.5c54 17 109.167 36 165.5 57s110.5 47.833 162.5 80.5c10 6 18.5 9.5 25.5 10.5s12.333 0.166992 16 -2.5s5.16699 -6.5 4.5 -11.5
s-3.66699 -10.167 -9 -15.5c-42 -42 -77.667 -88.5 -107 -139.5s-54 -104 -74 -159s-35.667 -110.333 -47 -166s-19.666 -109.167 -24.999 -160.5c20.667 14.667 38.167 31.167 52.5 49.5s24.166 38.166 29.499 59.499c2 9.33301 5.66699 15.166 11 17.499
s10.5 2.5 15.5 0.5s8.83301 -5.66699 11.5 -11s2 -11.333 -2 -18c-13.333 -23.333 -30.5 -45 -51.5 -65s-44.167 -37.667 -69.5 -53c-4 -43.333 -6.66699 -83.666 -8 -120.999s-1.83301 -70.166 -1.5 -98.499s1.16602 -51.166 2.49902 -68.499s2 -27.666 2 -30.999
c1.33301 -14 3.16602 -22.833 5.49902 -26.5s5.16602 -5.83398 8.49902 -6.50098c3.33301 0 5.83301 1 7.5 3s3.83398 5.66699 6.50098 11c25.333 62.667 51 119.5 77 170.5s51.833 97.167 77.5 138.5s51 78.666 76 111.999l72.5 93c8.66699 50 18.334 96.667 29.001 140
s22 83 34 119c14.667 43.333 33.667 77.333 57 102s45 39.167 65 43.5s35 -1.83398 45 -18.501s9 -45 -3 -85c-6 -22 -14.667 -43.333 -26 -64s-24.5 -41.667 -39.5 -63s-31.833 -43.333 -50.5 -66l-60 -73c-12 -58.667 -21 -114.834 -27 -168.501
s-10 -103.834 -12 -150.501s-2 -89.167 0 -127.5s5 -71.5 9 -99.5c2 -10.667 5.66699 -16.334 11 -17.001c4 0 7.16699 2 9.5 6s3.83301 6.33301 4.5 7c67.333 146.667 134.166 276 200.499 388s130.833 209.333 193.5 292s122.667 151.667 180 207
s110.5 99.666 159.5 132.999s92.833 57.166 131.5 71.499s71 21.5 97 21.5zM-40.0029 671.01c0 -51.333 11.832 -96.3301 35.499 -134.997s54.834 -68.334 93.501 -89.001s82.667 -31.334 132 -32.001s99.666 11.333 150.999 36c12.667 117.333 35.667 226.666 69 327.999
s73 188.666 119 261.999c2 3.33301 2.16699 6.5 0.5 9.5s-5.16699 3.5 -10.5 1.5c-33.333 -13.333 -75.833 -28.666 -127.5 -45.999l-168.5 -54c-41.333 -12 -79.833 -25.167 -115.5 -39.5s-66.667 -32 -93 -53s-47.166 -46.667 -62.499 -77s-23 -67.5 -23 -111.5z
M871.996 915.013c-12 -34.667 -22.834 -68.8359 -32.501 -102.503s-18.167 -67.167 -25.5 -100.5c32.667 38.667 61.667 75.834 87 111.501s46 75.167 62 118.5c8.66699 24.667 11.167 44.334 7.5 59.001s-10.667 21.834 -21 21.501s-22.666 -9 -36.999 -26
s-27.833 -44.167 -40.5 -81.5z" />
    <glyph glyph-name="X" unicode="X" horiz-adv-x="1640" 
d="M2260 1113c22 0 38.4941 -2.66504 49.4941 -7.99805s17.667 -11 20 -17s1.5 -11.667 -2.5 -17s-9.33301 -8 -16 -8c-8 0 -14.333 1.33301 -19 4l-15 9c-5.33301 3.33301 -12.666 6.33301 -21.999 9s-23 4 -41 4c-58 0 -119.167 -14 -183.5 -42s-131 -65.5 -200 -112.5
s-140.167 -101.167 -213.5 -162.5l-224 -193l9.5 -119l8 -104.5l6 -78c1.66699 -21 2.83398 -33.833 3.50098 -38.5c3.33301 -25.333 6.33301 -50.166 9 -74.499s6.66699 -46.166 12 -65.499s12.5 -35 21.5 -47s21.167 -18 36.5 -18c10 0 19.5 2.5 28.5 7.5
s17.333 11.167 25 18.5s14.834 15.666 21.501 24.999s12.334 18.666 17.001 27.999c1.33301 2.66699 3.16602 3.5 5.49902 2.5s2.83301 -3.16699 1.5 -6.5c-4.66699 -14 -11.167 -27.667 -19.5 -41s-18.166 -25.333 -29.499 -36s-24 -19.334 -38 -26.001s-29 -10 -45 -10
c-19.333 0 -34.666 5.16699 -45.999 15.5s-20.333 25.5 -27 45.5s-11.834 44.833 -15.501 74.5s-7.5 64.167 -11.5 103.5l-11 141c-4 52 -8.33301 104.667 -13 158l-184 -162.5l-185.5 -156c-61.667 -49.667 -123.334 -96 -185.001 -139s-122.834 -80.333 -183.501 -112
s-120.334 -56.5 -179.001 -74.5s-116.334 -27 -173.001 -27c-45.333 0 -84.833 8.66699 -118.5 26s-59.834 40.166 -78.501 68.499s-29 60.333 -31 96s5.83301 72 23.5 109s45.834 72.833 84.501 107.5s89.334 65.334 152.001 92.001c10.667 4.66699 19.167 5.66699 25.5 3
s10.833 -6.83398 13.5 -12.501s3 -11.5 1 -17.5s-6.33301 -10 -13 -12c-8 -2.66699 -15.667 -3.83398 -23 -3.50098l-23 1c-8 0.333008 -16.833 -0.333984 -26.5 -2.00098s-20.834 -6.16699 -33.501 -13.5c-38.667 -22 -70.334 -47.833 -95.001 -77.5s-42 -60.167 -52 -91.5
s-13.333 -62.166 -10 -92.499s13.333 -57.5 30 -81.5s39.834 -43.333 69.501 -58s65.5 -22 107.5 -22c54 0 109.333 9.66699 166 29s114.5 45.666 173.5 78.999s119 72.5 180 117.5s122.667 93.5 185 145.5l188.5 162.5l190 167.5c-4 35.333 -7 74.833 -9 118.5
s-5.66699 88.167 -11 133.5s-13.833 89.333 -25.5 132s-29.334 80.667 -53.001 114s-54.5 60.166 -92.5 80.499s-86 30.5 -144 30.5c-64.667 0 -121.5 -10.167 -170.5 -30.5s-90.5 -47.166 -124.5 -80.499s-60.667 -71.166 -80 -113.499s-31.666 -85.833 -36.999 -130.5
s-3.66602 -88.167 5.00098 -130.5s24 -80.166 46 -113.499s50.5 -60.166 85.5 -80.499s76.5 -30.5 124.5 -30.5c52.667 0 98.334 10.333 137.001 31s65.667 52 81 94c3.33301 9.33301 8 15.333 14 18s11.833 3 17.5 1s9.83398 -5.83301 12.501 -11.5
s2.33398 -12.167 -0.999023 -19.5c-6.66699 -14 -17.667 -28.667 -33 -44s-34.333 -29.333 -57 -42s-48.5 -23.167 -77.5 -31.5s-60.5 -12.5 -94.5 -12.5c-60 0 -111 10.667 -153 32s-75.5 49.5 -100.5 84.5s-41.5 74.667 -49.5 119s-8.16699 89.833 -0.5 136.5
s23.334 92.167 47.001 136.5s54.667 84 93 119s84 63.167 137 84.5s113.167 32 180.5 32c64 0 118.333 -9 163 -27s81.5 -43.333 110.5 -76s51 -71.667 66 -117s24.5 -95.333 28.5 -150c2.66699 -30 5.33398 -63.167 8.00098 -99.5l8 -111.5l224 185
c74.667 58.667 148.5 110.167 221.5 154.5s145.167 79.666 216.5 105.999s141 39.5 209 39.5z" />
    <glyph glyph-name="Y" unicode="Y" horiz-adv-x="1067" 
d="M863 -55c78 2.66699 145.838 -0.320312 203.505 -8.9873s105.667 -21.334 144 -38.001s66.833 -36.334 85.5 -59.001s28 -46.334 28 -71.001c0 -16.667 -3.16699 -31.334 -9.5 -44.001s-14 -23.5 -23 -32.5s-18.167 -16.333 -27.5 -22s-17.333 -9.83398 -24 -12.501
c-12.667 -4.66699 -21.334 -6 -26.001 -4s-3.33398 4 3.99902 6c6 2 12.667 5.16699 20 9.5s14.333 10.5 21 18.5s12.167 17.833 16.5 29.5s6.5 25.5 6.5 41.5c0 28.667 -10 54 -30 76s-48.5 40.167 -85.5 54.5s-81.833 24.833 -134.5 31.5s-111.334 9 -176.001 7
c-40 -94.667 -81.167 -172.334 -123.5 -233.001s-85.666 -108.667 -129.999 -144s-89.833 -59.833 -136.5 -73.5s-94.334 -20.5 -143.001 -20.5c-29.333 0 -56.833 3.5 -82.5 10.5s-48 16.667 -67 29s-34 27.166 -45 44.499s-16.5 36.666 -16.5 57.999
c0 34 9.83301 65.667 29.5 95s46.667 56.166 81 80.499s74.333 46.166 120 65.499s94.667 36 147 50s106.333 25.5 162 34.5s110.5 15.167 164.5 18.5c18.667 49.333 35.667 98.5 51 147.5l43 142.5h-2c-12 -19.333 -27.333 -42.5 -46 -69.5s-41 -53.167 -67 -78.5
s-55.667 -46.833 -89 -64.5s-70.333 -26.5 -111 -26.5c-46 0 -78 8.33301 -96 25s-27 38.667 -27 66s6.33301 58.166 19 92.499s26.334 69.166 41.001 104.499l44.5 109.5c17 42.333 34 87.5 51 135.5s32.5 97.5 46.5 148.5s24.333 100.833 31 149.5s8.66699 94.667 6 138
s-12.5 81.333 -29.5 114s-42.333 58.5 -76 77.5s-77.834 28.5 -132.501 28.5c-50 0 -95.5 -9.33301 -136.5 -28s-77 -43.667 -108 -75s-56.333 -67.333 -76 -108s-33.167 -83 -40.5 -127s-8.16602 -87.667 -2.49902 -131s18.667 -83.5 39 -120.5s48.333 -69.333 84 -97
s79.5 -47.167 131.5 -58.5c18 -4 32 -5.16699 42 -3.5s17.833 4.5 23.5 8.5s10.334 8.16699 14.001 12.5s8.16699 7.16602 13.5 8.49902c6.66699 1.33301 12.334 1 17.001 -1s7.83398 -5 9.50098 -9s2 -8.33301 1 -13s-3.83301 -9 -8.5 -13
c-8 -6.66699 -23.833 -11.167 -47.5 -13.5s-50.667 -0.666016 -81 5.00098s-62.166 16.167 -95.499 31.5s-64 37.5 -92 66.5s-51 65.667 -69 110s-27 98.5 -27 162.5c0 49.333 9.66699 98.5 29 147.5s46.666 93.167 81.999 132.5s78.166 71.166 128.499 95.499
s106.166 36.5 167.499 36.5c60.667 0 113.167 -13.333 157.5 -40s77.333 -66.5 99 -119.5s30.5 -119.333 26.5 -199s-23.667 -172.834 -59 -279.501c-17.333 -51.333 -35.5 -100.5 -54.5 -147.5l-52.5 -131.5c-16 -40.667 -29.5 -77.667 -40.5 -111
s-16.667 -61.666 -17 -84.999s5.66699 -41.5 18 -54.5s33.833 -19.5 64.5 -19.5c39.333 0 77.5 13 114.5 39s71.167 58 102.5 96s58.5 78.333 81.5 121s40.167 81 51.5 115c15.333 46 32.333 78.167 51 96.5s37.667 27.5 57 27.5c5.33301 0 9.16602 -0.5 11.499 -1.5
s3.66602 -2.16699 3.99902 -3.5s0.166016 -2.5 -0.500977 -3.5s-1.33398 -1.83301 -2.00098 -2.5c-12 -7.33301 -22.667 -17.333 -32 -30s-18.833 -30.167 -28.5 -52.5s-20.167 -50.5 -31.5 -84.5s-24.333 -76.333 -39 -127c-28.667 -96.667 -58.667 -183 -90 -259z
M360.005 -521.987c57.333 0 108.668 12.167 154.001 36.5s86.166 57 122.499 98s68.5 88.5 96.5 142.5s53.333 110.333 76 169c-91.333 -5.33301 -176.333 -17.5 -255 -36.5s-147 -42.833 -205 -71.5s-103.5 -61 -136.5 -97s-49.5 -73.667 -49.5 -113
c0 -36.667 17.167 -67.167 51.5 -91.5s82.833 -36.5 145.5 -36.5z" />
    <glyph glyph-name="Z" unicode="Z" horiz-adv-x="1325" 
d="M2537 -145c54.667 0 98.167 -10.0049 130.5 -30.0049s53.5 -45 63.5 -75s8.83301 -62.5 -3.5 -97.5s-35.666 -67.5 -70 -97.5c-34.333 -30 -79.333 -55 -135 -75s-122.167 -30 -199.5 -30c-83.333 0 -171.666 11 -264.999 33s-189 50.833 -287 86.5
s-197.167 75.667 -297.5 120l-296 134l-283 128.5c-91.667 40.667 -177.834 75.334 -258.501 104.001c-64.667 -48 -128 -86 -190 -114s-122.333 -42 -181 -42c-52.667 0 -95.334 6 -128.001 18s-55.5 26.833 -68.5 44.5s-17 36.834 -12 57.501s18.667 39.834 41 57.501
s52.833 32.5 91.5 44.5s85 18 139 18c48 0 98 -4.16699 150 -12.5s105.667 -20.166 161 -35.499c51.333 40 103 83.833 155 131.5l157 150.5c-91.333 -0.666992 -170.166 9.83301 -236.499 31.5s-120.666 50.667 -162.999 87s-73.333 77.666 -93 123.999
s-29 93.833 -28 142.5s11.833 96.334 32.5 143.001s50.334 88.334 89.001 125.001s85.667 66.167 141 88.5s118 33.5 188 33.5c42.667 0 88.334 -2.83301 137.001 -8.5l149.5 -18c51 -6.33301 102.5 -12 154.5 -17s103.167 -6.83301 153.5 -5.5s99 7 146 17
s91.167 26.667 132.5 50c13.333 8 24.5 11.5 33.5 10.5s15.5 -4 19.5 -9s5.5 -10.833 4.5 -17.5s-4.83301 -11.334 -11.5 -14.001c-57.333 -27.333 -117.333 -67.333 -180 -120s-127.334 -112.5 -194.001 -179.5l-204.5 -214.5l-210.5 -224c33.333 4.66699 67 12 101 22
s66.167 22.667 96.5 38s57.666 33.5 81.999 54.5s43.5 44.5 57.5 70.5c8 14.667 17.667 22.667 29 24s20.833 -1.33398 28.5 -8.00098s11.834 -15.834 12.501 -27.501s-6 -23.167 -20 -34.5c-56.667 -46 -120.334 -83 -191.001 -111s-143.334 -45 -218.001 -51
l-159.5 -156.5c-53 -49.667 -105.5 -95.167 -157.5 -136.5c70 -20 141.5 -44.167 214.5 -72.5s146.833 -58.833 221.5 -91.5l224.5 -101l222 -102l215 -94.5c70.333 -29.667 138 -55.834 203 -78.501s127 -40.5 186 -53.5s113.833 -19.5 164.5 -19.5
c68 0 126.333 8.83301 175 26.5s87.5 39.834 116.5 66.501s48.167 55.334 57.5 86.001s8.83301 59.334 -1.5 86.001s-30.666 48.834 -61 66.501c-30.333 17.667 -70.5 26.5 -120.5 26.5c-27.333 0 -53 -1.83301 -77 -5.5s-46.333 -8.5 -67 -14.5s-39.5 -12.5 -56.5 -19.5
s-32.167 -13.833 -45.5 -20.5c-8.66699 -4 -15.5 -8.16699 -20.5 -12.5s-9.33301 -8.33301 -13 -12s-6.83398 -7 -9.5 -10c-2.66699 -3 -5.66699 -5.83301 -9 -8.5c-6 -4 -11.5 -5.5 -16.5 -4.5s-8.66699 3.33301 -11 7s-2.83301 8 -1.5 13s5.66602 9.83301 13 14.5
c4.66699 2.66699 18.167 9.5 40.5 20.5s50 22.333 83 34s70.167 22.167 111.5 31.5s83.666 14 127 14zM880 1125c-66 0 -123.671 -11 -173.004 -33s-90.166 -50.833 -122.499 -86.5s-56 -76.167 -71 -121.5s-21.167 -91.333 -18.5 -138s14.334 -92.167 35.001 -136.5
s50.667 -83.166 90 -116.499s88.166 -59.166 146.499 -77.499s126.5 -25.166 204.5 -20.499l142.5 148.5l138 147.5l130 138l119 120.5c37.667 36.333 72.834 67.833 105.501 94.5s62.334 46.667 89.001 60c2 1.33301 2.5 2.66602 1.5 3.99902s-2.83301 1.33301 -5.5 0
c-33.333 -14 -71 -23.333 -113 -28s-86.5 -6.33398 -133.5 -5.00098s-95.333 4.66602 -145 9.99902s-99 11 -148 17s-96.667 11.333 -143 16s-89.166 7 -128.499 7zM263.996 -81.0049c50.667 0 104.665 13.168 161.998 39.501s117 62.166 179 107.499
c-52 17.333 -101.167 31 -147.5 41s-89.166 15 -128.499 15c-45.333 0 -83.666 -5 -114.999 -15s-55.5 -22.5 -72.5 -37.5s-27.167 -31.333 -30.5 -49s0.166992 -34 10.5 -49s27.333 -27.5 51 -37.5s54.167 -15 91.5 -15z" />
    <glyph glyph-name="bracketleft" unicode="[" horiz-adv-x="553" 
d="M836 1180c32.667 0 57.334 -4.16699 74.001 -12.5s22.667 -18.166 18 -29.499c-3.33301 -8.66699 -9.5 -13.334 -18.5 -14.001s-17.167 0.666016 -24.5 3.99902c-19.333 8.66699 -40.5 16 -63.5 22s-48.167 6.83301 -75.5 2.5s-56.833 -16.333 -88.5 -36
s-65.167 -51.167 -100.5 -94.5s-72.833 -100.666 -112.5 -171.999s-81.5 -161 -125.5 -269c-48 -118 -84.333 -219.5 -109 -304.5s-41 -157.333 -49 -217s-8.66699 -108.5 -2 -146.5s17.5 -69.167 32.5 -93.5s32.667 -43.5 53 -57.5s40.833 -26.667 61.5 -38
c7.33301 -4 14.166 -9.16699 20.499 -15.5s7.5 -13.833 3.5 -22.5c-5.33301 -11.333 -16.666 -14 -33.999 -8s-37.666 20.333 -60.999 43c-45.333 42.667 -76.333 94.5 -93 155.5s-22 128.667 -16 203s21.667 154 47 239s57.666 172.833 96.999 263.5
c40 92.667 80.167 176 120.5 250s83.166 136.667 128.499 188s94 90.833 146 118.5s109 41.5 171 41.5z" />
    <glyph glyph-name="backslash" unicode="\" horiz-adv-x="317" 
d="M228 -121c5.33301 -48.667 4.16992 -85.002 -3.49707 -109.002s-20.167 -40.667 -37.5 -50c-10 -5.33301 -15.333 -6.5 -16 -3.5s-0.666992 5.16699 0 6.5c6.66699 11.333 11.167 25.166 13.5 41.499s3 36.833 2 61.5s-3.16699 54.334 -6.5 89.001l-12 125
c-0.666992 8.66699 -2.5 26.5 -5.5 53.5l-11.5 99.5l-15 132l-17.5 153l-18.5 161.5l-17.5 157.5l-16 142l-12.5 113c-5.33301 48 -4.33301 84 3 108s19.666 40.667 36.999 50c9.33301 5.33301 14.5 6.5 15.5 3.5s1.16699 -5.16699 0.5 -6.5
c-6.66699 -11.333 -11.167 -25.166 -13.5 -41.499s-3 -36.666 -2 -60.999s3.16699 -54 6.5 -89s7.66602 -76.5 12.999 -124.5l12 -111.5l15.5 -138l17.5 -153l18 -157l17.5 -150.5l15 -133l11.5 -104c3.33301 -29.333 5.66602 -51 6.99902 -65z" />
    <glyph glyph-name="bracketright" unicode="]" horiz-adv-x="566" 
d="M477 1133c45.333 -42.667 76.3359 -94.5 93.0029 -155.5s22 -128.667 16 -203s-21.833 -154.166 -47.5 -239.499s-58.167 -173.333 -97.5 -264c-40 -92.667 -80.167 -175.834 -120.5 -249.501s-83.166 -136.334 -128.499 -188.001s-94 -91.334 -146 -119.001
s-109 -41.5 -171 -41.5c-32.667 0 -57.167 4.33301 -73.5 13s-22.5 18.667 -18.5 30c3.33301 8.66699 9.5 13.334 18.5 14.001s17.5 -0.666016 25.5 -3.99902c18.667 -8.66699 39.667 -16.167 63 -22.5s48.666 -7.16602 75.999 -2.49902s56.666 16.834 87.999 36.501
s64.833 51.167 100.5 94.5s73.334 100.666 113.001 171.999s81.5 161 125.5 269c48 117.333 84.333 218.5 109 303.5s41 157.333 49 217s8.66699 108.667 2 147s-17.5 69.5 -32.5 93.5s-32.833 43.167 -53.5 57.5s-41.334 27.166 -62.001 38.499c-7.33301 4 -14 9 -20 15
s-7 13.333 -3 22c5.33301 11.333 16.666 14 33.999 8s37.666 -20 60.999 -42z" />
    <glyph glyph-name="asciicircum" unicode="^" horiz-adv-x="833" 
d="M611 773l50.501 -84.5l50.5 -84.5h-53l-36.5 57l-38.5 57l-69.5 -57.5l-68.5 -56.5h-30l52 47.5l60 55l50.5 45.5c14.333 12.667 22.166 19.667 23.499 21h9z" />
    <glyph glyph-name="underscore" unicode="_" horiz-adv-x="585" 
d="M99 -47l12 34h412l-13 -34h-411z" />
    <glyph glyph-name="grave" unicode="`" horiz-adv-x="522" 
d="M400 794c-26 -16 -43 -30.999 -51 -44.999s-11.833 -27.333 -11.5 -40s2.66602 -25 6.99902 -37s5.83301 -23.333 4.5 -34c-1.33301 -8.66699 -3.5 -15.5 -6.5 -20.5s-6.66699 -8.83301 -11 -11.5s-8.83301 -4.33398 -13.5 -5.00098s-8.66699 -1 -12 -1
c-2 0 -5.16699 0.666992 -9.5 2s-8.66602 3.33301 -12.999 6s-8 6.33398 -11 11.001s-4.5 10.667 -4.5 18c0 19.333 4.5 37.833 13.5 55.5s20 33.834 33 48.501s26.833 27.5 41.5 38.5s27 19.167 37 24.5c6 3.33301 9.83301 3.16602 11.5 -0.500977
s0.166992 -6.83398 -4.5 -9.50098z" />
    <glyph glyph-name="a" unicode="a" 
d="M337 314c6.66699 -17.333 9.99805 -38.667 9.99805 -64c-0.666992 -27.333 -5.66699 -56 -15 -86s-22.666 -57.5 -39.999 -82.5s-38.333 -45.833 -63 -62.5s-52.334 -25 -83.001 -25c-22.667 0 -41.667 4 -57 12s-27.5 18.5 -36.5 31.5s-15.167 27.333 -18.5 43
s-5 31.167 -5 46.5c0.666992 27.333 5.66699 55.666 15 84.999s21.666 58.333 36.999 87s33.166 55.834 53.499 81.501s41.666 48.334 63.999 68.001s45 35.167 68 46.5s45.167 17 66.5 17c6.66699 0 15.334 -1.16699 26.001 -3.5s21 -7.83301 31 -16.5
s18.5 -21.5 25.5 -38.5s10.167 -39.833 9.5 -68.5h4c16 44 32.833 74.333 50.5 91s35.5 25 53.5 25c11.333 0 17 -1.66699 17 -5c0 -1.33301 -1 -3 -3 -5c-11.333 -7.33301 -21.333 -17.333 -30 -30s-17.667 -30 -27 -52s-19.5 -49.333 -30.5 -82l-39.5 -119
c-6.66699 -19.333 -13.5 -41 -20.5 -65s-10.833 -45.667 -11.5 -65c-0.666992 -13.333 2.16602 -24.5 8.49902 -33.5s15.833 -13.5 28.5 -13.5c10 0 19.5 2.5 28.5 7.5s17.333 11.333 25 19s14.667 16.167 21 25.5s11.833 18.333 16.5 27c1.33301 2.66699 3 4 5 4s3 -1 3 -3
s-0.333008 -3.66699 -1 -5c-4.66699 -13.333 -11.167 -26.833 -19.5 -40.5s-18 -25.834 -29 -36.501s-23.167 -19.334 -36.5 -26.001s-28 -10 -44 -10c-20 0 -35.333 6.33301 -46 19s-15.667 29.667 -15 51c0 16 2.33301 33.833 7 53.5s10.334 40.5 17.001 62.5
s14 44.5 22 67.5l24 68.5c3.33301 10 6 20.667 8 32s3 23 3 35c0 14 -1.16699 27.667 -3.5 41s-6.5 25 -12.5 35s-13.667 18.167 -23 24.5s-20.666 9.5 -33.999 9.5c-19.333 0 -39 -5.66699 -59 -17s-39.167 -26.5 -57.5 -45.5s-35.666 -40.667 -51.999 -65
s-30.666 -49.833 -42.999 -76.5s-22.166 -53.167 -29.499 -79.5s-11 -50.833 -11 -73.5c-0.666992 -30.667 5.83301 -55.667 19.5 -75s36.5 -29 68.5 -29c20.667 0 40.5 6.66699 59.5 20s35.833 30.5 50.5 51.5s26.5 44.333 35.5 70s13.833 50.834 14.5 75.501
c0 10.667 -0.666992 21 -2 31s-4 19.667 -8 29c-1.33301 2.66699 -2 4.66699 -2 6c0 4 1.66699 6 5 6c2.66699 0 5 -2 7 -6z" />
    <glyph glyph-name="b" unicode="b" horiz-adv-x="472" 
d="M977 1408c71.333 9.33301 133.001 6.8291 185.001 -7.50391s93.833 -36 125.5 -65s53 -63.167 64 -102.5s11.333 -79.833 1 -121.5s-31.666 -82.167 -63.999 -121.5s-76.166 -73.5 -131.499 -102.5s-122.166 -50.667 -200.499 -65s-168.833 -16.833 -271.5 -7.5
c-67.333 6 -126.666 14.833 -177.999 26.5s-98.666 24.167 -141.999 37.5c-36 -66.667 -71.667 -141.167 -107 -223.5s-70 -174.833 -104 -277.5c17.333 34.667 39 62.5 65 83.5s52.667 35.333 80 43s53.833 8.5 79.5 2.5s46.834 -18.667 63.501 -38s27 -45.666 31 -78.999
s-2 -73.666 -18 -120.999c-13.333 -39.333 -31 -76 -53 -110s-46.167 -63.667 -72.5 -89s-53.333 -45.166 -81 -59.499s-53.834 -21.5 -78.501 -21.5c-36.667 0 -64.834 7.5 -84.501 22.5s-33 35.333 -40 61s-8.5 55.167 -4.5 88.5s11.333 68.666 22 105.999
c33.333 120 72.166 232 116.499 336s91.833 200 142.5 288c-26.667 8 -52.334 15.333 -77.001 22s-49.334 11.834 -74.001 15.501s-49.834 5.5 -75.501 5.5s-52.834 -2.33301 -81.501 -7c-31.333 -6 -58.333 -15.833 -81 -29.5s-40.667 -29.334 -54 -47.001
s-21.5 -36.334 -24.5 -56.001s-0.5 -38.167 7.5 -55.5s22 -32.5 42 -45.5s46.667 -21.833 80 -26.5c24.667 -3.33301 50 -2.33301 76 3s51.333 20.666 76 45.999c6.66699 6.66699 13.334 10 20.001 10s11.834 -2 15.501 -6s4.66699 -9 3 -15s-7.5 -12 -17.5 -18
c-34 -19.333 -68 -31.166 -102 -35.499s-65.333 -3.5 -94 2.5s-53.667 16.5 -75 31.5s-36.333 32.5 -45 52.5c-9.33301 21.333 -10.833 44.166 -4.5 68.499s20 47 41 68s49.167 38.5 84.5 52.5s77.666 21.667 126.999 23c42.667 0.666992 83.667 -3.16602 123 -11.499
s79.666 -18.166 120.999 -29.499c42 70.667 86.5 134.834 133.5 192.501s97.167 107.667 150.5 150s109.833 76.833 169.5 103.5s123.167 44.334 190.5 53.001zM386.001 235.996c19.333 57.333 28.3301 104.498 26.9971 141.498s-9.16602 64.5 -23.499 82.5
s-33.333 27.167 -57 27.5s-48.334 -7.33398 -74.001 -23.001s-50.5 -38.667 -74.5 -69s-43 -67.166 -57 -110.499c-14 -42.667 -24 -81.167 -30 -115.5s-7.66699 -63.666 -5 -87.999s9.66699 -43 21 -56s27.333 -19.5 48 -19.5c18.667 0 38.834 5.83301 60.501 17.5
s42.834 27.834 63.501 48.501s39.834 45 57.501 73s32.167 58.333 43.5 91zM374.998 895.994c110.667 -34 211.831 -54.6709 303.498 -62.0039s173.5 -5.16602 245.5 6.50098s134 31.5 186 59.5s93.5 60.333 124.5 97s51.5 76 61.5 118s9 83.333 -3 124
c-9.33301 32.667 -28.333 60.834 -57 84.501s-63.167 41.334 -103.5 53.001s-84.666 16.334 -132.999 14.001s-97.5 -13.166 -147.5 -32.499c-43.333 -16.667 -85.666 -37.834 -126.999 -63.501s-81.833 -57 -121.5 -94s-78.5 -80.5 -116.5 -130.5s-75.333 -108 -112 -174z
" />
    <glyph glyph-name="c" unicode="c" horiz-adv-x="419" 
d="M329 505c-19.333 0 -38.6729 -5.3291 -58.0059 -15.9961s-38 -24.834 -56 -42.501s-34.833 -38.167 -50.5 -61.5s-29.167 -47.833 -40.5 -73.5s-20.333 -51.834 -27 -78.501s-10 -51.667 -10 -75c0 -18 1.83301 -34.667 5.5 -50s9.66699 -28.833 18 -40.5
s19 -20.667 32 -27s28.833 -9.5 47.5 -9.5c20 0 39 4.16699 57 12.5s34.833 19.333 50.5 33s29.834 29.667 42.501 48s24 37.5 34 57.5c2.66699 5.33301 5.5 7.66602 8.5 6.99902s3.83301 -4 2.5 -10c-5.33301 -15.333 -14.5 -33.833 -27.5 -55.5s-29 -42.167 -48 -61.5
s-40.667 -35.833 -65 -49.5s-49.833 -20.5 -76.5 -20.5c-19.333 0 -37.666 3.16699 -54.999 9.5s-32.333 16 -45 29s-22.667 29.667 -30 50s-11 44.166 -11 71.499c0 25.333 3.83301 52 11.5 80s18.5 55.667 32.5 83s30.5 53.166 49.5 77.499s39.833 45.833 62.5 64.5
s46.667 33.5 72 44.5s51.333 16.5 78 16.5c22 0 41.167 -4.66699 57.5 -14s28.833 -21 37.5 -35s13 -29 13 -45s-5.66699 -31 -17 -45c-9.33301 -11.333 -20.666 -17.5 -33.999 -18.5s-24.666 3.16699 -33.999 12.5c-6 6 -10.167 12.167 -12.5 18.5
s-3.16602 12.5 -2.49902 18.5s2.33398 11.333 5.00098 16s5.66699 8.33398 9 11.001c8 6.66699 13.333 14 16 22s3 15.5 1 22.5s-6.5 12.667 -13.5 17s-16.833 6.5 -29.5 6.5z" />
    <glyph glyph-name="d" unicode="d" horiz-adv-x="554" 
d="M927 963c53.333 4.66699 95.999 -0.991211 127.999 -16.9912s54.333 -37.167 67 -63.5s16.334 -55.5 11.001 -87.5s-18.666 -62 -39.999 -90s-50 -51.333 -86 -70s-78.333 -28 -127 -28c-52 0 -99.5 6.83301 -142.5 20.5s-82.5 32.5 -118.5 56.5
c-19.333 -35.333 -37.5 -72.666 -54.5 -111.999s-33.333 -79.5 -49 -120.5s-30.334 -82.167 -44.001 -123.5l-39.5 -121l-17.5 -54c-6.33301 -20 -10.5 -38.833 -12.5 -56.5s-0.666992 -32.667 4 -45s15.334 -19.166 32.001 -20.499c10 -0.666992 19.667 1.33301 29 6
s17.833 11 25.5 19s14.667 16.667 21 26s11.833 18.666 16.5 27.999c1.33301 2.66699 3.16602 3.5 5.49902 2.5s2.83301 -3.16699 1.5 -6.5c-4 -14 -10.333 -27.833 -19 -41.5s-18.667 -26 -30 -37s-24 -19.833 -38 -26.5s-29 -9.33398 -45 -8.00098
c-24 1.33301 -40.167 9.5 -48.5 24.5s-12.5 32.167 -12.5 51.5s2.5 38.166 7.5 56.499s8.83301 31.5 11.5 39.5h-2c-6 -15.333 -15.833 -33 -29.5 -53s-29.5 -39 -47.5 -57s-37.833 -33.167 -59.5 -45.5s-43.5 -17.833 -65.5 -16.5
c-23.333 1.33301 -42.5 6.16602 -57.5 14.499s-26.833 18.833 -35.5 31.5s-14.834 26.667 -18.501 42s-5.5 30.666 -5.5 45.999c0 26 4.33301 53.5 13 82.5s20.5 57.5 35.5 85.5s32.333 55 52 81s40.334 48.833 62.001 68.5s43.834 35.667 66.501 48s44.667 18.833 66 19.5
c6.66699 0 15.667 -1.16699 27 -3.5s22.166 -8 32.499 -17s19.333 -22 27 -39s11.5 -39.833 11.5 -68.5c19.333 54 41 109.167 65 165.5s51.667 109.5 83 159.5c-48 37.333 -91.5 81.5 -130.5 132.5s-77 103.833 -114 158.5l-114 161.5c-39 53 -82.167 100.667 -129.5 143
s-100.833 76.5 -160.5 102.5s-128.834 39 -207.501 39c-75.333 0 -142.166 -10.167 -200.499 -30.5s-108.166 -47.166 -149.499 -80.499s-74 -71.5 -98 -114.5s-39.667 -87 -47 -132s-6 -89.333 4 -133s28.667 -82.834 56 -117.501s63.166 -63.167 107.499 -85.5
s97.166 -34.833 158.499 -37.5c47.333 -2 89.333 2.5 126 13.5s68.167 25.5 94.5 43.5s47.5 38.167 63.5 60.5s27.333 44.166 34 65.499c2.66699 8.66699 7.16699 14.834 13.5 18.501s12.166 5 17.499 4s9.33301 -4.33301 12 -10s2 -12.834 -2 -21.501
c-6 -12.667 -16.833 -30.334 -32.5 -53.001s-38.167 -44.834 -67.5 -66.501s-66.5 -39.834 -111.5 -54.501s-99.5 -20.334 -163.5 -17.001c-62 3.33301 -115.667 16.666 -161 39.999s-81.833 53.333 -109.5 90s-46.667 77.834 -57 123.501s-11.833 92 -4.5 139
s23.5 92.833 48.5 137.5s59.167 84.5 102.5 119.5s95.666 63.167 156.999 84.5s132 32 212 32c82.667 0 155.834 -12.5 219.501 -37.5s120.834 -58 171.501 -99s96.167 -87.5 136.5 -139.5s79 -104.833 116 -158.5l110.5 -157c36.667 -51 76 -95.5 118 -133.5
c20 30 41.667 58 65 84s48.5 48.833 75.5 68.5s55.833 35.667 86.5 48s63.334 20.166 98.001 23.499zM387.999 259.009c16 44.667 25.001 81.8301 27.001 111.497s0 53.5 -6 71.5s-14.833 30.833 -26.5 38.5s-23.167 11.5 -34.5 11.5
c-19.333 0 -39.166 -6.16699 -59.499 -18.5s-40 -28.666 -59 -48.999s-36.667 -43.666 -53 -69.999s-30.333 -53.333 -42 -81s-20.334 -55.167 -26.001 -82.5s-7.33398 -52.166 -5.00098 -74.499s9.5 -41.166 21.5 -56.499s30 -25 54 -29
c20.667 -3.33301 41.334 1.5 62.001 14.5s40.167 30.667 58.5 53s35.166 47.666 50.499 75.999s28 56.5 38 84.5zM880 625.005c40 0 74.833 7.66895 104.5 23.002s53.167 34.666 70.5 57.999s28.333 48.333 33 75s2 51.667 -8 75s-27.5 42.666 -52.5 57.999
s-58.5 23 -100.5 23c-30 0 -58.5 -5.5 -85.5 -16.5s-52.667 -26.5 -77 -46.5s-47.333 -43.833 -69 -71.5s-42.167 -57.834 -61.5 -90.501c34.667 -27.333 72 -48.666 112 -63.999s84.667 -23 134 -23z" />
    <glyph glyph-name="e" unicode="e" horiz-adv-x="431" 
d="M443 422c0 -24.667 -8.66895 -49.001 -26.002 -73.001s-41.666 -47.5 -72.999 -70.5s-69.166 -45.5 -113.499 -67.5s-93.833 -43.333 -148.5 -64c-0.666992 -15.333 0.5 -30.166 3.5 -44.499s8.33301 -27 16 -38s17.667 -19.667 30 -26s27.166 -9.5 44.499 -9.5
c26 0 49.5 6.16699 70.5 18.5s39.333 26.833 55 43.5s28.667 33.334 39 50.001l22.5 37c4 6.66699 7.33301 8.83398 10 6.50098s3 -6.16602 1 -11.499c-1.33301 -4.66699 -7.16602 -16.5 -17.499 -35.5s-24.833 -39.167 -43.5 -60.5s-41.334 -40.5 -68.001 -57.5
s-57 -25.5 -91 -25.5c-35.333 0 -63 7.5 -83 22.5s-33.833 34.667 -41.5 59s-9.5 52.166 -5.5 83.499s12.5 63.166 25.5 95.499s29.833 64.166 50.5 95.499s44 59.166 70 83.499s54 44 84 59s60.667 22.5 92 22.5c14 0 26.833 -2.5 38.5 -7.5s21.834 -11.667 30.501 -20
s15.5 -18.166 20.5 -29.499s7.5 -23.333 7.5 -36zM328.998 494.999c-31.333 0 -61.167 -10.8311 -89.5 -32.498s-53.666 -48.834 -75.999 -81.501s-40.666 -68.334 -54.999 -107.001s-22.833 -74.667 -25.5 -108c62 21.333 113.5 44.333 154.5 69s73.333 49.167 97 73.5
s40 47.833 49 70.5s12.167 42.5 9.5 59.5s-9.83398 30.667 -21.501 41s-25.834 15.5 -42.501 15.5z" />
    <glyph glyph-name="f" unicode="f" horiz-adv-x="353" 
d="M632 793c0.666992 -10 -1.83496 -17.833 -7.50195 -23.5s-12.167 -9.5 -19.5 -11.5c-6.66699 -2 -14.5 -1.33301 -23.5 2s-15.833 10.666 -20.5 21.999c-2.66699 7.33301 -5.16699 15.5 -7.5 24.5s-6.16602 17.5 -11.499 25.5s-13.5 14.333 -24.5 19
s-26.5 6.33398 -46.5 5.00098c-18.667 -1.33301 -36 -8.33301 -52 -21s-30.667 -28.834 -44 -48.501s-25.5 -41.834 -36.5 -66.501s-21.167 -50 -30.5 -76s-17.666 -51.667 -24.999 -77s-14.333 -48 -21 -68h161c5.33301 0 9.33301 -1.33301 12 -4
s3.83398 -5.83398 3.50098 -9.50098s-2 -6.83398 -5 -9.50098s-7.16699 -4 -12.5 -4h-167l-21 -66.5l-28.5 -91.5l-33 -105.5l-34.5 -110l-33 -104.5l-28 -89c-21.333 -67.333 -48.166 -133.833 -80.499 -199.5s-69.333 -128 -111 -187s-87.667 -113.333 -138 -163
s-104.5 -92.167 -162.5 -127.5s-119.667 -62.166 -185 -80.499s-133.666 -25.5 -204.999 -21.5c-36 2 -68.833 8.83301 -98.5 20.5s-55.167 26.667 -76.5 45s-38.333 39.5 -51 63.5s-20 49.333 -22 76c-2.66699 32 1.33301 65.167 12 99.5s28 67.166 52 98.499
s54.833 60 92.5 86s82.167 46.667 133.5 62c41.333 12.667 79.833 18 115.5 16s66.667 -9.16699 93 -21.5s47.833 -29 64.5 -50s26.667 -44.5 30 -70.5c4.66699 -33.333 1.83398 -64.833 -8.49902 -94.5s-24.833 -56 -43.5 -79s-40 -41.167 -64 -54.5s-47.333 -20 -70 -20
c-9.33301 0 -16 2.33301 -20 7s-5.5 9.5 -4.5 14.5s4.16699 9.16699 9.5 12.5s12.666 3.66602 21.999 0.999023c21.333 -5.33301 42.166 -2.66602 62.499 8.00098s38.333 26.334 54 47.001s27.5 44.5 35.5 71.5s10.667 53.833 8 80.5
c-2.66699 22.667 -11.167 43.834 -25.5 63.501s-33.666 35.5 -57.999 47.5s-53.333 19 -87 21s-70.834 -3 -111.501 -15c-44 -13.333 -82 -31.333 -114 -54s-58.167 -48.334 -78.5 -77.001s-34.666 -59 -42.999 -91s-10.5 -63.333 -6.5 -94c3.33301 -24 10.5 -47 21.5 -69
s25.833 -41.667 44.5 -59s41 -31.666 67 -42.999s55.333 -18.333 88 -21c72.667 -6.66699 140.5 -0.333984 203.5 18.999s121.5 47.333 175.5 84s103.167 80.334 147.5 131.001s84.333 104.334 120 161.001s66.5 114.5 92.5 173.5s47.667 115.167 65 168.5l34 106.5
l38 122.5l40.5 132.5l40.5 136.5c6 21.333 7.16699 37.666 3.5 48.999s-10.167 19.5 -19.5 24.5s-20.333 7.83301 -33 8.5s-25.334 1 -38.001 1c-6.66699 0 -11.334 1.33301 -14.001 4s-3.83398 5.83398 -3.50098 9.50098s1.83301 6.83398 4.5 9.50098s6.66699 4 12 4h121
c38 132 82.5 228 133.5 288s105.833 89 164.5 87c43.333 -1.33301 74.833 -10 94.5 -26s30.5 -34.333 32.5 -55z" />
    <glyph glyph-name="g" unicode="g" horiz-adv-x="494" 
d="M-538 -873c-39.333 0 -75.6729 5.83008 -109.006 17.4971s-62.166 27.167 -86.499 46.5s-43.333 42 -57 68s-20.5 53.667 -20.5 83c0 48.667 11.333 94.334 34 137.001s52.334 79.834 89.001 111.501s78.5 56.667 125.5 75s94.5 27.5 142.5 27.5
c31.333 0 59.5 -4.16699 84.5 -12.5s46.333 -20 64 -35s31.334 -33.167 41.001 -54.5s14.5 -45 14.5 -71s-5.33301 -51.833 -16 -77.5s-24.834 -48.834 -42.501 -69.501s-37.5 -37.334 -59.5 -50.001s-44.333 -19 -67 -19c-9.33301 0 -16 1.83301 -20 5.5
s-6 7.83398 -6 12.501s1.83301 8.83398 5.5 12.501s8.5 5.5 14.5 5.5c9.33301 0 19.833 -1 31.5 -3s26.167 1.66699 43.5 11c12 6.66699 23.833 15.5 35.5 26.5s22 23.667 31 38s16.333 30.5 22 48.5s8.5 37 8.5 57c0 34.667 -7 62.5 -21 83.5s-30.833 37.167 -50.5 48.5
s-40 19 -61 23s-38.5 6 -52.5 6c-46.667 0 -90.667 -8.33301 -132 -25s-77.666 -39 -108.999 -67s-56.166 -60.5 -74.499 -97.5s-27.5 -76.167 -27.5 -117.5c0 -29.333 5.33301 -57.166 16 -83.499s27 -49.833 49 -70.5s50 -37 84 -49s74.667 -18 122 -18
c56.667 0 110 7.5 160 22.5s97 35.667 141 62s84.833 57.666 122.5 93.999s72.667 75.833 105 118.5s62.166 87.5 89.499 134.5s52.333 94.833 75 143.5c16.667 37.333 32.167 75.5 46.5 114.5s27.333 77.5 39 115.5l32.5 110.5l29 99.5h-3c-6 -15.333 -15.667 -33 -29 -53
s-28.833 -38.833 -46.5 -56.5s-37.167 -32.667 -58.5 -45s-43 -18.5 -65 -18.5c-22.667 0 -41.667 4 -57 12s-27.666 18.5 -36.999 31.5s-16 27.5 -20 43.5s-6 31.667 -6 47c0 26 4.5 53.667 13.5 83s21 58.166 36 86.499s32.5 55.5 52.5 81.5s41 49 63 69
s44.333 35.833 67 47.5s44.667 17.5 66 17.5c6.66699 0 15.167 -1.16699 25.5 -3.5s20.5 -7.83301 30.5 -16.5s18.667 -21.5 26 -38.5s11.333 -39.833 12 -68.5l2 -1c14.667 44 31.334 74.5 50.001 91.5s36.667 25.5 54 25.5c9.33301 0 14.833 -1.33301 16.5 -4
s0.833984 -4.66699 -2.49902 -6c-14.667 -8 -29.167 -27.5 -43.5 -58.5s-28.833 -68.167 -43.5 -111.5s-29.5 -90.166 -44.5 -140.499s-30.167 -98.5 -45.5 -144.5l-42.5 -122c-16.333 -45.333 -35.5 -92.666 -57.5 -141.999s-47 -99.5 -75 -150.5
s-59.667 -100.5 -95 -148.5s-74.5 -93 -117.5 -135s-90.5 -78.667 -142.5 -110s-108.5 -56 -169.5 -74s-127.5 -27 -199.5 -27zM173.993 29.9971c19.333 0 38.6641 6.83496 57.9971 20.502s37.833 31.334 55.5 53.001s33.667 46.167 48 73.5s26.5 55 36.5 83
c16 44.667 25 81.834 27 111.501s-0.166992 53.5 -6.5 71.5s-15.166 30.667 -26.499 38s-22.666 11 -33.999 11c-20.667 0 -41.5 -6.66699 -62.5 -20s-41.167 -30.833 -60.5 -52.5s-37.166 -46.334 -53.499 -74.001s-30 -55.834 -41 -84.501s-19 -56.834 -24 -84.501
s-5.5 -52.334 -1.5 -74.001s12.833 -39.167 26.5 -52.5s33.167 -20 58.5 -20z" />
    <glyph glyph-name="h" unicode="h" horiz-adv-x="495" 
d="M1001 1408c71.333 9.33301 133.002 6.83301 185.002 -7.5s93.833 -36 125.5 -65s53 -63.167 64 -102.5s11.333 -79.833 1 -121.5s-31.666 -82.167 -63.999 -121.5s-76.166 -73.5 -131.499 -102.5s-122.166 -50.667 -200.499 -65s-168.833 -16.833 -271.5 -7.5
c-67.333 6 -126.666 14.833 -177.999 26.5s-98.666 24.167 -141.999 37.5c-36 -66 -71.167 -139.167 -105.5 -219.5s-68.5 -170.833 -102.5 -271.5c9.33301 14.667 20.166 29.5 32.499 44.5s26.333 28.667 42 41s33.167 22.333 52.5 30s40.666 11.5 63.999 11.5
c38 0 63.333 -15.5 76 -46.5s9 -72.5 -11 -124.5l-14 -37l-19.5 -54l-21 -62l-19.5 -60c-9.33301 -27.333 -13 -50.666 -11 -69.999s13 -30 33 -32c10 -0.666992 20 1.16602 30 5.49902s19.333 10.5 28 18.5s16.5 17.167 23.5 27.5s12.5 20.833 16.5 31.5
c1.33301 2.66699 3.33301 3.33398 6 2.00098s3.33398 -3.66602 2.00098 -6.99902c-4 -13.333 -10 -27 -18 -41s-17.667 -26.833 -29 -38.5s-24.166 -20.834 -38.499 -27.501s-29.833 -9 -46.5 -7c-34 3.33301 -54.833 16.666 -62.5 39.999s-4.83398 57 8.49902 101
c6.66699 23.333 14.5 47.333 23.5 72l26.5 72l23.5 65.5c7 20.333 12.167 37.833 15.5 52.5c7.33301 28.667 6.33301 51.167 -3 67.5s-24.333 24.833 -45 25.5c-20.667 0 -40.834 -6 -60.501 -18s-38 -27.5 -55 -46.5s-32 -40 -45 -63s-23.167 -45.167 -30.5 -66.5
c-0.666992 -3.33301 -2.83398 -10.5 -6.50098 -21.5l-13 -40.5l-17 -52.5l-18.5 -56.5l-17 -53c-5.33301 -16.667 -10 -30.334 -14 -41.001c-2 -5.33301 -4.66699 -9.5 -8 -12.5s-6.33301 -5.16699 -9 -6.5c-2 -1.33301 -5.33301 -2.83301 -10 -4.5l-14 -5
c-4.66699 -1.66699 -8.83398 -3.33398 -12.501 -5.00098s-5.83398 -2.5 -6.50098 -2.5c-2 -0.666992 -4 -0.166992 -6 1.5s-2.66699 3.5 -2 5.5l42.5 132l42.5 133c38 118.667 78.167 230.5 120.5 335.5s88.833 201.5 139.5 289.5c-26.667 8 -52.334 15.333 -77.001 22
s-49.334 11.834 -74.001 15.501s-49.834 5.5 -75.501 5.5s-52.834 -2.33301 -81.501 -7c-31.333 -6 -58.333 -15.833 -81 -29.5s-40.667 -29.334 -54 -47.001s-21.5 -36.334 -24.5 -56.001s-0.5 -38.167 7.5 -55.5s22 -32.5 42 -45.5s46.667 -21.833 80 -26.5
c24.667 -3.33301 50 -2.33301 76 3s51.333 20.666 76 45.999c6.66699 6.66699 13.334 10 20.001 10s11.834 -2 15.501 -6s4.66699 -9 3 -15s-7.5 -12 -17.5 -18c-34 -19.333 -68 -31.166 -102 -35.499s-65.333 -3.5 -94 2.5s-53.667 16.5 -75 31.5s-36.333 32.5 -45 52.5
c-9.33301 21.333 -10.833 44.166 -4.5 68.499s20 47 41 68s49.167 38.5 84.5 52.5s77.666 21.667 126.999 23c42.667 0.666992 83.667 -3.16602 123 -11.499s79.666 -18.166 120.999 -29.499c42 70.667 86.5 134.834 133.5 192.501s97.333 107.667 151 150
s110.334 76.833 170.001 103.5s122.834 44.334 189.501 53.001zM399.002 896c112.667 -34.667 215.167 -55.667 307.5 -63s174.5 -4.83301 246.5 7.5s133.833 32.666 185.5 60.999s92.667 61 123 98s50.166 76.333 59.499 118s8 82.167 -4 121.5c-10 32 -29.333 60 -58 84
s-63 41.833 -103 53.5s-84.167 16.334 -132.5 14.001s-97.5 -13.166 -147.5 -32.499c-43.333 -16.667 -85.666 -37.834 -126.999 -63.501s-81.833 -57 -121.5 -94s-78.5 -80.5 -116.5 -130.5s-75.333 -108 -112 -174z" />
    <glyph glyph-name="i" unicode="i" horiz-adv-x="256" 
d="M61 456c-2 2 -1.66895 4.6709 0.998047 8.00391c5.33301 4.66699 12.166 9.83398 20.499 15.501s17.333 11 27 16s19.5 9 29.5 12s19.333 4.5 28 4.5c14.667 0 26.334 -2.66699 35.001 -8s14.834 -12.833 18.501 -22.5s5 -20.667 4 -33s-3.83301 -25.5 -8.5 -39.5
c-6 -18.667 -14.833 -42.667 -26.5 -72l-36 -90.5l-33.5 -87c-10 -27 -16.667 -47.167 -20 -60.5c-1.33301 -7.33301 -2 -14.833 -2 -22.5s1.16699 -15 3.5 -22s6 -12.667 11 -17s12.167 -6.5 21.5 -6.5c10.667 0 20.334 2.16699 29.001 6.5s16.834 10.333 24.501 18
s14.834 16.167 21.501 25.5s13 18.666 19 27.999c2.66699 3.33301 5 4.66602 7 3.99902s2.33301 -2.66699 1 -6c-6 -14 -13.667 -27.833 -23 -41.5s-19.833 -25.834 -31.5 -36.501s-24.334 -19.334 -38.001 -26.001s-27.5 -10 -41.5 -10c-32 0 -51.667 12.5 -59 37.5
s-4 56.5 10 94.5c4.66699 12.667 12.167 31.834 22.5 57.501l33 82l34 85l26.5 67.5c8 20.667 10.667 37.167 8 49.5s-8.83398 20.166 -18.501 23.499s-22 2.16602 -37 -3.50098s-30.833 -15.5 -47.5 -29.5c-6 -4.66699 -10.333 -5 -13 -1zM252.998 612.004
c-11.333 0 -21 4.16699 -29 12.5s-12 18.166 -12 29.499s4 21 12 29s17.667 12 29 12s21 -4 29 -12s12 -17.667 12 -29s-4 -21.166 -12 -29.499s-17.667 -12.5 -29 -12.5z" />
    <glyph glyph-name="j" unicode="j" horiz-adv-x="257" 
d="M235 408l-31.499 -105l-36.5 -119l-38 -120.5l-34.5 -109l-26.5 -84.5l-15 -47c-19.333 -60 -41.5 -109.333 -66.5 -148s-50.333 -69.5 -76 -92.5s-50.5 -39 -74.5 -48s-44.333 -13.5 -61 -13.5c-19.333 0 -40 2.33301 -62 7s-41.333 11 -58 19s-28.5 17.333 -35.5 28
s-4.83301 22.334 6.5 35.001c4 4 9.83301 7.16699 17.5 9.5s16.167 -0.5 25.5 -8.5c6 -6 11.333 -13.167 16 -21.5s10.5 -16.5 17.5 -24.5s16 -14.833 27 -20.5s26.167 -8.5 45.5 -8.5c22.667 0 44.5 7 65.5 21s40.667 32.5 59 55.5s35 49.5 50 79.5s28.167 61.333 39.5 94
c9.33301 26.667 21.5 63.667 36.5 111l49 157l55 180.5l55.5 182.5c6 20.667 7.33301 37.667 4 51s-11 21.166 -23 23.499s-28.167 -1.5 -48.5 -11.5s-44.5 -28 -72.5 -54c-3.33301 -2.66699 -6 -4 -8 -4s-3.66699 0.666992 -5 2c-2 2.66699 -2 5.66699 0 9l23.5 20.5
c10.333 9 22.166 17.833 35.499 26.5s27.833 16.167 43.5 22.5s31.5 9.5 47.5 9.5c14 0 25.5 -2.83301 34.5 -8.5s15.5 -13.167 19.5 -22.5s5.83301 -20.333 5.5 -33s-2.5 -26 -6.5 -40zM263.001 612c-11.333 0 -21 4 -29 12s-12 17.667 -12 29s4 21 12 29s17.667 12 29 12
s21 -4 29 -12s12 -17.667 12 -29s-4 -21 -12 -29s-17.667 -12 -29 -12z" />
    <glyph glyph-name="k" unicode="k" horiz-adv-x="521" 
d="M1023 1408c71.333 9.33301 133 6.84375 185 -7.48926s93.833 -36 125.5 -65s53 -63.167 64 -102.5s11.333 -79.833 1 -121.5s-31.666 -82.167 -63.999 -121.5s-76.166 -73.5 -131.499 -102.5s-122.166 -50.667 -200.499 -65s-168.833 -16.833 -271.5 -7.5
c-67.333 6 -126.666 14.833 -177.999 26.5s-98.666 24.167 -141.999 37.5c-20 -35.333 -40.333 -76 -61 -122s-41 -94.5 -61 -145.5s-39.167 -102.667 -57.5 -155l-51.5 -149.5c2.66699 -8.66699 13.334 -13.334 32.001 -14.001c12 0 24.167 2.83301 36.5 8.5
s24.166 13 35.499 22s22.166 19.167 32.499 30.5s19.5 22.666 27.5 33.999l34.5 45c11.667 15.333 23.667 28.833 36 40.5s25.166 21 38.499 28s27 9.83301 41 8.5c21.333 -2 36.666 -8.66699 45.999 -20s14.5 -24 15.5 -38s-1.33301 -28 -7 -42s-12.5 -24.333 -20.5 -31
c-8.66699 -7.33301 -19.334 -11.166 -32.001 -11.499s-22.667 3.16699 -30 10.5c-9.33301 9.33301 -13.833 19.833 -13.5 31.5s5.16602 21.5 14.499 29.5c5.33301 5.33301 11.166 10.166 17.499 14.499s10.166 10.166 11.499 17.499
c0.666992 5.33301 -0.666016 9.66602 -3.99902 12.999s-8.66602 5 -15.999 5c-16 0 -31.5 -8.16699 -46.5 -24.5s-30.5 -35.333 -46.5 -57s-33.167 -43.334 -51.5 -65.001s-38.833 -37.834 -61.5 -48.501c23.333 0 41.5 -2.5 54.5 -7.5s22.333 -11.667 28 -20
s8.33398 -17.666 8.00098 -27.999s-2.16602 -20.5 -5.49902 -30.5c-5.33301 -16.667 -10.833 -34.834 -16.5 -54.501s-9.5 -38.334 -11.5 -56.001s-0.666992 -32.667 4 -45s15 -19.5 31 -21.5c9.33301 -0.666992 18.5 1.33301 27.5 6s17.5 11 25.5 19
s15.167 16.833 21.5 26.5l17.5 27.5c1.33301 2.66699 3.16602 3.5 5.49902 2.5s2.83301 -3.16699 1.5 -6.5c-4.66699 -13.333 -11.167 -26.833 -19.5 -40.5s-18.166 -26 -29.499 -37s-24 -19.833 -38 -26.5s-29 -9.66699 -45 -9
c-25.333 0.666992 -42.166 8.66699 -50.499 24s-12 33.666 -11 54.999s4.66699 43.666 11 66.999s12.166 43.666 17.499 60.999c2 5.33301 4.33301 12.5 7 21.5s3.33398 17.667 2.00098 26s-6 15.333 -14 21s-22 8.5 -42 8.5c-28 -0.666992 -49.333 -6.83398 -64 -18.501
s-25.667 -23.834 -33 -36.501l-39 -124c-10.667 -34 -18 -56.667 -22 -68c-2 -5.33301 -4.66699 -9.5 -8 -12.5s-6.33301 -5.16699 -9 -6.5s-6.16699 -2.83301 -10.5 -4.5l-13.5 -5c-4.66699 -1.66699 -9 -3.33398 -13 -5.00098s-6.33301 -2.5 -7 -2.5
c-1.33301 -0.666992 -3 -0.166992 -5 1.5s-2.66699 3.5 -2 5.5l42.5 132l41.5 133c38 118.667 78.333 230.5 121 335.5s89.334 201.5 140.001 289.5c-26.667 8 -52.334 15.333 -77.001 22s-49.334 11.834 -74.001 15.501s-49.834 5.5 -75.501 5.5
s-52.834 -2.33301 -81.501 -7c-31.333 -6 -58.333 -15.833 -81 -29.5s-40.667 -29.334 -54 -47.001s-21.5 -36.334 -24.5 -56.001s-0.5 -38.167 7.5 -55.5s22 -32.5 42 -45.5s46.667 -21.833 80 -26.5c24.667 -3.33301 50 -2.33301 76 3s51.333 20.666 76 45.999
c6.66699 6.66699 13.334 10 20.001 10s11.834 -2 15.501 -6s4.66699 -9 3 -15s-7.5 -12 -17.5 -18c-34 -19.333 -68 -31.166 -102 -35.499s-65.333 -3.5 -94 2.5s-53.667 16.5 -75 31.5s-36.333 32.5 -45 52.5c-9.33301 21.333 -10.833 44.166 -4.5 68.499s20 47 41 68
s49.167 38.5 84.5 52.5s77.666 21.667 126.999 23c42.667 0.666992 83.667 -3.16602 123 -11.499s79.666 -18.166 120.999 -29.499c42 70.667 86.5 134.834 133.5 192.501s97.167 107.667 150.5 150s109.833 76.833 169.5 103.5s123.167 44.334 190.5 53.001zM421 896.011
c112.667 -34.667 215.167 -55.667 307.5 -63s174.5 -4.83301 246.5 7.5s133.833 32.666 185.5 60.999s92.667 61 123 98s50.166 76.333 59.499 118s8 82.167 -4 121.5c-10 32 -29.333 60 -58 84s-63 41.833 -103 53.5s-84.167 16.334 -132.5 14.001
s-97.5 -13.166 -147.5 -32.499c-43.333 -16.667 -85.666 -37.834 -126.999 -63.501s-81.833 -57 -121.5 -94s-78.5 -80.5 -116.5 -130.5s-75.333 -108 -112 -174z" />
    <glyph glyph-name="l" unicode="l" horiz-adv-x="255" 
d="M357 909c38.667 64 82.502 126.331 131.502 186.998s103.5 114.5 163.5 161.5s125.5 84.667 196.5 113s147.167 42.5 228.5 42.5c50.667 0 95.167 -6.66699 133.5 -20s70.333 -31 96 -53s45 -47.667 58 -77s19.5 -60 19.5 -92c0 -42 -11.333 -84.5 -34 -127.5
s-57.334 -81.667 -104.001 -116s-105.167 -62.5 -175.5 -84.5s-153.5 -33 -249.5 -33c-46.667 0 -90.5 2.16699 -131.5 6.5s-79.333 9.66602 -115 15.999s-69 13.666 -100 21.999s-59.5 16.5 -85.5 24.5c-24 -42 -48.167 -91.333 -72.5 -148s-48 -115.667 -71 -177
s-44.667 -122.166 -65 -182.499l-54.5 -164.5l-20 -64c-7.33301 -23.333 -11 -44.333 -11 -63c0 -14 3.16699 -25.667 9.5 -35s17.166 -14 32.499 -14c10 0 19.167 2.5 27.5 7.5s16.166 11.333 23.499 19s14 16.167 20 25.5s11.333 18.333 16 27c0.666992 2 2 3 4 3
c2.66699 0 4 -1.66699 4 -5v-2c-4.66699 -13.333 -11 -26.666 -19 -39.999s-17.5 -25.5 -28.5 -36.5s-23.333 -19.833 -37 -26.5s-27.834 -10 -42.501 -10c-13.333 0 -24.5 2 -33.5 6s-16 9.33301 -21 16s-8.5 14.334 -10.5 23.001s-3 17.667 -3 27
c0 20 2.66699 39.667 8 59s9.33301 33 12 41c18 59.333 38.167 122.166 60.5 188.499s46 131.833 71 196.5s51 126.5 78 185.5s53.833 110.833 80.5 155.5c-40 12 -78 22.167 -114 30.5s-73.333 12.5 -112 12.5c-38 0 -72 -4.16699 -102 -12.5s-55.5 -19.666 -76.5 -33.999
s-37 -30.833 -48 -49.5s-16.5 -38.334 -16.5 -59.001c0 -13.333 3.16699 -26.833 9.5 -40.5s16.333 -26 30 -37s30.667 -20 51 -27s44.5 -10.5 72.5 -10.5c20 0 40 3.66699 60 11s39.667 21 59 41c6.66699 6.66699 13.667 10 21 10c12.667 0 19 -5.33301 19 -16
c0 -10 -6.66699 -18.833 -20 -26.5s-29 -14.167 -47 -19.5s-36.167 -9.33301 -54.5 -12s-32.166 -4 -41.499 -4c-25.333 0 -49 3.33301 -71 10s-41 15.834 -57 27.501s-28.667 25.334 -38 41.001s-14 32.5 -14 50.5c0 20 5.5 40 16.5 60s27.333 38.167 49 54.5
s48.334 29.833 80.001 40.5s68.5 16.667 110.5 18c43.333 0 84.5 -4 123.5 -12s79.167 -17.667 120.5 -29zM399.002 895.998c77.333 -24 149.663 -41.3311 216.996 -51.998s130.333 -16 189 -16c86 0 161.667 10 227 30s119.833 46.167 163.5 78.5s76.5 69 98.5 110
s33 82.167 33 123.5c0 32 -6.66699 61.667 -20 89s-32.166 50.666 -56.499 69.999s-53.666 34.5 -87.999 45.5s-72.833 16.5 -115.5 16.5c-55.333 0 -111.166 -9.83301 -167.499 -29.5s-112.166 -49.834 -167.499 -90.501s-109.333 -92.167 -162 -154.5
s-103 -135.833 -151 -220.5z" />
    <glyph glyph-name="m" unicode="m" horiz-adv-x="770" 
d="M688 270c-13.333 -30.667 -25.6592 -60.667 -36.9922 -90l-27 -70c-2 -6 -3.83301 -13.333 -5.5 -22s-2 -17 -1 -25s3.66699 -15.167 8 -21.5s11.166 -10.5 20.499 -12.5c10 -2 20 -1.33301 30 2s19.667 8.83301 29 16.5s17.833 16.834 25.5 27.501s14.167 22 19.5 34
c1.33301 4 3.5 5.66699 6.5 5s3.83301 -3 2.5 -7c-4.66699 -14 -10.834 -28 -18.501 -42s-16.834 -26.333 -27.501 -37s-22.5 -19.334 -35.5 -26.001s-27.167 -10 -42.5 -10c-14 0 -27 2.33301 -39 7s-21.333 12.5 -28 23.5s-9.83398 25.667 -9.50098 44
s5.5 41.166 15.5 68.499c4.66699 12.667 10 26.334 16 41.001l18.5 44.5l19 44.5l17.5 42c4 8.66699 8.33301 20 13 34s7.5 27.833 8.5 41.5s-1.33301 25.834 -7 36.501s-16.834 17 -33.501 19c-14.667 2 -31.5 -2.66699 -50.5 -14s-38 -27.166 -57 -47.499
s-36.833 -44 -53.5 -71s-30.334 -55.5 -41.001 -85.5l-30 -83l-20 -56l-12.5 -33.5c-3 -7.66699 -4.83301 -12.834 -5.5 -15.501c-2 -4.66699 -4.66699 -9.5 -8 -14.5s-9 -9.16699 -17 -12.5c-5.33301 -2 -11.833 -3.66699 -19.5 -5s-13.167 -2.66602 -16.5 -3.99902
s-6.33301 -1.5 -9 -0.5s-3.33398 3.83301 -2.00098 8.5c0.666992 1.33301 3.33398 8.33301 8.00098 21l18 47.5l24 63.5l26 70l24.5 65.5l18.5 50.5l11.5 30c4.33301 11.333 8.16602 23 11.499 35s5.66602 23.667 6.99902 35s0.666016 21.666 -2.00098 30.999s-8 17 -16 23
s-19.333 9.33301 -34 10c-17.333 0.666992 -35.5 -6.33301 -54.5 -21s-37.167 -32.334 -54.5 -53.001s-33 -42.334 -47 -65.001s-24 -42 -30 -58l-36.5 -92.5l-31.5 -79.5l-23 -57.5c-6 -15 -9.33301 -23.833 -10 -26.5c-2 -5.33301 -4.5 -9.83301 -7.5 -13.5
s-7.83301 -7.16699 -14.5 -10.5c-5.33301 -2.66699 -12.833 -5.66699 -22.5 -9l-17.5 -6c-3.33301 -1.33301 -6 -1.16602 -8 0.500977s-2 4.83398 0 9.50098c0 1.33301 3.16699 10.166 9.5 26.499l23.5 61l31 80.5l33 85l28.5 74.5c8.33301 22.333 14.166 38.5 17.499 48.5
c10.667 30.667 15 55.834 13 75.501s-12.333 29.5 -31 29.5c-8.66699 0 -18 -3.83301 -28 -11.5s-19.5 -16.334 -28.5 -26.001s-16.667 -18.834 -23 -27.501s-9.83301 -13.667 -10.5 -15c-2.66699 -3.33301 -5.83398 -4.16602 -9.50098 -2.49902s-3.83398 4.5 -0.500977 8.5
c1.33301 2 6.16602 8.66699 14.499 20s18.666 23.333 30.999 36s25.833 24 40.5 34s29.667 15 45 15c20.667 0 34.834 -6 42.501 -18s11.834 -26 12.501 -42s-1 -32.167 -5 -48.5s-7.33301 -28.5 -10 -36.5h3c8 14 18.833 29.333 32.5 46s29 32.334 46 47.001
s34.833 27 53.5 37s37 14.667 55 14c20.667 -0.666992 36.5 -4.83398 47.5 -12.501s18.833 -17.5 23.5 -29.5s6.66699 -25.333 6 -40s-2.5 -29 -5.5 -43s-6.66699 -26.833 -11 -38.5l-10.5 -27.5h1c9.33301 17.333 20.833 34.666 34.5 51.999s28.834 32.833 45.501 46.5
s34.334 24.667 53.001 33s37.667 12.5 57 12.5c34.667 0 56.334 -17.167 65.001 -51.5s-0.666016 -83.166 -27.999 -146.499z" />
    <glyph glyph-name="n" unicode="n" horiz-adv-x="527" 
d="M409 323l20.502 54.998c7 19.333 11 37 12 53s-2.33301 29.167 -10 39.5s-22.5 15.5 -44.5 15.5c-17.333 0 -36 -7.33301 -56 -22s-39 -32.334 -57 -53.001s-34.167 -42.167 -48.5 -64.5s-24.5 -41.5 -30.5 -57.5l-36.5 -92.5l-31.5 -79.5l-23 -57.5
c-6 -15 -9.33301 -23.833 -10 -26.5c-2 -5.33301 -4.5 -9.83301 -7.5 -13.5s-8.16699 -7.16699 -15.5 -10.5c-5.33301 -2.66699 -12.833 -5.66699 -22.5 -9s-15.167 -5.33301 -16.5 -6c-3.33301 -1.33301 -6 -1.16602 -8 0.500977s-2.33301 4.83398 -1 9.50098
c0.666992 1.33301 4.16699 10.166 10.5 26.499l23.5 61l31 80.5l32.5 85l28 74.5l18.5 48.5c10.667 30.667 15 55.834 13 75.501s-12.333 29.5 -31 29.5c-8.66699 0 -18 -3.83301 -28 -11.5s-19.5 -16.334 -28.5 -26.001s-16.667 -18.834 -23 -27.501
s-9.83301 -13.667 -10.5 -15c-2.66699 -3.33301 -5.83398 -4.16602 -9.50098 -2.49902s-3.83398 4.5 -0.500977 8.5c1.33301 2 6.16602 8.66699 14.499 20s18.5 23.333 30.5 36s25.5 24 40.5 34s30.167 15 45.5 15c20 0 33.833 -6 41.5 -18s12 -26.167 13 -42.5
s-0.5 -32.5 -4.5 -48.5s-7.33301 -28 -10 -36h3c7.33301 14 18 29.333 32 46s29.833 32.167 47.5 46.5s36.167 26.5 55.5 36.5s38.333 15 57 15c28 0 48 -5.66699 60 -17s19.5 -24.833 22.5 -40.5s2.83301 -31.5 -0.5 -47.5s-6.66602 -28.333 -9.99902 -37l-21.5 -55
l-30 -75.5l-28 -70.5l-15.5 -40l-9 -25c-4 -11.333 -6.5 -22.666 -7.5 -33.999s1 -21.5 6 -30.5s15.833 -13.5 32.5 -13.5c12.667 0 24.167 2.83301 34.5 8.5s19.5 12.667 27.5 21s14.667 17.166 20 26.499s9.33301 17.333 12 24c2 4 4.5 6 7.5 6s3.5 -2.66699 1.5 -8
c-1.33301 -3.33301 -4.66602 -11.166 -9.99902 -23.499s-12.833 -25.166 -22.5 -38.499s-21.834 -25.5 -36.501 -36.5s-31.334 -16.5 -50.001 -16.5c-24 0 -41.833 4.16699 -53.5 12.5s-19 20 -22 35s-2.16699 32.833 2.5 53.5s11.334 43.167 20.001 67.5
s18.667 50.333 30 78z" />
    <glyph glyph-name="o" unicode="o" horiz-adv-x="473" 
d="M423 105c4.66699 0.666992 7.33398 -0.500977 8.00098 -3.50098s-1.33301 -5.83301 -6 -8.5c-12 -7.33301 -26.833 -14.5 -44.5 -21.5s-38.167 -12.167 -61.5 -15.5c-26 -23.333 -54.167 -40.5 -84.5 -51.5s-62.5 -13.167 -96.5 -6.5
c-26.667 5.33301 -47.834 17.333 -63.501 36s-26.167 41.334 -31.5 68.001s-6 56 -2 88s11.833 64 23.5 96s26.834 62.833 45.501 92.5s40.334 55.334 65.001 77.001s51.667 37.834 81 48.501s60.333 13.667 93 9c33.333 -5.33301 58.5 -19.5 75.5 -42.5
s27.167 -51.167 30.5 -84.5s0.166016 -69.5 -9.50098 -108.5s-24.167 -76.833 -43.5 -113.5c-8 -14 -16.833 -22.833 -26.5 -26.5s-18.334 -3.66699 -26.001 0s-13.167 9.66699 -16.5 18s-2 17.166 4 26.499c4 1.33301 8 3.33301 12 6l11.5 9.5
c4.33301 3.66699 8.16602 8.83398 11.499 15.501c16.667 30 28.667 61 36 93s9.83301 61.667 7.5 89s-9.5 50.5 -21.5 69.5s-29 30.5 -51 34.5c-20.667 4 -41.667 0.666992 -63 -10s-41.666 -26.167 -60.999 -46.5s-37.333 -44.333 -54 -72s-31.167 -56.5 -43.5 -86.5
s-21.666 -60 -27.999 -90s-8.83301 -57.667 -7.5 -83s7 -46.833 17 -64.5s25.333 -29.5 46 -35.5c15.333 -4.66699 30.833 -4.83398 46.5 -0.500977s31.167 11.833 46.5 22.5c12 10 19 19.333 21 28s2.16699 17 0.5 25s-3.16699 15.833 -4.5 23.5s1 15.5 7 23.5
c6.66699 8.66699 14.167 13.667 22.5 15s16.833 0 25.5 -4c6.66699 -3.33301 12.5 -7.5 17.5 -12.5s11 -9.83301 18 -14.5s16.167 -8.33398 27.5 -11.001s26.666 -3 45.999 -1z" />
    <glyph glyph-name="p" unicode="p" horiz-adv-x="518" 
d="M217 377c31.333 48.667 63.334 82.498 96.001 101.498s63 28.167 91 27.5c23.333 -0.666992 44.166 -7.66699 62.499 -21s32.333 -32 42 -56s14.167 -52.167 13.5 -84.5s-8 -67.833 -22 -106.5c-14 -39.333 -31.833 -75 -53.5 -107s-45.834 -58.833 -72.501 -80.5
s-55.167 -37.667 -85.5 -48s-61.5 -12.833 -93.5 -7.5c-16 2.66699 -28.667 8 -38 16s-16.5 17 -21.5 27s-8.33301 20 -10 30s-2.16699 18 -1.5 24h-3l-32.5 -101.5l-27.5 -85.5c-21.333 -67.333 -48.166 -133.833 -80.499 -199.5s-69.333 -128 -111 -187
s-87.667 -113.333 -138 -163s-104.666 -92.167 -162.999 -127.5s-120.166 -62.166 -185.499 -80.499s-133.666 -25.5 -204.999 -21.5c-36 2 -68.667 8.83301 -98 20.5s-54.666 26.667 -75.999 45s-38.333 39.5 -51 63.5s-20 49.333 -22 76
c-2.66699 32 1.33301 65.167 12 99.5s28 67.166 52 98.499s54.833 60 92.5 86s82.167 46.667 133.5 62c41.333 12.667 79.666 18 114.999 16s66.333 -9.16699 93 -21.5s48.167 -29 64.5 -50s26.5 -44.5 30.5 -70.5c4.66699 -33.333 1.83398 -64.833 -8.49902 -94.5
s-24.833 -56 -43.5 -79s-40 -41.167 -64 -54.5s-47.667 -20 -71 -20c-9.33301 0 -15.833 2.33301 -19.5 7s-5 9.5 -4 14.5s4.16699 9.16699 9.5 12.5s12.666 3.66602 21.999 0.999023c21.333 -5.33301 42.166 -2.66602 62.499 8.00098s38.333 26.334 54 47.001
s27.5 44.5 35.5 71.5s10.667 53.833 8 80.5c-2.66699 22.667 -11.167 43.834 -25.5 63.501s-33.666 35.5 -57.999 47.5s-53.333 19 -87 21s-70.834 -3 -111.501 -15c-44 -13.333 -82.167 -31.333 -114.5 -54s-58.666 -48.334 -78.999 -77.001s-34.5 -59 -42.5 -91
s-10 -63.333 -6 -94c2.66699 -24 9.66699 -47 21 -69s26.166 -41.667 44.499 -59s40.5 -31.666 66.5 -42.999s55.333 -18.333 88 -21c72.667 -6.66699 140.667 -0.333984 204 18.999s121.833 47.333 175.5 84s102.834 80.334 147.501 131.001
s84.834 104.334 120.501 161.001s66.5 114.5 92.5 173.5s47.667 115.167 65 168.5l33.5 105l39 120l41.5 129.5l41 134.5c9.33301 31.333 13.333 56.5 12 75.5s-11.333 28.5 -30 28.5c-8.66699 0 -18 -3.83301 -28 -11.5s-19.5 -16.334 -28.5 -26.001
s-16.667 -18.667 -23 -27s-9.83301 -13.166 -10.5 -14.499c-2.66699 -3.33301 -5.83398 -4.33301 -9.50098 -3s-3.83398 4.33301 -0.500977 9c1.33301 2 6.16602 8.5 14.499 19.5s18.666 22.833 30.999 35.5s25.833 24.167 40.5 34.5s29.667 15.5 45 15.5
c19.333 0 33 -5 41 -15s12.5 -22.333 13.5 -37s-0.333008 -29.834 -4 -45.501s-7.16699 -29.167 -10.5 -40.5c0.666992 0 1.16699 -0.166992 1.5 -0.5s0.833008 -0.5 1.5 -0.5zM441.001 243.998c14 40 22.501 74.6689 25.501 104.002s2 53.5 -3 72.5
s-13.333 33.167 -25 42.5s-25.5 14.333 -41.5 15s-33.333 -2.83301 -52 -10.5s-37.5 -19.834 -56.5 -36.501s-37.167 -37.667 -54.5 -63s-32.333 -55.333 -45 -90c-18 -46.667 -30.333 -86.5 -37 -119.5s-8.66699 -60.167 -6 -81.5s10 -37.333 22 -48s28 -17 48 -19
s41 3 63 15s43 28.667 63 50s38.667 46.666 56 75.999s31.666 60.333 42.999 93z" />
    <glyph glyph-name="q" unicode="q" horiz-adv-x="489" 
d="M292 -495c-36 0 -62.167 7.00488 -78.5 21.0049s-26.333 31.667 -30 53s-2.66699 45 3 71s12.167 50.667 19.5 74l55.5 173l45.5 140l41 129h-2c-6 -15.333 -15.5 -32.833 -28.5 -52.5s-28.333 -38.334 -46 -56.001s-37 -32.667 -58 -45s-42.833 -18.5 -65.5 -18.5
s-41.667 4 -57 12s-27.833 18.5 -37.5 31.5s-16.5 27.333 -20.5 43s-6 31.167 -6 46.5c0 26 4.5 53.667 13.5 83s21 58.166 36 86.499s32.5 55.5 52.5 81.5s41 49 63 69s44.5 35.833 67.5 47.5s44.833 17.5 65.5 17.5c6.66699 0 15.167 -1.16699 25.5 -3.5
s20.5 -7.83301 30.5 -16.5s18.833 -21.5 26.5 -38.5s11.5 -39.833 11.5 -68.5l2 -1c15.333 45.333 32.166 76.166 50.499 92.499s36.833 24.5 55.5 24.5c10.667 0 15.834 -1.33301 15.501 -4s-1.5 -4.66699 -3.5 -6c-10.667 -7.33301 -20.167 -17.5 -28.5 -30.5
s-17 -30.5 -26 -52.5s-18.833 -49.167 -29.5 -81.5l-38 -118.5l-47 -146l-43 -127l-35.5 -103.5l-25.5 -74.5c-9.33301 -26.667 -17.666 -54 -24.999 -82s-11.5 -53.333 -12.5 -76s2.16699 -41.334 9.5 -56.001s21.333 -22 42 -22c12 0 22.167 2 30.5 6
s15.5 8.83301 21.5 14.5s11.333 11.667 16 18s9.66699 11.5 15 15.5c6.66699 6 13.5 9.33301 20.5 10s12.5 -0.833008 16.5 -4.5s6 -8.83398 6 -15.501s-3.66699 -14 -11 -22s-16.333 -14.5 -27 -19.5s-21.334 -8.83301 -32.001 -11.5s-20 -4.5 -28 -5.5
s-13.333 -1.5 -16 -1.5zM333 492.005c-20.667 0 -41.5039 -6.66992 -62.5039 -20.0029s-41.167 -30.666 -60.5 -51.999s-37.166 -45.833 -53.499 -73.5s-30.166 -56 -41.499 -85s-19.333 -57.333 -24 -85s-5.16699 -52.167 -1.5 -73.5s12.334 -38.666 26.001 -51.999
s33.5 -20 59.5 -20c19.333 0 38.666 6.66699 57.999 20s37.833 30.833 55.5 52.5s33.667 46.167 48 73.5s26.5 55 36.5 83c16 44.667 25 81.834 27 111.501s-0.166992 53.5 -6.5 71.5s-15.166 30.667 -26.499 38s-22.666 11 -33.999 11z" />
    <glyph glyph-name="r" unicode="r" horiz-adv-x="356" 
d="M174 217l-34.9932 -98.0059c-10.667 -31.333 -20 -60.333 -28 -87c-1.33301 -5.33301 -3.5 -9.66602 -6.5 -12.999s-8.16699 -6.66602 -15.5 -9.99902c-5.33301 -2.66699 -12.166 -5.66699 -20.499 -9s-13.5 -5.66602 -15.5 -6.99902
c-3.33301 -0.666992 -6 -0.333984 -8 0.999023s-2 4.33301 0 9c0.666992 1.33301 3.66699 10.166 9 26.499l20 61.5l26.5 81l28.5 85l25 74.5l16 48.5c10.667 30.667 15 55.667 13 75s-12.333 29 -31 29c-8.66699 0 -18 -3.83301 -28 -11.5s-19.333 -16.334 -28 -26.001
s-16.167 -18.667 -22.5 -27s-10.166 -13.166 -11.499 -14.499c-2 -3.33301 -4.83301 -4.33301 -8.5 -3s-4.16699 4.33301 -1.5 9c1.33301 2 6.16602 8.5 14.499 19.5s18.666 22.833 30.999 35.5s26 24.167 41 34.5s30.167 15.5 45.5 15.5c19.333 0 32.666 -6 39.999 -18
s11.166 -26.167 11.499 -42.5s-1.5 -32.666 -5.5 -48.999s-7.66699 -28.5 -11 -36.5h3c5.33301 10.667 15.333 27.334 30 50.001s32.5 47.834 53.5 75.501s44.833 55.834 71.5 84.501s54.667 54.667 84 78s59.666 42.166 90.999 56.499s62.666 20.5 93.999 18.5
c30 -2 51.333 -12.667 64 -32s16 -41 10 -65c-4 -16 -10 -28.5 -18 -37.5s-16.833 -14.833 -26.5 -17.5s-19 -2.33398 -28 0.999023s-16.5 9 -22.5 17c-4 6 -6.5 12.5 -7.5 19.5s-0.166992 13.833 2.5 20.5s6.66699 12.834 12 18.501s12.333 9.5 21 11.5
c9.33301 2 15.5 5.83301 18.5 11.5s3.16699 11.334 0.5 17.001s-7.83398 10.667 -15.501 15s-16.834 6.5 -27.501 6.5c-25.333 0 -52.333 -7 -81 -21s-57.334 -33.167 -86.001 -57.5s-57.167 -52.666 -85.5 -84.999s-55 -67 -80 -104s-48 -75.5 -69 -115.5
s-38.833 -79.667 -53.5 -119z" />
    <glyph glyph-name="s" unicode="s" horiz-adv-x="387" 
d="M399 431c0 -11.333 -1.82617 -20.9971 -5.49316 -28.9971s-8.33398 -14.167 -14.001 -18.5s-11.834 -7 -18.501 -8s-13 -0.5 -19 1.5c-13.333 5.33301 -20.833 13 -22.5 23s-0.833984 19 2.49902 27c4 8.66699 8.66699 15.5 14 20.5s8 10.833 8 17.5
c0 13.333 -5.5 23 -16.5 29s-24.5 9 -40.5 9c-12.667 0 -26 -2.16699 -40 -6.5s-26.833 -10.5 -38.5 -18.5s-21.334 -17.833 -29.001 -29.5s-11.5 -24.834 -11.5 -39.501c0 -17.333 4 -33.666 12 -48.999s18 -29.833 30 -43.5s24.833 -27.167 38.5 -40.5s26.5 -27 38.5 -41
s22 -28.667 30 -44s12 -32 12 -50c0 -8.66699 -2.16699 -21.334 -6.5 -38.001s-13 -33.334 -26 -50.001s-31.667 -31.167 -56 -43.5s-56.5 -17.833 -96.5 -16.5c-13.333 0 -27.5 1.66699 -42.5 5s-28.833 9 -41.5 17s-23.167 18.833 -31.5 32.5s-12.5 30.5 -12.5 50.5
c-0.666992 24.667 4.33301 42 15 52s21.667 14.333 33 13c10 -1.33301 17.833 -5.5 23.5 -12.5s8.16699 -15.167 7.5 -24.5s-2.16699 -16.833 -4.5 -22.5s-5 -10.834 -8 -15.501s-5.66699 -9.5 -8 -14.5s-3.5 -11.167 -3.5 -18.5c0 -8.66699 2.66699 -16 8 -22
s11.666 -10.833 18.999 -14.5s15.333 -6.33398 24 -8.00098s16 -2.5 22 -2.5c14.667 0 29.667 1.5 45 4.5s29.166 8.66699 41.499 17s22.5 20 30.5 35s12 34.5 12 58.5c0 14.667 -4 28.834 -12 42.501s-17.833 27 -29.5 40s-24.334 26 -38.001 39s-26.334 26.333 -38.001 40
s-21.5 27.667 -29.5 42s-12 29.833 -12 46.5c0 24 5.66699 45 17 63s25.833 33 43.5 45s37.5 20.833 59.5 26.5s44 8.5 66 8.5c4.66699 0 12.334 -0.833008 23.001 -2.5s21.667 -5.33398 33 -11.001s21.333 -14.167 30 -25.5s13 -26.666 13 -45.999z" />
    <glyph glyph-name="t" unicode="t" horiz-adv-x="274" 
d="M1122 940c39.333 1.33301 78.5 -0.168945 117.5 -4.50195s75.167 -11.166 108.5 -20.499s62.5 -21.5 87.5 -36.5s43.5 -32.5 55.5 -52.5s16 -42.667 12 -68s-18 -53 -42 -83c-4 -5.33301 -9.16699 -10.166 -15.5 -14.499s-13 -8.16602 -20 -11.499s-13.667 -6 -20 -8
s-11.5 -3 -15.5 -3c-7.33301 0 -9.33301 1.66699 -6 5s7.33301 6.66602 12 9.99902c18 12.667 32.667 28 44 46s17.833 36.667 19.5 56s-2.83301 38.5 -13.5 57.5s-29.167 36 -55.5 51s-61.5 27.167 -105.5 36.5s-98.667 14 -164 14c-66.667 0 -136.167 -4.5 -208.5 -13.5
s-143.833 -21.333 -214.5 -37s-138.167 -34.167 -202.5 -55.5s-121.5 -44.666 -171.5 -69.999c-1.33301 -2 -4.66602 -10.5 -9.99902 -25.5l-20.5 -57.5l-28 -79l-32 -90.5l-32.5 -92l-29 -83.5l-22.5 -65l-12.5 -36l-18 -54.5
c-6.66699 -20.333 -11.334 -39.333 -14.001 -57s-2 -32.834 2 -45.501s13.667 -19.667 29 -21c10 -0.666992 19.667 1.33301 29 6s17.833 11 25.5 19s14.667 16.667 21 26s12.166 18.666 17.499 27.999c1.33301 2.66699 3.16602 3.5 5.49902 2.5s2.83301 -3.16699 1.5 -6.5
c-4.66699 -14 -11.167 -27.833 -19.5 -41.5s-18.166 -25.834 -29.499 -36.501s-23.833 -19.334 -37.5 -26.001s-28.5 -9.66699 -44.5 -9c-21.333 0.666992 -36.5 6.83398 -45.5 18.501s-14.167 26.334 -15.5 44.001s0.5 37.167 5.5 58.5s11 42 18 62s13.833 38.333 20.5 55
s11.334 29 14.001 37c10.667 29.333 17.834 54.833 21.501 76.5s5.5 41 5.5 58s-1.16699 32.333 -3.5 46s-4.5 27.167 -6.5 40.5s-3.16699 27.166 -3.5 41.499s1.83398 30.833 6.50098 49.5c6 24.667 21.167 49 45.5 73s56.166 47.667 95.499 71c8 22 16.333 40.333 25 55
s17.5 26.167 26.5 34.5s18 14.333 27 18s18.167 5.83398 27.5 6.50098c11.333 0.666992 17.5 -0.666016 18.5 -3.99902s0.833008 -5.66602 -0.5 -6.99902c-9.33301 -6.66699 -18.333 -14.834 -27 -24.501s-17 -23.167 -25 -40.5c50 24 105.833 46.167 167.5 66.5
s126.667 38.333 195 54s138.666 28.5 210.999 38.5s143.5 16.333 213.5 19zM149 402.998l31.5 88.498l29.5 84l25.5 71.5l18.5 52c-30 -19.333 -54.5 -39.166 -73.5 -59.499s-31.167 -41.166 -36.5 -62.499c-4.66699 -18 -6.66699 -35.333 -6 -52s2.16699 -32.5 4.5 -47.5
l6.5 -41.5c2 -12.667 2 -23.667 0 -33z" />
    <glyph glyph-name="u" unicode="u" horiz-adv-x="551" 
d="M352 142c-6.66699 -12 -16.498 -26.501 -29.498 -43.501s-28.333 -33.5 -46 -49.5s-37.667 -29.5 -60 -40.5s-45.833 -16.167 -70.5 -15.5c-25.333 0.666992 -45 5.33398 -59 14.001s-24 19.667 -30 33s-8.16699 28.5 -6.5 45.5s5.83398 34.167 12.501 51.5l32 75
l32 73.5l26.5 61c7.66699 17.667 12.834 29.834 15.501 36.501c13.333 32 19 57.333 17 76s-12.333 28.334 -31 29.001c-8.66699 0 -18.167 -3.83301 -28.5 -11.5s-20 -16.334 -29 -26.001s-16.833 -18.834 -23.5 -27.501s-10.334 -13.667 -11.001 -15
c-3.33301 -3.33301 -6.66602 -4.16602 -9.99902 -2.49902s-3.33301 4.5 0 8.5c1.33301 2 6.33301 8.66699 15 20s19.334 23.166 32.001 35.499s26.667 23.666 42 33.999s30.666 15.5 45.999 15.5c10.667 0 20.5 -2.16699 29.5 -6.5s15.833 -11.833 20.5 -22.5
s6.16699 -25.167 4.5 -43.5s-7.83398 -41.5 -18.501 -69.5c-8 -21.333 -18.167 -44.833 -30.5 -70.5l-35.5 -77c-11.333 -25.667 -21.5 -50.834 -30.5 -75.501s-14.167 -46.667 -15.5 -66s2 -35.166 10 -47.499s23.333 -19.166 46 -20.499c18.667 -1.33301 37.5 3 56.5 13
s37.5 24 55.5 42s35.167 39.5 51.5 64.5s30.833 52.167 43.5 81.5c12 26 23.167 52.167 33.5 78.5l32.5 85.5c8.66699 22.667 17.667 41.834 27 57.501s18.666 28.334 27.999 38.001s18.833 16.667 28.5 21s19.167 6.83301 28.5 7.5c5.33301 0 9.16602 -0.333008 11.499 -1
s3.66602 -1.66699 3.99902 -3s0.166016 -2.66602 -0.500977 -3.99902s-1.33398 -2 -2.00098 -2c-10.667 -7.33301 -20.5 -18 -29.5 -32s-18.5 -32.333 -28.5 -55s-21.167 -50.667 -33.5 -84l-42.5 -120c-5.33301 -16.667 -11.5 -34.834 -18.5 -54.501
s-11.667 -38.334 -14 -56.001s-1.5 -32.667 2.5 -45s14.333 -19.5 31 -21.5c9.33301 -0.666992 18.666 1.33301 27.999 6s18 11 26 19s15.333 16.667 22 26s12.334 18.666 17.001 27.999c2.66699 2.66699 4.83398 3.5 6.50098 2.5s1.83398 -3.16699 0.500977 -6.5
c-4.66699 -13.333 -11.5 -26.833 -20.5 -40.5s-19.333 -26 -31 -37s-24.667 -19.833 -39 -26.5s-29.5 -9.66699 -45.5 -9c-18.667 0.666992 -32.667 5.83398 -42 15.501s-15 21.667 -17 36s-1.33301 30.166 2 47.499s8 34 14 50h-2v0z" />
    <glyph glyph-name="v" unicode="v" horiz-adv-x="433" 
d="M431 362c0 -17.333 -2.49902 -38.498 -7.49902 -63.498s-12.667 -51.167 -23 -78.5s-23.333 -54.333 -39 -81s-34.334 -50.834 -56.001 -72.501s-46.5 -39.167 -74.5 -52.5s-59 -20 -93 -20c-19.333 0 -35.333 2.83301 -48 8.5s-23 13 -31 22s-13.667 19.5 -17 31.5
s-5 24.667 -5 38c0 20.667 5.33301 44.667 16 72s23.167 55.5 37.5 84.5l44.5 86c15.333 28.333 27.666 53.666 36.999 75.999s14 40.333 14 54s-7.66699 20.5 -23 20.5c-10.667 0 -24 -7.16699 -40 -21.5s-32.333 -33.166 -49 -56.499
c-3.33301 -4 -6.66602 -4.83301 -9.99902 -2.5s-3.33301 5.83301 0 10.5l23.5 29.5c9 11 19.167 21.5 30.5 31.5s24 18.5 38 25.5s29.333 10.5 46 10.5c14 0 24.833 -3.5 32.5 -10.5s11.5 -18.833 11.5 -35.5c0 -14 -3.66699 -30.667 -11 -50s-16.5 -40 -27.5 -62l-35.5 -69
c-12.667 -24 -24.5 -47.5 -35.5 -70.5s-20.167 -45 -27.5 -66s-11 -39.833 -11 -56.5c0 -10 1 -19.667 3 -29s5.5 -17.666 10.5 -24.999s12 -13.333 21 -18s20.167 -7 33.5 -7c33.333 0 64.666 11.5 93.999 34.5s54.833 51.5 76.5 85.5s38.834 70.167 51.501 108.5
s19 73.166 19 104.499c0 24 -3 42.5 -9 55.5s-12.5 23.5 -19.5 31.5s-13.833 15 -20.5 21s-10.334 14 -11.001 24c-1.33301 12.667 0.833984 22.667 6.50098 30s14.167 11 25.5 11c19.333 0 32.833 -14.333 40.5 -43s11.5 -67.334 11.5 -116.001z" />
    <glyph glyph-name="w" unicode="w" horiz-adv-x="691" 
d="M703 386c0 -22.667 -2.66797 -48.1699 -8.00098 -76.5029s-13.5 -57.333 -24.5 -87s-24.667 -58.334 -41 -86.001s-34.833 -52.334 -55.5 -74.001s-43.834 -38.834 -69.501 -51.501s-53.167 -18.334 -82.5 -17.001c-40 1.33301 -66.833 11 -80.5 29
s-17.834 41.333 -12.501 70c-30 -30 -61.5 -54.5 -94.5 -73.5s-65.5 -27.5 -97.5 -25.5c-38 2 -64.833 13 -80.5 33s-23.167 43.333 -22.5 70c0.666992 21.333 7 45.666 19 72.999s26.167 55.333 42.5 84l50 84c17 27.333 31 51.833 42 73.5s17 39.334 18 53.001
s-6.16699 21.167 -21.5 22.5c-11.333 1.33301 -25.333 -5.5 -42 -20.5s-33.667 -34.167 -51 -57.5c-2.66699 -4 -5.66699 -4.83301 -9 -2.5s-3.33301 5.83301 0 10.5c6.66699 8.66699 15.334 18.834 26.001 30.501s22.5 22.834 35.5 33.501s26.667 19.334 41 26.001
s28.5 9 42.5 7c22 -3.33301 34.333 -13.166 37 -29.499s-0.666016 -36.666 -9.99902 -60.999s-22.5 -51.5 -39.5 -81.5l-51 -90.5c-17 -30.333 -32 -59.5 -45 -87.5s-19.833 -52.333 -20.5 -73c-0.666992 -10 -0.166992 -19.333 1.5 -28s5 -16.5 10 -23.5
s11.833 -12.5 20.5 -16.5s19.667 -6 33 -6c19.333 0 39.166 5.16699 59.499 15.5s40.333 24.333 60 42s38.334 38 56.001 61s33.334 46.833 47.001 71.5s24.834 49.5 33.501 74.5s13.667 48.5 15 70.5c1.33301 21.333 0.833008 38.166 -1.5 50.499
s-5.33301 22.666 -9 30.999s-7.33398 15.833 -11.001 22.5s-6.5 15 -8.5 25c-1.33301 6 0 12.167 4 18.5s9.33301 10.833 16 13.5s14 2.66699 22 0s15 -10 21 -22c5.33301 -11.333 9.66602 -26.5 12.999 -45.5s4 -42.167 2 -69.5c-2 -24.667 -6.16699 -48.5 -12.5 -71.5
s-13.5 -44.167 -21.5 -63.5s-15.667 -36.333 -23 -51s-12.333 -25.334 -15 -32.001c-7.33301 -17.333 -13.333 -34.333 -18 -51s-6 -31.667 -4 -45s8 -24.166 18 -32.499s26 -12.5 48 -12.5c19.333 0 38.333 5.83301 57 17.5s36.5 27.334 53.5 47.001
s32.5 42.334 46.5 68.001s26.167 51.667 36.5 78s17.833 52.333 22.5 78s6.33398 48.834 5.00098 69.501c-2 21.333 -5.83301 37.666 -11.5 48.999s-11.5 20.333 -17.5 27s-11.5 12.334 -16.5 17.001s-8.16699 11.334 -9.5 20.001c-2.66699 12 0.166016 21.5 8.49902 28.5
s17.5 10.833 27.5 11.5c17.333 1.33301 29.333 -10 36 -34s10.334 -60 11.001 -108z" />
    <glyph glyph-name="x" unicode="x" horiz-adv-x="523" 
d="M584 550c9.33301 0 17.832 -2.83105 25.499 -8.49805s11.167 -13.834 10.5 -24.501c-0.666992 -11.333 -4.5 -19.833 -11.5 -25.5s-15.167 -8.5 -24.5 -8.5c-8 0 -15 2.5 -21 7.5s-13.5 8.16699 -22.5 9.5s-20.833 -1.33398 -35.5 -8.00098s-34.667 -22 -60 -46l-24 -24
l-37 -38l-46.5 -49l-53.5 -57l25.5 -76c8.33301 -24.667 16.166 -46 23.499 -64l16.5 -43c5 -13.333 10 -24.833 15 -34.5s10.667 -17.334 17 -23.001s13.833 -8.5 22.5 -8.5c12 0 23.333 3.33301 34 10s19.834 14.5 27.501 23.5s14 17.667 19 26s8.16699 13.833 9.5 16.5
c2 5.33301 4.16699 7.66602 6.5 6.99902s2.83301 -3.66699 1.5 -9c-1.33301 -2 -5 -9 -11 -21s-14.5 -24.5 -25.5 -37.5s-24.333 -24.833 -40 -35.5s-33.834 -16 -54.501 -16c-11.333 0 -20.666 2.33301 -27.999 7s-13.333 10 -18 16s-8.33398 12.333 -11.001 19
s-4.66699 12 -6 16c-1.33301 3.33301 -4 10.833 -8 22.5l-15 42l-20 55l-23 62.5l-77 -83l-70 -76l-55.5 -61c-15.667 -17.333 -26.834 -29.333 -33.501 -36c-39.333 -42.667 -79.166 -74 -119.499 -94s-77.833 -24.667 -112.5 -14c-26 8 -35.333 21 -28 39
c6 15.333 18 20.333 36 15c5.33301 -1.33301 10.666 -4.16602 15.999 -8.49902s11.5 -8.33301 18.5 -12s15.5 -6 25.5 -7s22 1.33301 36 7s30.333 15.334 49 29.001s40.667 33.5 66 59.5l39.5 42.5l59.5 65l70 77l72 79.5l-23.5 65l-20.5 57.5l-15.5 42.5
c-4.33301 11.333 -6.83301 18.333 -7.5 21c-3.33301 8.66699 -7 16.834 -11 24.501s-9.83301 11.5 -17.5 11.5s-17.667 -5 -30 -15s-28.166 -28.333 -47.499 -55c-3.33301 -5.33301 -7 -7.33301 -11 -6s-4.33301 4.33301 -1 9c26 38.667 49 65.667 69 81
s37.333 22.666 52 21.999s26.834 -7.33398 36.501 -20.001s17.167 -28 22.5 -46c2.66699 -9.33301 8.33398 -27.666 17.001 -54.999l30 -92l37 40l31 32l66 65c22.667 21.333 44.5 40.333 65.5 57s40.833 30.167 59.5 40.5s35 15.5 49 15.5z" />
    <glyph glyph-name="y" unicode="y" horiz-adv-x="514" 
d="M545 509c5.33301 0 9.17871 -0.501953 11.5117 -1.50195s3.66602 -2.16699 3.99902 -3.5s0.166016 -2.66602 -0.500977 -3.99902s-1.33398 -2 -2.00098 -2c-12 -6 -24.833 -23 -38.5 -51s-27.834 -62.333 -42.501 -103s-29.5 -85.334 -44.5 -134.001l-43.5 -143
c-9.33301 -31.333 -21.666 -69 -36.999 -113s-33.833 -91.333 -55.5 -142s-46.834 -103.334 -75.501 -158.001s-61.334 -107.834 -98.001 -159.501s-77.834 -100.5 -123.501 -146.5s-96.167 -86 -151.5 -120s-115.833 -60.333 -181.5 -79s-136.834 -26.667 -213.501 -24
c-35.333 0.666992 -67.833 6.83398 -97.5 18.501s-55.5 27 -77.5 46s-39.5 40.667 -52.5 65s-20.5 49.833 -22.5 76.5c-2.66699 32 1.33301 65.167 12 99.5s28 67.166 52 98.499s54.833 60 92.5 86s82.167 46.667 133.5 62c41.333 12.667 79.666 18 114.999 16
s66.333 -9.16699 93 -21.5s48.167 -29 64.5 -50s26.5 -44.5 30.5 -70.5c4.66699 -33.333 1.83398 -64.833 -8.49902 -94.5s-24.833 -56 -43.5 -79s-40 -41.167 -64 -54.5s-47.667 -20 -71 -20c-9.33301 0 -15.833 2.33301 -19.5 7s-5 9.5 -4 14.5s4.16699 9.16699 9.5 12.5
s12.666 3.66602 21.999 0.999023c21.333 -5.33301 42.166 -2.66602 62.499 8.00098s38.333 26.334 54 47.001s27.5 44.5 35.5 71.5s10.667 53.833 8 80.5c-2.66699 22.667 -11.167 43.834 -25.5 63.501s-33.666 35.5 -57.999 47.5s-53.333 19 -87 21
s-70.834 -3 -111.501 -15c-44 -13.333 -82 -31.333 -114 -54s-58.333 -48.334 -79 -77.001s-35 -59 -43 -91s-10 -63.333 -6 -94c3.33301 -24 10.5 -47 21.5 -69s25.667 -41.667 44 -59s40.5 -31.666 66.5 -42.999s55.333 -18.333 88 -21
c72.667 -6.66699 140.667 -0.333984 204 18.999s121.833 47.333 175.5 84s102.834 80.334 147.501 131.001s84.834 104.334 120.501 161.001s66.5 114.5 92.5 173.5s47.667 115.167 65 168.5l36.5 116.5l42.5 133.5h-2c-6 -12 -15.167 -26.5 -27.5 -43.5
s-27 -33.333 -44 -49s-36.5 -29 -58.5 -40s-45.333 -16.167 -70 -15.5s-44.334 5.33398 -59.001 14.001s-25.334 19.667 -32.001 33s-9.5 28.5 -8.5 45.5s4.83301 34.167 11.5 51.5c8.66699 24 18.167 49 28.5 75l29.5 73.5l24.5 61l14.5 36.5
c12.667 32 17.667 57.333 15 76s-13.334 28 -32.001 28c-8.66699 0 -18 -3.83301 -28 -11.5s-19.5 -16.334 -28.5 -26.001s-16.667 -18.667 -23 -27s-9.83301 -13.166 -10.5 -14.499c-2.66699 -3.33301 -5.83398 -4.33301 -9.50098 -3s-3.83398 4.33301 -0.500977 9
c1.33301 2 6.16602 8.66699 14.499 20s18.5 23.166 30.5 35.499s25.5 23.666 40.5 33.999s30.167 15.5 45.5 15.5c10 0 19.667 -2.16699 29 -6.5s16.5 -11.833 21.5 -22.5s7.16699 -25.167 6.5 -43.5s-6 -41.5 -16 -69.5c-7.33301 -21.333 -16.666 -44.833 -27.999 -70.5
s-22.166 -51.5 -32.499 -77.5s-19.5 -51.333 -27.5 -76s-12.5 -46.667 -13.5 -66s2.83301 -35.166 11.5 -47.499s24 -19.166 46 -20.499c18.667 -1.33301 37.5 3.16699 56.5 13.5s37.333 24.5 55 42.5s34.167 39.5 49.5 64.5s29 51.833 41 80.5
c10.667 26 20.5 52.333 29.5 79s19.167 55 30.5 85c16 46 33.167 78 51.5 96s37.166 27.667 56.499 29z" />
    <glyph glyph-name="z" unicode="z" horiz-adv-x="455" 
d="M394 427c6.66699 0 12.6729 1.83301 18.0059 5.5s10.333 8.33398 15 14.001s9.16699 11.834 13.5 18.501s9.16602 13 14.499 19c9.33301 11.333 18.166 18.333 26.499 21s14.833 2.5 19.5 -0.5s7 -8.33301 7 -16s-3.33301 -16.5 -10 -26.5
c-10 -15.333 -19.833 -27.333 -29.5 -36s-19.334 -16.167 -29.001 -22.5l-30.5 -20c-10.667 -7 -22.334 -16.167 -35.001 -27.5c-8.66699 -7.33301 -21.834 -19.166 -39.501 -35.499l-59.5 -55.5l-69 -64l-67.5 -62.5l-55 -51.5l-31.5 -29c12 8 23.167 14.667 33.5 20
s20.666 9.66602 30.999 12.999s21.166 5.83301 32.499 7.5s23.666 2.5 36.999 2.5c29.333 0 53.333 -7.33301 72 -22s34.167 -32.834 46.5 -54.501s23 -45.167 32 -70.5s18.333 -48.833 28 -70.5s21.167 -39.834 34.5 -54.501s30.666 -22 51.999 -22
c10.667 0 21.334 3.16699 32.001 9.5s20.834 14.166 30.501 23.499s18.5 19.333 26.5 30l21 29c4.66699 6.66699 8.66699 8.66699 12 6s2.66602 -7.66699 -2.00098 -15c-2 -3.33301 -7.5 -11.333 -16.5 -24s-20.5 -25.834 -34.5 -39.501s-30.167 -26 -48.5 -37
s-38.166 -16.5 -59.499 -16.5c-20 0 -36.833 7.66699 -50.5 23s-26 34.5 -37 57.5s-21.5 47.833 -31.5 74.5s-21.167 51.5 -33.5 74.5s-26.833 42.167 -43.5 57.5s-37 23 -61 23c-14 0 -27 -2.66699 -39 -8s-23.333 -12.333 -34 -21s-20.834 -18 -30.501 -28l-27.5 -28
c-11.333 -10.667 -22 -17.167 -32 -19.5s-18 -1.66602 -24 2.00098s-8.66699 9.5 -8 17.5s6.33398 17.333 17.001 28c4 4 13 12.333 27 25l51 45.5l66.5 59l73.5 65.5l72.5 65l62.5 57l44 41c11.333 10.667 17.333 17 18 19c-13.333 6 -25.333 12.167 -36 18.5
s-21.667 12.333 -33 18s-23.5 10.334 -36.5 14.001s-27.833 5.5 -44.5 5.5c-24.667 0 -50.167 -6.83301 -76.5 -20.5s-48.166 -37.5 -65.499 -71.5c-2 -3.33301 -4.33301 -5.5 -7 -6.5s-5 -1.16699 -7 -0.5s-3.33301 2.16699 -4 4.5s0.333008 5.5 3 9.5l26.5 42.5
c10.333 16.333 22 31.833 35 46.5s27.333 27.167 43 37.5s33.167 15.5 52.5 15.5c17.333 0 32.833 -4.66699 46.5 -14s26.5 -19.5 38.5 -30.5l34 -30.5c10.667 -9.33301 21.667 -14 33 -14z" />
    <glyph glyph-name="braceleft" unicode="{" horiz-adv-x="618" 
d="M731 1153c-30.667 -21.333 -58.167 -50.1689 -82.5 -86.502s-47.666 -76.166 -69.999 -119.499l-68 -135.5c-23 -47 -48.5 -91.5 -76.5 -133.5s-59.833 -79.5 -95.5 -112.5s-77.5 -57.5 -125.5 -73.5c18 -3.33301 33.167 -12.833 45.5 -28.5s20.5 -38 24.5 -67
s3.5 -65.333 -1.5 -109s-15.167 -95.167 -30.5 -154.5c-19.333 -73.333 -30.833 -134.833 -34.5 -184.5s-2.83398 -91.167 2.49902 -124.5s13.666 -60.166 24.999 -80.499s22.333 -37.5 33 -51.5c7.33301 -9.33301 14.833 -16.833 22.5 -22.5s14.667 -10.5 21 -14.5
l17 -10.5c5 -3 8.5 -6.16699 10.5 -9.5c4.66699 -7.33301 3.66699 -13.333 -3 -18s-13.334 -4 -20.001 2c-29.333 27.333 -53.5 55 -72.5 83s-34.167 56.333 -45.5 85s-19.166 57.334 -23.499 86.001s-6.5 57.667 -6.5 87c0 42 3.5 83.167 10.5 123.5
s14.833 78.833 23.5 115.5l23.5 103c7 32 10.5 60.333 10.5 85c0 12.667 -1.16699 25 -3.5 37s-6.66602 22.667 -12.999 32s-15 17 -26 23s-24.833 9 -41.5 9c-5.33301 0 -7.66602 1.5 -6.99902 4.5s3 4.5 7 4.5c36 0 68 10 96 30s54 46.5 78 79.5s46.833 70.667 68.5 113
l68 130c23.667 44.333 49.167 88.166 76.5 131.499s58.5 82.333 93.5 117s74.667 63.5 119 86.5s95.5 36.5 153.5 40.5c7.33301 0.666992 12.833 -0.5 16.5 -3.5s5.66699 -6.33301 6 -10s-1.16699 -7.16699 -4.5 -10.5s-8 -5 -14 -5s-14.167 1.16699 -24.5 3.5s-23 3 -38 2
s-32.833 -4.83301 -53.5 -11.5s-44.334 -19 -71.001 -37z" />
    <glyph glyph-name="bar" unicode="|" horiz-adv-x="333" 
d="M381 1193c5.33301 1.33301 9.16895 1.66797 11.502 1.00098s3.83301 -1.5 4.5 -2.5s0.666992 -2.16699 0 -3.5s-1.33398 -2.33301 -2.00098 -3c-11.333 -11.333 -21 -27.333 -29 -48s-16 -49.667 -24 -87c-0.666992 -4 -3.5 -20 -8.5 -48l-19.5 -109.5l-27 -155
l-32.5 -186.5l-35.5 -203.5l-35.5 -205l-33.5 -192.5l-29 -165l-21.5 -123c-5.66699 -33.333 -9.5 -55.333 -11.5 -66c-8.66699 -48 -20.834 -82.5 -36.501 -103.5s-31.167 -33.5 -46.5 -37.5c-5.33301 -2 -9.33301 -2.66699 -12 -2s-4.16699 1.5 -4.5 2.5
s-0.333008 2.33301 0 4s0.833008 2.5 1.5 2.5c11.333 11.333 20.833 27.166 28.5 47.499s15.5 48.166 23.5 83.499c1.33301 5.33301 5.33301 27 12 65l26 146.5l35.5 203.5l41 237l43 247l40.5 233l34.5 194.5l23.5 132.5c8.66699 48 21.167 82.833 37.5 104.5
s31.5 33.834 45.5 36.501z" />
    <glyph glyph-name="braceright" unicode="}" horiz-adv-x="658" 
d="M6 -313c30.667 20.667 58.3379 49.334 83.0049 86.001s48.167 76.667 70.5 120l68 135.5c23 47 48.5 91.5 76.5 133.5s59.833 79.5 95.5 112.5s77.5 57.5 125.5 73.5c-18 3.33301 -33.167 12.833 -45.5 28.5s-20.5 38 -24.5 67s-3.5 65.333 1.5 109
s15.167 95.167 30.5 154.5c19.333 72.667 30.833 134 34.5 184s2.83398 91.667 -2.49902 125s-13.833 60 -25.5 80s-22.834 37 -33.501 51c-7.33301 9.33301 -14.666 17 -21.999 23s-14.333 11 -21 15l-17.5 10.5c-5 3 -8.5 6.16699 -10.5 9.5s-2.5 6.66602 -1.5 9.99902
s2.83301 6 5.5 8s5.66699 2.83301 9 2.5s6.66602 -1.83301 9.99902 -4.5c29.333 -27.333 53.666 -55 72.999 -83s34.666 -56.333 45.999 -85s19.166 -57.5 23.499 -86.5s6.5 -57.833 6.5 -86.5c0 -42 -3.5 -83.167 -10.5 -123.5s-14.833 -78.833 -23.5 -115.5l-23.5 -103
c-7 -32 -10.5 -60.333 -10.5 -85c0 -12.667 1.16699 -25 3.5 -37s6.66602 -22.833 12.999 -32.5s15 -17.334 26 -23.001s24.833 -8.5 41.5 -8.5c5.33301 0 7.66602 -1.5 6.99902 -4.5s-3 -4.5 -7 -4.5c-36 0 -68 -10 -96 -30s-54 -46.5 -78 -79.5
s-46.833 -70.667 -68.5 -113l-68 -130c-23.667 -44.333 -49.167 -88.166 -76.5 -131.499s-58.5 -82.5 -93.5 -117.5s-74.667 -64 -119 -87s-95.5 -36.5 -153.5 -40.5c-7.33301 -0.666992 -12.833 0.5 -16.5 3.5s-5.66699 6.33301 -6 10s1.16699 7.16699 4.5 10.5s8 5 14 5
s14.167 -1.16699 24.5 -3.5s23 -3 38 -2s32.667 5 53 12s43.833 19.5 70.5 37.5z" />
    <glyph glyph-name="asciitilde" unicode="~" horiz-adv-x="833" 
d="M307 595c-13.333 2 -20.002 10.9971 -20.002 26.9971c0 8.66699 3.5 16.667 10.5 24s15.5 13.333 25.5 18s20.333 8.33398 31 11.001s19.667 4 27 4c15.333 0 27.333 -2 36 -6s16.334 -8.5 23.001 -13.5s13.334 -9.5 20.001 -13.5s16 -6 28 -6
c12.667 0 23.167 2.83301 31.5 8.5s16 11.834 23 18.501s13.833 12.834 20.5 18.501s14.667 8.5 24 8.5c5.33301 0 10 -2.66699 14 -8s5.33301 -12.333 4 -21c-2 -8 -6 -15.5 -12 -22.5s-13.333 -13 -22 -18s-17.834 -8.83301 -27.501 -11.5s-19.167 -4 -28.5 -4
c-12 0 -22.167 2 -30.5 6s-16.333 8.5 -24 13.5s-15.5 9.66699 -23.5 14s-17.667 6.5 -29 6.5c-15.333 0 -27.166 -3.16699 -35.499 -9.5s-15.5 -13 -21.5 -20s-12.167 -13.167 -18.5 -18.5s-14.833 -7.33301 -25.5 -6z" />
    <glyph glyph-name="exclamdown" unicode="&#xa1;" horiz-adv-x="385" 
d="M232 301c5.33301 0 9.16992 -0.333984 11.5029 -1.00098s3.66602 -1.66699 3.99902 -3s0.166016 -2.66602 -0.500977 -3.99902s-1.33398 -2.33301 -2.00098 -3c-13.333 -9.33301 -25.166 -24.333 -35.499 -45s-20.5 -48.667 -30.5 -84
c-38 -129.333 -76.667 -246.333 -116 -351s-82.666 -193.667 -129.999 -267s-100 -129.833 -158 -169.5s-124.333 -59.5 -199 -59.5c-32.667 0 -57.334 4.16699 -74.001 12.5s-23.334 18.166 -20.001 29.499c2.66699 9.33301 8.33398 14.166 17.001 14.499
s17.334 -1.16699 26.001 -4.5c29.333 -12.667 60.333 -21 93 -25s66.5 2 101.5 18s71 45.333 108 88s74.5 104.334 112.5 185.001c8 16 17 36.333 27 61s20.167 51.834 30.5 81.501l32.5 95l33.5 102l32 102.5l29.5 97c13.333 46 29.666 78.833 48.999 98.5
s38.666 30.167 57.999 31.5zM264.004 502.999c11.333 0 21 -4 29 -12s12 -17.667 12 -29s-4 -21 -12 -29s-17.667 -12 -29 -12s-21 4 -29 12s-12 17.667 -12 29s4 21 12 29s17.667 12 29 12z" />
    <glyph glyph-name="cent" unicode="&#xa2;" horiz-adv-x="423" 
d="M429 472c2 -3.33301 2.66797 -6.49414 2.00098 -9.49414s-2.16699 -5.16699 -4.5 -6.5s-5.16602 -1.33301 -8.49902 0s-6.33301 4.66602 -9 9.99902c-6 10 -14.833 18.333 -26.5 25s-24.5 11 -38.5 13l-31.5 -110.5l-34 -121.5l-35 -123.5l-33.5 -116.5
c18 2 35 7.5 51 16.5s31 20.333 45 34s26.833 29 38.5 46s22.167 34.833 31.5 53.5c2.66699 5.33301 5.66699 7.66602 9 6.99902s4 -4 2 -10c-4.66699 -14 -12.5 -30.5 -23.5 -49.5s-24.833 -37.667 -41.5 -56s-35.334 -34.833 -56.001 -49.5s-43 -24.334 -67 -29.001
l-21.5 -75.5l-17 -60l-12 -41c-3 -10.333 -4.83301 -16.166 -5.5 -17.499c-3.33301 -7.33301 -6.5 -13.833 -9.5 -19.5s-9.5 -12.167 -19.5 -19.5c-5.33301 -4 -7 -2.33301 -5 5c0 0.666992 1.66699 6.66699 5 18l13.5 47l20 71l25.5 89c-20 0 -38.833 3.16699 -56.5 9.5
s-33 16 -46 29s-23.167 29.667 -30.5 50s-11 44.166 -11 71.499c0 26 4 53 12 81s18.833 55.667 32.5 83s30 53.166 49 77.499s39.333 45.666 61 63.999s44.5 33 68.5 44s48 16.5 72 16.5l28.5 101c7 25.333 10.833 38.333 11.5 39c5.33301 19.333 15.333 31.666 30 36.999
c3.33301 1.33301 3.66602 -2.66699 0.999023 -12c-1.33301 -5.33301 -6.33301 -22.833 -15 -52.5l-33 -113.5c19.333 -2.66699 36 -8 50 -16s24.667 -17.667 32 -29zM320.001 505.006c-30.667 -2 -60 -14.833 -88 -38.5s-52.667 -52.667 -74 -87s-38.333 -71.5 -51 -111.5
s-19 -77.167 -19 -111.5s7.5 -63.333 22.5 -87s39.833 -36.5 74.5 -38.5l34 121l36 125.5l34.5 120.5z" />
    <glyph glyph-name="sterling" unicode="&#xa3;" horiz-adv-x="1229" 
d="M1152 -103c6 -24 1.16699 -48.3389 -14.5 -73.0059s-38.667 -46.834 -69 -66.501s-66.333 -35.834 -108 -48.501s-85.5 -19 -131.5 -19c-55.333 0 -105.833 10 -151.5 30s-87.667 45 -126 75s-73.833 62 -106.5 96s-64 65 -94 93c-21.333 -14 -44.333 -25 -69 -33
s-52 -12 -82 -12c-26.667 0 -49.334 3.83301 -68.001 11.5s-32.834 17 -42.501 28s-14.834 23.167 -15.501 36.5s3.33301 25.5 12 36.5s22 20.167 40 27.5s41 11 69 11c29.333 -0.666992 57.333 -7.5 84 -20.5s53.667 -30.167 81 -51.5c30.667 31.333 57 72.333 79 123
s44.333 109.667 67 177c-18.667 11.333 -37.167 21.666 -55.5 30.999s-39.166 15.333 -62.499 18c-27.333 2.66699 -51.666 -0.333008 -72.999 -9s-37.833 -20.167 -49.5 -34.5s-18 -30.333 -19 -48s5.16699 -34.167 18.5 -49.5c5.33301 -6 11.166 -10.167 17.499 -12.5
s12.5 -3.83301 18.5 -4.5s11.667 -0.833984 17 -0.500977s10 -0.166992 14 -1.5c4.66699 -1.33301 7.83398 -3.66602 9.50098 -6.99902s2 -6.66602 1 -9.99902s-3.5 -6.16602 -7.5 -8.49902s-9 -3.16602 -15 -2.49902c-14 2 -27.333 6.33301 -40 13
s-23.334 15.334 -32.001 26.001s-15 22.5 -19 35.5s-5 26.5 -3 40.5c4.66699 27.333 21.834 49.5 51.501 66.5s67.5 25.5 113.5 25.5c26 0 49 -3.5 69 -10.5s39 -15.167 57 -24.5c18 58.667 35.5 109.834 52.5 153.501s34 81.167 51 112.5s33.833 57.333 50.5 78
s33.334 37.5 50.001 50.5s33.667 22.833 51 29.5s35 11.667 53 15c31.333 5.33301 58.166 3.33301 80.499 -6s38.5 -18.666 48.5 -27.999c6.66699 -6 10.167 -12 10.5 -18s-1.16699 -11 -4.5 -15s-8.16602 -6 -14.499 -6s-12.5 3 -18.5 9
c-4.66699 4.66699 -9.66699 10.167 -15 16.5s-11.833 12.166 -19.5 17.499s-17 9.66602 -28 12.999s-24.5 4 -40.5 2c-24 -2.66699 -45.667 -11.334 -65 -26.001s-37.166 -33.5 -53.499 -56.5s-31.166 -49.167 -44.499 -78.5s-25.833 -60.166 -37.5 -92.499
s-22.834 -65.166 -33.501 -98.499l-31 -96c13.333 -7.33301 27.333 -14 42 -20s30.5 -10.5 47.5 -13.5s35.667 -3.83301 56 -2.5s43.5 5.66602 69.5 12.999c8 2.66699 12.667 2 14 -2s-1.66699 -7.33301 -9 -10c-28 -10 -53.167 -16.667 -75.5 -20s-42.833 -4.5 -61.5 -3.5
s-35.667 3.83301 -51 8.5s-29.666 10.334 -42.999 17.001c-8 -24 -17.667 -49.5 -29 -76.5s-24 -53.333 -38 -79s-29.667 -50.167 -47 -73.5s-36.333 -43.666 -57 -60.999c21.333 -17.333 43 -36.5 65 -57.5l69 -65.5l76 -67c25.333 -21.333 51.166 -40.166 77.499 -56.499
s53.333 -29.166 81 -38.499s56.167 -13.333 85.5 -12c56.667 2 104.5 10.833 143.5 26.5s69.5 34 91.5 55s36 43 42 66s4.33301 42.667 -5 59s-25.666 27.5 -48.999 33.5s-53.333 2.66699 -90 -10c-13.333 -4.66699 -22.833 -9.83398 -28.5 -15.501
s-10.167 -10.5 -13.5 -14.5c-3.33301 -3.33301 -6.83301 -5.16602 -10.5 -5.49902s-6.83398 0.333984 -9.50098 2.00098s-4.16699 4 -4.5 7s1.5 6.5 5.5 10.5c4 3.33301 12 8 24 14s26.5 11.667 43.5 17s35 9.33301 54 12s37 2.5 54 -0.5s32.167 -9.66699 45.5 -20
s22.666 -25.833 27.999 -46.5zM208 -44.0059c26 0 49.499 3.5 70.499 10.5s40.167 17.167 57.5 30.5c-24 21.333 -47.5 38.833 -70.5 52.5s-46.167 20.5 -69.5 20.5c-32 0 -55.167 -6 -69.5 -18s-20.666 -25 -18.999 -39s11 -27 28 -39s41.167 -18 72.5 -18z" />
    </font>
</defs>
</svg>
